<svg width="1080" height="277" viewBox="0 0 1080 277" fill="none" xmlns="http://www.w3.org/2000/svg">
<path d="M150.603 136.041C150.603 153.793 147.189 168.634 140.362 180.565C133.606 192.423 123.796 201.371 110.931 207.408C98.0662 213.373 82.5783 216.356 64.4671 216.356H19.836V58.7456H69.3183C85.8483 58.7456 100.186 61.6923 112.332 67.5856C124.478 73.407 133.893 82.0673 140.577 93.5665C147.261 104.994 150.603 119.152 150.603 136.041ZM115.89 136.904C115.89 125.261 114.165 115.702 110.715 108.228C107.337 100.682 102.307 95.1117 95.6226 91.5182C89.0106 87.9247 80.8175 86.128 71.0432 86.128H53.2554V188.758H67.5934C83.9079 188.758 96.0179 184.41 103.924 175.714C111.901 167.017 115.89 154.081 115.89 136.904ZM194.794 95.8304V216.356H161.914V95.8304H194.794ZM178.408 48.612C183.295 48.612 187.499 49.7619 191.021 52.0617C194.543 54.2897 196.303 58.4941 196.303 64.6749C196.303 70.7838 194.543 75.0241 191.021 77.3958C187.499 79.6956 183.295 80.8455 178.408 80.8455C173.449 80.8455 169.209 79.6956 165.687 77.3958C162.237 75.0241 160.512 70.7838 160.512 64.6749C160.512 58.4941 162.237 54.2897 165.687 52.0617C169.209 49.7619 173.449 48.612 178.408 48.612ZM277.256 120.518H248.796V216.356H215.915V120.518H197.804V104.67L215.915 95.8304V86.9904C215.915 76.713 217.64 68.7355 221.09 63.0578C224.611 57.3082 229.535 53.2835 235.859 50.9837C242.255 48.612 249.802 47.4261 258.498 47.4261C264.894 47.4261 270.716 47.9651 275.962 49.0432C281.209 50.0494 285.485 51.1993 288.791 52.4929L280.382 76.6412C277.867 75.8506 275.136 75.1319 272.189 74.4851C269.243 73.8382 265.865 73.5148 262.056 73.5148C257.456 73.5148 254.078 74.9163 251.922 77.7192C249.838 80.4502 248.796 83.9719 248.796 88.284V95.8304H277.256V120.518ZM362.745 120.518H334.285V216.356H301.404V120.518H283.293V104.67L301.404 95.8304V86.9904C301.404 76.713 303.129 68.7355 306.579 63.0578C310.1 57.3082 315.024 53.2835 321.348 50.9837C327.744 48.612 335.291 47.4261 343.987 47.4261C350.383 47.4261 356.205 47.9651 361.451 49.0432C366.698 50.0494 370.974 51.1993 374.28 52.4929L365.871 76.6412C363.356 75.8506 360.625 75.1319 357.678 74.4851C354.732 73.8382 351.354 73.5148 347.545 73.5148C342.945 73.5148 339.567 74.9163 337.411 77.7192C335.327 80.4502 334.285 83.9719 334.285 88.284V95.8304H362.745V120.518ZM412.542 93.5665C423.682 93.5665 433.276 95.7226 441.326 100.035C449.375 104.275 455.592 110.456 459.976 118.577C464.36 126.698 466.552 136.616 466.552 148.331V164.286H388.825C389.184 173.557 391.951 180.852 397.126 186.171C402.373 191.417 409.631 194.04 418.903 194.04C426.593 194.04 433.636 193.25 440.032 191.669C446.429 190.087 453.005 187.716 459.76 184.553V209.995C453.795 212.942 447.543 215.098 441.002 216.464C434.534 217.829 426.664 218.512 417.393 218.512C405.319 218.512 394.611 216.284 385.268 211.828C375.996 207.372 368.702 200.58 363.383 191.453C358.137 182.326 355.513 170.826 355.513 156.956C355.513 142.869 357.885 131.154 362.629 121.811C367.444 112.396 374.128 105.353 382.68 100.682C391.233 95.9382 401.187 93.5665 412.542 93.5665ZM412.758 116.96C406.361 116.96 401.043 119.008 396.803 123.105C392.634 127.201 390.227 133.634 389.58 142.402H435.72C435.648 137.515 434.75 133.167 433.025 129.358C431.372 125.548 428.856 122.53 425.479 120.302C422.173 118.074 417.932 116.96 412.758 116.96ZM541.791 93.5665C543.444 93.5665 545.349 93.6743 547.505 93.8899C549.733 94.0336 551.529 94.2492 552.895 94.5367L550.415 125.369C549.337 125.009 547.792 124.758 545.78 124.614C543.839 124.399 542.15 124.291 540.713 124.291C536.473 124.291 532.34 124.83 528.316 125.908C524.363 126.986 520.805 128.747 517.643 131.19C514.481 133.562 511.965 136.724 510.097 140.677C508.3 144.558 507.401 149.337 507.401 155.015V216.356H474.521V95.8304H499.424L504.275 116.098H505.892C508.264 112.001 511.211 108.264 514.732 104.886C518.326 101.436 522.386 98.7052 526.914 96.6928C531.514 94.6086 536.473 93.5665 541.791 93.5665ZM605.711 93.5665C616.85 93.5665 626.445 95.7226 634.494 100.035C642.544 104.275 648.761 110.456 653.145 118.577C657.529 126.698 659.721 136.616 659.721 148.331V164.286H581.994C582.353 173.557 585.12 180.852 590.295 186.171C595.541 191.417 602.8 194.04 612.071 194.04C619.761 194.04 626.804 193.25 633.201 191.669C639.597 190.087 646.173 187.716 652.929 184.553V209.995C646.964 212.942 640.711 215.098 634.171 216.464C627.703 217.829 619.833 218.512 610.562 218.512C598.488 218.512 587.779 216.284 578.436 211.828C569.165 207.372 561.87 200.58 556.552 191.453C551.305 182.326 548.682 170.826 548.682 156.956C548.682 142.869 551.054 131.154 555.797 121.811C560.612 112.396 567.296 105.353 575.849 100.682C584.401 95.9382 594.355 93.5665 605.711 93.5665ZM605.926 116.96C599.53 116.96 594.211 119.008 589.971 123.105C585.803 127.201 583.395 133.634 582.748 142.402H628.889C628.817 137.515 627.918 133.167 626.193 129.358C624.54 125.548 622.025 122.53 618.647 120.302C615.341 118.074 611.101 116.96 605.926 116.96ZM736.145 93.5665C749.01 93.5665 759.359 97.0881 767.193 104.131C775.027 111.103 778.944 122.314 778.944 137.766V216.356H746.063V145.959C746.063 137.335 744.482 130.831 741.32 126.447C738.23 122.063 733.343 119.871 726.659 119.871C716.597 119.871 709.733 123.285 706.068 130.112C702.403 136.94 700.57 146.786 700.57 159.651V216.356H667.69V95.8304H692.808L697.228 111.246H699.061C701.648 107.078 704.846 103.7 708.655 101.113C712.536 98.5255 716.813 96.6209 721.484 95.3991C726.227 94.1774 731.115 93.5665 736.145 93.5665ZM842.971 218.512C831.041 218.512 820.871 216.356 812.462 212.044C804.054 207.66 797.657 200.904 793.273 191.776C788.889 182.649 786.697 170.97 786.697 156.74C786.697 142.007 789.177 130.004 794.136 120.733C799.167 111.39 806.102 104.527 814.942 100.143C823.854 95.7585 834.167 93.5665 845.882 93.5665C854.219 93.5665 861.406 94.393 867.443 96.046C873.552 97.6271 878.87 99.5317 883.398 101.76L873.695 127.201C868.521 125.117 863.706 123.428 859.25 122.135C854.794 120.769 850.338 120.086 845.882 120.086C840.132 120.086 835.353 121.452 831.544 124.183C827.735 126.842 824.896 130.867 823.027 136.257C821.159 141.647 820.224 148.403 820.224 156.524C820.224 164.502 821.231 171.114 823.243 176.36C825.255 181.607 828.166 185.524 831.975 188.111C835.784 190.626 840.42 191.884 845.882 191.884C852.709 191.884 858.782 190.986 864.101 189.189C869.419 187.32 874.594 184.733 879.625 181.427V209.564C874.594 212.726 869.311 214.99 863.777 216.356C858.315 217.793 851.38 218.512 842.971 218.512ZM938.585 93.5665C949.725 93.5665 959.32 95.7226 967.369 100.035C975.418 104.275 981.635 110.456 986.019 118.577C990.403 126.698 992.595 136.616 992.595 148.331V164.286H914.868C915.227 173.557 917.994 180.852 923.169 186.171C928.416 191.417 935.674 194.04 944.946 194.04C952.636 194.04 959.679 193.25 966.075 191.669C972.472 190.087 979.048 187.716 985.803 184.553V209.995C979.838 212.942 973.586 215.098 967.046 216.464C960.577 217.829 952.708 218.512 943.436 218.512C931.362 218.512 920.654 216.284 911.311 211.828C902.039 207.372 894.745 200.58 889.426 191.453C884.18 182.326 881.557 170.826 881.557 156.956C881.557 142.869 883.928 131.154 888.672 121.811C893.487 112.396 900.171 105.353 908.723 100.682C917.276 95.9382 927.23 93.5665 938.585 93.5665ZM938.801 116.96C932.404 116.96 927.086 119.008 922.846 123.105C918.677 127.201 916.27 133.634 915.623 142.402H961.763C961.691 137.515 960.793 133.167 959.068 129.358C957.415 125.548 954.9 122.53 951.522 120.302C948.216 118.074 943.975 116.96 938.801 116.96ZM1014.38 218.283C1009.48 218.283 1005.28 216.554 1001.77 213.094C998.315 209.585 996.585 205.384 996.585 200.491C996.585 195.648 998.315 191.496 1001.77 188.037C1005.28 184.577 1009.48 182.847 1014.38 182.847C1019.12 182.847 1023.27 184.577 1026.83 188.037C1030.39 191.496 1032.17 195.648 1032.17 200.491C1032.17 203.753 1031.33 206.743 1029.65 209.461C1028.02 212.13 1025.87 214.28 1023.2 215.911C1020.53 217.493 1017.59 218.283 1014.38 218.283Z" fill="#602BC1"/>
<path d="M408.387 63.999V25.4113H417.503C429.274 25.4113 433.876 30.7215 433.876 43.9971C433.876 57.2727 429.274 63.999 418.565 63.999H408.387ZM421.043 74C436.266 74 446.444 61.8749 446.444 43.9971C446.444 26.1193 435.116 15.2333 419.185 15.2333H396.439V74H421.043ZM461.35 47.9798C461.793 41.9615 465.598 38.4214 470.2 38.4214C474.714 38.4214 478.962 41.519 479.139 47.9798H461.35ZM490.999 55.2371C490.999 37.9789 483.919 29.3055 470.554 29.3055C457.19 29.3055 449.491 37.9789 449.491 51.4315C449.491 67.1852 456.748 75.1506 471.263 75.1506C480.555 75.1506 487.724 70.1058 490.379 61.1669H478.52C477.723 64.1761 474.449 66.0346 470.731 66.0346C465.067 66.0346 461.35 61.7864 460.996 55.2371H490.999ZM532.236 43.6431C531.616 34.2617 525.952 29.3055 513.384 29.3055C500.109 29.3055 495.064 34.8812 495.064 42.2271C495.064 46.1212 496.48 49.4844 500.551 52.051C503.649 53.9981 507.72 55.2371 515.066 57.0072C518.783 57.8923 522.058 58.8658 522.058 61.9635C522.058 65.2381 518.429 66.4772 514.358 66.4772C508.782 66.4772 505.33 64.0876 505.33 60.0164H493.471C493.648 68.8668 501.082 75.1506 514.446 75.1506C526.837 75.1506 533.475 69.7518 533.475 60.7244C533.475 55.0601 530.908 52.051 526.306 50.1924C522.943 48.8649 518.252 47.8913 513.296 46.4753C508.605 45.1477 506.215 44.0856 506.215 41.519C506.215 38.9524 508.693 37.8904 513.03 37.8904C518.252 37.8904 520.553 39.3949 521.173 43.6431H532.236ZM548.492 74V30.456H536.986V74H548.492ZM548.492 25.2343V14.5253H536.986V25.2343H548.492ZM574.635 65.3266C568.97 65.3266 564.811 60.3704 564.811 52.582C564.811 43.6431 568.174 39.3064 574.635 39.3064C581.184 39.3064 584.458 43.8201 584.458 53.2901C584.458 60.6359 580.21 65.3266 574.635 65.3266ZM584.104 75.3276C584.104 81.0803 579.237 84.709 573.13 84.709C567.377 84.709 563.572 81.6113 563.572 76.3896H552.863C552.863 87.6296 561.801 94.6214 573.926 94.6214C586.052 94.6214 595.61 87.5411 595.61 74.4425V30.456H584.104V35.8548C581.361 31.4296 577.378 29.3055 571.891 29.3055C561.359 29.3055 552.863 38.4214 552.863 51.9625C552.863 63.3795 557.819 74.354 572.156 74.354C577.821 74.354 582.511 72.0529 584.104 68.1587V75.3276ZM640.152 74V43.8201C640.152 34.3502 634.045 29.3055 625.726 29.3055C618.734 29.3055 614.309 31.9606 611.653 36.8283V30.456H600.679V74H612.184V49.0419C612.184 42.4041 615.105 39.0409 621.123 39.0409C626.611 39.0409 628.558 40.8995 628.558 47.6258V74H640.152ZM694.594 74V25.4998H712.383V15.2333H664.591V25.4998H682.292V74H694.594ZM755.017 74V43.2006C755.017 34.5272 748.821 29.3055 739.883 29.3055C734.041 29.3055 728.731 32.2261 727.049 36.1203V14.5253H715.544V74H727.049V49.0419C727.049 43.2006 730.236 38.4214 735.988 38.4214C741.21 38.4214 743.423 40.457 743.423 47.0063V74H755.017ZM770.941 47.9798C771.384 41.9615 775.189 38.4214 779.792 38.4214C784.305 38.4214 788.554 41.519 788.731 47.9798H770.941ZM800.59 55.2371C800.59 37.9789 793.51 29.3055 780.146 29.3055C766.782 29.3055 759.082 37.9789 759.082 51.4315C759.082 67.1852 766.339 75.1506 780.854 75.1506C790.147 75.1506 797.315 70.1058 799.971 61.1669H788.111C787.314 64.1761 784.04 66.0346 780.323 66.0346C774.658 66.0346 770.941 61.7864 770.587 55.2371H800.59Z" fill="#DFDFDF"/>
</svg>
