<svg width="470" height="428" viewBox="0 0 470 428" fill="none" xmlns="http://www.w3.org/2000/svg">
<g clip-path="url(#clip0_167_967)">
<path d="M204.579 172.536L192.234 195.064L186.93 204.748C186.93 204.748 185.163 204.868 182.097 204.834C167.202 204.662 121.536 200.687 97.9259 160.555C78.3886 127.34 90.3421 111.649 109.17 112.053C113.72 112.156 118.021 114.195 122.803 117.614C134.578 126.011 149.258 142.714 177.639 159.142C186.334 164.158 195.331 168.632 204.579 172.536Z" fill="white"/>
<path d="M124.757 190.701C124.241 190.701 123.741 190.523 123.342 190.196C122.943 189.868 122.669 189.413 122.568 188.907C122.467 188.401 122.544 187.876 122.787 187.42C123.029 186.965 123.422 186.608 123.898 186.409C124.958 185.961 149.843 175.055 152.297 142.283C152.308 141.983 152.38 141.689 152.508 141.417C152.636 141.146 152.817 140.903 153.04 140.703C153.264 140.503 153.526 140.351 153.81 140.254C154.094 140.158 154.395 140.12 154.694 140.142C154.993 140.165 155.285 140.247 155.551 140.385C155.818 140.522 156.054 140.712 156.245 140.943C156.437 141.174 156.58 141.441 156.666 141.729C156.752 142.016 156.779 142.318 156.745 142.616C154.081 178.192 126.788 190.035 125.627 190.519C125.352 190.638 125.056 190.7 124.757 190.701Z" fill="#0E192F"/>
<g opacity="0.25">
<path d="M204.579 172.535L192.234 195.064L186.93 204.747C186.93 204.747 185.163 204.868 182.097 204.833C167.202 204.662 121.536 200.687 97.9259 160.555C88.9204 145.25 86.6059 133.663 88.5684 125.661C89.7703 132.027 92.7423 139.611 97.9259 148.421C121.532 188.551 167.198 192.523 182.093 192.694C185.16 192.729 186.926 192.609 186.926 192.609L192.23 182.925L199.215 170.182C200.963 170.975 202.751 171.759 204.579 172.535Z" fill="#0E192F"/>
</g>
<path d="M183.154 207.822C177.345 207.822 165.781 207.272 152.331 203.675C127.105 196.928 107.405 182.538 95.3601 162.061C81.9145 139.203 83.9011 126.204 87.9342 119.323C91.9296 112.508 99.5203 108.865 109.225 109.081C118.434 109.278 126.36 116.181 137.328 125.735C151.537 138.111 170.997 155.059 205.733 169.803C206.446 170.12 207.005 170.705 207.291 171.431C207.577 172.157 207.566 172.966 207.262 173.684C206.957 174.402 206.382 174.971 205.662 175.27C204.941 175.569 204.132 175.572 203.409 175.28C167.802 160.171 147.93 142.859 133.42 130.22C123.022 121.165 116.153 115.181 109.096 115.03C101.6 114.858 95.9129 117.463 93.0576 122.332C88.4939 130.115 91.1312 143.156 100.478 159.046C111.845 178.369 129.741 191.435 153.673 197.881C171.701 202.734 186.563 201.794 186.711 201.785C187.498 201.73 188.274 201.991 188.869 202.509C189.464 203.027 189.829 203.76 189.883 204.547C189.938 205.334 189.677 206.11 189.159 206.705C188.641 207.3 187.908 207.664 187.121 207.719C186.945 207.729 185.537 207.822 183.154 207.822Z" fill="#0E192F"/>
<path d="M308.815 282.012C297.272 295.232 274.074 298.577 268.123 307.514C262.905 315.355 264.773 325.348 265.278 335.82C265.707 344.784 264.173 356.514 256.64 366.678C245.234 382.052 223.587 383.654 211.857 373.876C198.464 362.716 215.103 334.628 217.523 331.167C217.523 331.167 213.864 326.675 210.461 322.632C207.985 319.683 206.246 315.492 205.336 310.719C178.189 309.22 156.524 331.055 142.151 334.946C126.196 339.264 108.877 327.824 97.2647 305.493C87.7184 287.121 94.6686 270.887 108.808 269.182C119.614 267.89 138.278 282.628 138.278 282.628C138.278 282.628 146.761 245.626 178.97 249.961C178.97 249.961 182.483 231.708 182.09 204.834C182.03 200.636 181.875 196.213 181.592 191.629C180.943 180.729 179.623 169.88 177.639 159.142C177.399 157.908 177.16 156.673 176.911 155.432L278.519 148.516C280.31 150.538 282.027 152.578 283.67 154.635C285.238 156.589 286.747 158.551 288.195 160.521C295.041 169.825 300.894 179.82 305.66 190.343C323.258 229.275 321.749 267.177 308.815 282.012Z" fill="white"/>
<path d="M222.925 315.039C187.499 299.382 159.502 330.249 142.149 334.945C126.193 339.264 108.874 327.823 97.2625 305.493C93.6981 298.637 92.4379 292.08 92.9856 286.458C93.9024 277.032 99.9444 270.254 108.806 269.182C119.612 267.889 138.276 282.628 138.276 282.628C138.276 282.628 146.759 245.625 178.968 249.961C178.968 249.961 187.288 206.736 176.907 155.432L209.873 269.766L222.925 315.039Z" fill="white"/>
<g opacity="0.25">
<path d="M222.925 315.039C187.499 299.382 159.502 330.25 142.149 334.946C126.193 339.264 108.874 327.824 97.2625 305.493C93.6981 298.637 92.4379 292.08 92.9856 286.459C108.471 312.811 159.975 290.693 171.14 281.464C181.535 272.867 210.615 264.257 230.856 264.825L222.925 315.039Z" fill="#0E192F"/>
</g>
<path d="M178.742 318.263C178.634 318.263 178.525 318.256 178.418 318.241C178.127 318.199 177.848 318.1 177.596 317.95C177.344 317.8 177.124 317.602 176.949 317.367C176.774 317.132 176.646 316.865 176.574 316.58C176.502 316.296 176.487 316 176.529 315.71C182.25 276.543 151.23 260.568 150.915 260.412C150.396 260.142 150.003 259.678 149.822 259.121C149.641 258.564 149.686 257.958 149.948 257.434C150.209 256.91 150.666 256.51 151.22 256.32C151.774 256.13 152.381 256.165 152.909 256.418C153.262 256.59 161.643 260.844 169.32 270.367C176.404 279.154 184.171 294.267 180.943 316.356C180.866 316.885 180.601 317.368 180.197 317.718C179.793 318.068 179.277 318.262 178.742 318.263Z" fill="#0E192F"/>
<path d="M135.294 338.837C120.268 338.837 105.209 327.215 94.6238 306.862C89.0454 296.133 88.3431 285.253 92.6956 277.01C95.9253 270.892 101.519 267.065 108.447 266.232C117.561 265.132 130.459 273.306 136.679 277.736C140.113 268.002 150.976 245.031 176.492 246.731C178.048 236.589 182.687 198.96 173.989 156.031C173.832 155.256 173.989 154.452 174.426 153.794C174.863 153.135 175.543 152.678 176.317 152.521C177.091 152.364 177.896 152.522 178.554 152.958C179.212 153.395 179.67 154.075 179.826 154.849C190.216 206.135 181.981 250.094 181.897 250.532L181.365 253.291L178.58 252.917C149.481 249.001 141.511 281.899 141.186 283.307L140.127 287.876L136.444 284.975C131.516 281.087 116.989 271.229 109.165 272.151C104.232 272.743 100.254 275.459 97.9633 279.798C94.5294 286.29 95.2453 295.16 99.9103 304.129C110.928 325.318 126.819 336.028 141.375 332.088C145.856 330.874 151.333 327.624 157.686 323.867C174.382 313.986 197.243 300.455 224.133 312.333C224.49 312.49 224.813 312.717 225.082 313C225.352 313.282 225.563 313.615 225.704 313.979C225.845 314.344 225.913 314.732 225.904 315.122C225.895 315.513 225.809 315.898 225.651 316.255C225.493 316.612 225.267 316.935 224.984 317.205C224.702 317.474 224.369 317.686 224.005 317.827C223.64 317.968 223.252 318.036 222.862 318.027C222.471 318.017 222.086 317.932 221.729 317.774C197.642 307.129 177.169 319.249 160.72 328.987C153.995 332.967 148.186 336.404 142.925 337.83C140.437 338.502 137.871 338.841 135.294 338.837Z" fill="#0E192F"/>
<path d="M77.4724 315.726L43.3048 323.176C15.6617 329.206 -1.86849 356.506 4.15806 384.154C10.1863 411.797 37.4878 429.327 65.1343 423.301L99.3019 415.851L77.4724 315.726Z" fill="#14213D"/>
<g opacity="0.6">
<path d="M99.3019 413.84L98.428 414.027L79.6942 328.119L45.5266 335.565C21.3603 340.835 4.92382 362.35 5.19853 386.142C4.79504 384.832 4.45337 383.503 4.1529 382.141C-1.87192 354.498 15.6566 327.198 43.2997 321.168L77.4759 313.713L99.3019 413.84Z" fill="white"/>
</g>
<g opacity="0.3">
<path d="M6.35107 375.347C6.46611 375.993 6.59144 376.638 6.73224 377.286C8.16454 383.861 10.8782 390.089 14.7181 395.615C18.558 401.141 23.4489 405.856 29.1115 409.491C34.7742 413.127 41.0975 415.611 47.7204 416.802C54.3432 417.993 61.1359 417.867 67.7102 416.432L97.9906 409.831L93.3222 388.42L59.1546 395.872C38.4137 400.394 17.865 391.662 6.35107 375.349V375.347Z" fill="#0E192F"/>
</g>
<path d="M54.1098 427.466C41.7568 427.432 29.7851 423.184 20.1739 415.424C10.5626 407.663 3.88724 396.856 1.25132 384.787C-5.11861 355.581 13.4607 326.639 42.6679 320.27L76.8355 312.819C77.2172 312.735 77.6116 312.727 77.9963 312.796C78.3809 312.865 78.7482 313.009 79.0771 313.22C79.406 313.431 79.69 313.705 79.9128 314.026C80.1357 314.347 80.2931 314.708 80.3759 315.09L102.211 415.213C102.378 415.984 102.234 416.79 101.808 417.454C101.382 418.118 100.71 418.585 99.939 418.754L65.7714 426.205C61.9405 427.042 58.0309 427.464 54.1098 427.466ZM75.1992 319.264L43.9351 326.082C17.9334 331.748 1.39384 357.518 7.06153 383.52C8.41182 389.712 10.9686 395.578 14.5859 400.783C18.2032 405.987 22.8102 410.428 28.1438 413.852C33.4774 417.276 39.4331 419.615 45.671 420.738C51.9089 421.86 58.3067 421.742 64.4991 420.392L95.7651 413.574L75.1992 319.264Z" fill="#0E192F"/>
<path d="M376.482 250.473L86.3257 313.738L108.168 413.918L398.325 350.653L376.482 250.473Z" fill="#803EF9"/>
<g opacity="0.5">
<path d="M378.58 260.496L398.332 350.676L400.481 350.209L378.58 250.213L87.6694 313.368L89.8191 323.186L378.58 260.496Z" fill="white"/>
</g>
<g opacity="0.3">
<path d="M391.688 320.145L101.53 383.417L107.173 409.295L106.632 406.819L395.76 343.77L390.658 320.37L391.688 320.145L398.336 350.638L108.179 413.91L398.336 350.638L391.688 320.145Z" fill="#0E192F"/>
</g>
<path d="M108.181 416.884C107.503 416.884 106.845 416.652 106.316 416.226C105.788 415.8 105.421 415.207 105.276 414.544L83.4313 314.364C83.2633 313.593 83.4082 312.788 83.8342 312.124C84.2601 311.46 84.9323 310.992 85.7028 310.824L375.858 247.554C376.374 247.44 376.911 247.467 377.413 247.631L377.525 247.669C378.047 247.838 378.512 248.149 378.869 248.567C379.225 248.985 379.459 249.494 379.543 250.036C379.628 250.579 379.561 251.135 379.349 251.641C379.138 252.148 378.79 252.586 378.344 252.907C376.48 254.253 374.931 255.989 373.805 257.994C372.68 259.999 372.004 262.225 371.825 264.517C371.646 266.809 371.968 269.113 372.769 271.269C373.57 273.424 374.831 275.379 376.464 276.998C377.097 277.622 377.595 278.368 377.929 279.192C378.263 280.015 378.425 280.898 378.406 281.786C378.384 282.662 378.182 283.525 377.811 284.319C377.44 285.113 376.909 285.821 376.251 286.4C373.783 288.59 371.943 291.399 370.921 294.536C369.899 297.674 369.731 301.027 370.435 304.25C371.138 307.474 372.688 310.452 374.925 312.879C377.161 315.305 380.004 317.091 383.16 318.054C383.999 318.306 384.777 318.729 385.444 319.297C386.112 319.864 386.654 320.564 387.037 321.352C387.425 322.152 387.645 323.022 387.684 323.91C387.723 324.798 387.581 325.684 387.265 326.515C386.454 328.668 386.121 330.971 386.289 333.265C386.457 335.559 387.123 337.789 388.239 339.8C389.355 341.811 390.896 343.555 392.754 344.911C394.612 346.267 396.743 347.203 398.999 347.653C399.553 347.764 400.065 348.03 400.473 348.421C400.881 348.812 401.169 349.312 401.304 349.861C401.439 350.41 401.414 350.986 401.233 351.521C401.052 352.057 400.722 352.53 400.282 352.884L400.268 352.896C399.89 353.21 399.445 353.432 398.968 353.545L108.813 416.815C108.606 416.861 108.394 416.884 108.181 416.884ZM89.8768 316.002L110.455 410.37L389.104 349.608C385.298 346.783 382.517 342.795 381.182 338.247C379.847 333.699 380.031 328.841 381.706 324.407C381.736 324.338 381.752 324.264 381.752 324.189C381.752 324.114 381.736 324.039 381.706 323.971C381.678 323.915 381.639 323.865 381.591 323.826C381.542 323.786 381.486 323.757 381.426 323.741C377.261 322.467 373.511 320.108 370.56 316.904C367.61 313.701 365.565 309.77 364.637 305.515C363.71 301.26 363.932 296.835 365.281 292.694C366.63 288.553 369.058 284.846 372.314 281.955C372.362 281.916 372.401 281.866 372.428 281.811C372.456 281.755 372.471 281.694 372.472 281.632C372.473 281.557 372.459 281.483 372.429 281.414C372.399 281.346 372.355 281.284 372.3 281.234C368.931 277.899 366.741 273.558 366.062 268.867C365.384 264.176 366.253 259.391 368.538 255.239L89.8768 316.002Z" fill="#0E192F"/>
<path d="M464.029 291.846L449.874 304.519L420.871 330.474L398.422 350.563C395.743 350.028 393.212 348.917 391.005 347.306C388.799 345.695 386.969 343.623 385.644 341.234C384.318 338.845 383.529 336.197 383.33 333.472C383.131 330.747 383.528 328.012 384.492 325.456C384.728 324.852 384.791 324.195 384.674 323.558C384.557 322.921 384.264 322.33 383.829 321.85C383.415 321.396 382.885 321.063 382.296 320.885C378.636 319.767 375.34 317.695 372.746 314.88C370.153 312.066 368.356 308.612 367.541 304.873C366.726 301.134 366.921 297.245 368.107 293.606C369.293 289.968 371.427 286.711 374.29 284.171C374.646 283.855 374.932 283.469 375.131 283.036C375.33 282.604 375.438 282.135 375.447 281.66C375.456 281.184 375.366 280.711 375.184 280.272C375.001 279.832 374.729 279.436 374.386 279.106C372.444 277.184 370.945 274.862 369.992 272.301C369.039 269.74 368.655 267.003 368.868 264.279C369.08 261.555 369.884 258.91 371.222 256.528C372.561 254.146 374.402 252.084 376.618 250.486L405.384 259.404L442.553 270.937L460.708 276.565C461.893 276.922 462.99 277.524 463.928 278.331C464.865 279.139 465.623 280.135 466.151 281.254C467.746 284.659 467.215 288.984 464.029 291.846Z" fill="#FFD185"/>
<g opacity="0.7">
<path d="M465.434 290.253C465.424 290.217 465.409 290.183 465.391 290.15C464.864 289.031 464.106 288.035 463.169 287.227C462.231 286.42 461.134 285.819 459.949 285.463L441.799 279.833L404.621 268.307L375.853 259.378C372.667 261.68 370.281 264.923 369.032 268.65C368.493 265.221 368.915 261.71 370.251 258.506C371.586 255.302 373.784 252.531 376.599 250.5L405.366 259.413L442.534 270.947L460.692 276.577C461.877 276.934 462.973 277.536 463.91 278.343C464.848 279.151 465.605 280.146 466.133 281.265C466.82 282.691 467.117 284.274 466.994 285.853C466.871 287.431 466.333 288.949 465.434 290.253Z" fill="white"/>
</g>
<g opacity="0.3">
<path d="M386.437 342.557C388.502 343.952 390.823 344.924 393.266 345.418L415.715 325.329L446.515 300.006L458.878 286.696C459.68 285.98 460.347 285.126 460.849 284.175L461.063 284.059L408.509 312.962C401.485 316.826 393.94 319.656 386.107 321.363L383.829 321.861C384.264 322.341 384.557 322.932 384.674 323.569C384.791 324.206 384.728 324.863 384.492 325.467C383.334 328.532 382.997 331.847 383.515 335.082C384.033 338.318 385.388 341.362 387.445 343.912C387.09 343.472 386.75 343.026 386.437 342.557Z" fill="#0E192F"/>
</g>
<path d="M464.029 291.847L449.874 304.52C445.966 300.914 442.817 295.368 441.38 288.778C439.943 282.189 440.5 275.85 442.544 270.948L460.7 276.576C467.363 278.638 469.226 287.187 464.029 291.847Z" fill="#0E192F"/>
<path d="M398.416 353.543C398.22 353.543 398.025 353.524 397.834 353.485C394.731 352.865 391.801 351.577 389.246 349.711C386.691 347.845 384.573 345.446 383.038 342.679C381.504 339.912 380.589 336.845 380.359 333.69C380.129 330.534 380.588 327.367 381.705 324.406C381.735 324.338 381.75 324.263 381.75 324.188C381.75 324.113 381.735 324.039 381.705 323.97C381.677 323.914 381.638 323.865 381.589 323.825C381.541 323.786 381.485 323.757 381.425 323.74C377.26 322.467 373.51 320.107 370.559 316.904C367.608 313.701 365.564 309.77 364.636 305.515C363.708 301.26 363.93 296.834 365.28 292.694C366.629 288.553 369.056 284.846 372.313 281.954C372.361 281.915 372.4 281.866 372.427 281.81C372.455 281.755 372.469 281.694 372.471 281.632C372.472 281.557 372.457 281.483 372.428 281.414C372.398 281.345 372.354 281.284 372.299 281.233C370.05 279.007 368.312 276.318 367.208 273.353C366.103 270.387 365.658 267.217 365.903 264.062C366.148 260.907 367.078 257.843 368.627 255.084C370.177 252.324 372.308 249.936 374.874 248.084C375.249 247.815 375.68 247.636 376.135 247.561C376.59 247.487 377.056 247.519 377.496 247.655L461.574 273.735C463.595 274.361 465.414 275.512 466.844 277.071C468.274 278.629 469.266 280.54 469.717 282.607C470.167 284.673 470.061 286.823 469.41 288.836C468.758 290.848 467.584 292.652 466.007 294.062L400.401 352.783C399.855 353.272 399.148 353.543 398.416 353.543ZM377.218 253.8C375.575 255.229 374.244 256.983 373.309 258.95C372.374 260.918 371.854 263.057 371.783 265.234C371.713 267.411 372.091 269.58 372.897 271.604C373.702 273.628 374.916 275.464 376.463 276.998C377.095 277.621 377.594 278.368 377.928 279.191C378.262 280.015 378.424 280.898 378.404 281.786C378.383 282.662 378.18 283.524 377.81 284.318C377.439 285.112 376.908 285.821 376.25 286.4C373.782 288.59 371.942 291.399 370.92 294.536C369.898 297.673 369.73 301.026 370.433 304.25C371.137 307.474 372.687 310.452 374.924 312.878C377.16 315.304 380.003 317.091 383.159 318.054C383.998 318.305 384.776 318.729 385.443 319.296C386.11 319.864 386.653 320.564 387.036 321.352C387.423 322.152 387.644 323.022 387.683 323.91C387.722 324.798 387.58 325.684 387.264 326.515C386.496 328.554 386.156 330.729 386.266 332.905C386.375 335.081 386.933 337.211 387.903 339.162C388.873 341.113 390.234 342.843 391.903 344.244C393.571 345.645 395.511 346.688 397.6 347.306L462.038 289.629C462.83 288.92 463.419 288.013 463.746 287.001C464.073 285.99 464.125 284.91 463.899 283.871C463.672 282.832 463.173 281.872 462.454 281.089C461.735 280.306 460.821 279.728 459.806 279.413L377.218 253.8Z" fill="#0E192F"/>
<path d="M101.345 423.532C90.3943 425.92 79.8608 420.632 77.6167 411.613C74.7734 400.197 70.9583 384.464 67.8557 370.234C64.7532 356.004 61.6747 340.11 59.5027 328.546C57.7857 319.412 65.1687 310.218 76.1161 307.829C87.448 305.359 98.2443 311.103 100.021 320.555C102.181 332.044 105.191 347.529 108.222 361.431C111.252 375.333 114.969 390.661 117.783 402.008C120.103 411.343 112.679 421.066 101.345 423.532Z" fill="#FCA311"/>
<g opacity="0.6">
<path d="M100.922 325.303C97.4003 320.436 91.0578 317.453 83.9805 317.453C82.1191 317.453 80.2632 317.654 78.445 318.052C68.7098 320.178 61.6651 327.42 60.8084 335.406C60.3448 332.99 59.9087 330.693 59.5052 328.538C57.7882 319.402 65.1609 310.216 76.1134 307.824C77.848 307.447 79.6178 307.255 81.393 307.251C90.6217 307.251 98.5318 312.589 100.022 320.551C100.305 322.072 100.604 323.658 100.922 325.303Z" fill="white"/>
</g>
<g opacity="0.3">
<path d="M67.1724 366.083C67.2187 366.282 67.2651 366.479 67.3131 366.678C67.2651 366.479 67.2187 366.28 67.1724 366.083Z" fill="#0E192F"/>
</g>
<g opacity="0.3">
<path d="M65.8184 360.337L65.9471 360.881L65.8184 360.337Z" fill="#0E192F"/>
</g>
<g opacity="0.3">
<path d="M68.5242 371.738C68.5654 371.91 68.6066 372.082 68.6495 372.253C68.6117 372.083 68.5654 371.912 68.5242 371.738Z" fill="#0E192F"/>
</g>
<g opacity="0.3">
<path d="M115.988 394.729C114.945 390.464 113.838 385.874 112.725 381.165C113.838 385.874 114.945 390.464 115.988 394.729Z" fill="#0E192F"/>
</g>
<g opacity="0.3">
<path d="M77.6183 411.608C77.5565 411.361 77.493 411.103 77.4294 410.851C77.493 411.101 77.5565 411.366 77.6183 411.608C78.3158 414.356 79.7842 416.847 81.8506 418.788C79.7842 416.847 78.3158 414.356 77.6183 411.608Z" fill="#0E192F"/>
</g>
<g opacity="0.3">
<path d="M69.8655 377.269C69.8861 377.348 69.905 377.427 69.9238 377.508C69.905 377.43 69.8861 377.351 69.8655 377.269Z" fill="#0E192F"/>
</g>
<g opacity="0.3">
<path d="M75.9825 404.999C78.3571 413.859 88.7842 419.028 99.6303 416.664C110.962 414.193 118.392 404.474 116.067 395.144C115.037 391.006 113.891 386.334 112.705 381.398C112.705 381.379 112.705 381.358 112.705 381.339C112.216 389.153 105.437 396.406 95.8787 398.488C84.9262 400.877 74.3892 395.588 72.1502 386.568C71.6351 384.507 71.0857 382.287 70.5174 379.971C70.4916 379.878 70.4556 379.799 70.4333 379.7C69.1026 374.377 67.5642 368.093 65.9829 361.471C65.7208 360.212 65.4587 358.952 65.1965 357.693C66.0739 361.914 66.9598 366.141 67.851 370.227C70.4041 381.933 73.4328 394.651 76.0117 405.149L75.9825 404.999Z" fill="#0E192F"/>
</g>
<g opacity="0.3">
<path d="M92.0481 423.738C95.1317 424.274 98.2903 424.204 101.347 423.532C103.734 423.018 106.031 422.15 108.162 420.956C106.031 422.15 103.734 423.018 101.347 423.532C98.2903 424.204 95.1317 424.274 92.0481 423.738Z" fill="#0E192F"/>
</g>
<g opacity="0.3">
<path d="M88.4184 422.776C87.6669 422.51 86.9314 422.2 86.2156 421.849C86.9314 422.2 87.6669 422.51 88.4184 422.776Z" fill="#0E192F"/>
</g>
<g opacity="0.3">
<path d="M109.851 419.897C109.309 420.268 108.746 420.619 108.162 420.95C108.746 420.62 109.309 420.269 109.851 419.897Z" fill="#0E192F"/>
</g>
<g opacity="0.3">
<path d="M76.6624 407.759C76.5869 407.453 76.5113 407.149 76.4358 406.84C76.5096 407.144 76.5869 407.453 76.6624 407.759Z" fill="#0E192F"/>
</g>
<g opacity="0.3">
<path d="M111.41 418.725C110.914 419.135 110.392 419.526 109.851 419.897C110.392 419.526 110.914 419.135 111.41 418.725Z" fill="#0E192F"/>
</g>
<g opacity="0.3">
<path d="M77.1655 409.792C77.0934 409.5 77.0213 409.204 76.9475 408.909C77.0248 409.204 77.0934 409.5 77.1655 409.792Z" fill="#0E192F"/>
</g>
<g opacity="0.3">
<path d="M81.9092 418.853C82.5191 419.42 83.1693 419.942 83.8545 420.415C83.1693 419.942 82.5191 419.42 81.9092 418.853Z" fill="#0E192F"/>
</g>
<g opacity="0.25">
<path d="M99.9379 320.132C99.9688 320.274 99.9894 320.41 100.02 320.552C101.545 328.667 103.492 338.752 105.576 348.882C104.599 344.682 103.653 340.469 102.762 336.383C101.354 329.927 99.9534 323.138 98.6416 316.564C99.2331 317.689 99.6691 318.889 99.9379 320.132Z" fill="#0E192F"/>
</g>
<g opacity="0.25">
<path d="M112.321 376.96C112.664 378.332 112.802 379.747 112.73 381.159C111.184 374.635 109.639 367.88 108.224 361.426C107.331 357.331 106.435 353.106 105.577 348.882C107.896 358.962 110.334 368.957 112.321 376.96Z" fill="#0E192F"/>
</g>
<path d="M95.9953 426.691C85.9373 426.691 77.301 421.008 75.117 412.236C72.399 401.316 68.4964 385.262 65.3303 370.781C62.1642 356.301 59.0342 340.068 56.9635 329.018C54.977 318.433 63.1446 308.02 75.5582 305.312C82.3729 303.825 89.318 304.984 94.6165 308.493C98.854 311.301 101.67 315.414 102.545 320.078C104.573 330.867 107.64 346.704 110.732 360.88C113.824 375.055 117.627 390.727 120.277 401.386C121.42 405.991 120.574 410.903 117.89 415.222C114.535 420.615 108.703 424.562 101.888 426.038C99.9528 426.467 97.9772 426.686 95.9953 426.691ZM81.4062 309.827C79.8116 309.829 78.2217 310.001 76.664 310.343C67.152 312.417 60.5897 320.368 62.0337 328.067C64.0941 339.083 67.2224 355.245 70.3713 369.681C73.5202 384.117 77.4108 400.104 80.1151 410.989C82.0037 418.59 91.2753 423.087 100.798 421.015C106.261 419.813 110.898 416.722 113.522 412.498C115.493 409.331 116.097 405.917 115.285 402.628C112.627 391.936 108.809 376.202 105.706 361.975C102.604 347.748 99.5253 331.851 97.4907 321.027C96.864 317.696 94.8895 314.846 91.7784 312.786C88.8407 310.842 85.2144 309.827 81.4062 309.827Z" fill="#0E192F"/>
<path d="M333.964 151.608C347.645 161.863 360.182 210.687 357.013 239.791C353.843 268.895 302.398 271.076 272.976 270.13C243.554 269.184 243.657 202.653 244.042 184.841C244.645 157.016 313.69 136.414 333.964 151.608Z" fill="white"/>
<g opacity="0.25">
<path d="M272.977 270.131C302.399 271.075 353.846 268.893 357.017 239.788C357.436 235.698 357.591 231.585 357.483 227.474C349.358 233.861 338.036 228.177 336.671 220.366C328.243 172.149 310.287 153.645 301.6 147.311C275.132 151.021 244.441 166.33 244.046 184.844C243.655 202.664 243.555 269.188 272.977 270.131Z" fill="#0E192F"/>
</g>
<path d="M283.242 273.275C279.748 273.275 276.285 273.214 272.882 273.104C243.56 272.163 240.364 217.361 241.068 184.776C241.31 173.565 250.937 162.77 268.174 154.386C289.88 143.818 321.886 138.844 335.749 149.235C351.395 160.962 363.033 211.999 359.972 240.121C357.049 266.945 318.727 273.275 283.242 273.275ZM313.086 149.398C300.427 149.398 284.599 153.004 270.779 159.731C255.865 166.989 247.205 176.166 247.016 184.907C246.602 203.994 247.261 266.33 273.073 267.16C302.089 268.09 351.194 265.731 354.057 239.47C357.111 211.412 344.843 163.479 332.181 153.989C328.045 150.887 321.216 149.398 313.086 149.398Z" fill="#0E192F"/>
<path d="M331.076 200.442L344.124 195.236C344.82 194.958 345.567 194.831 346.315 194.863C347.064 194.896 347.796 195.088 348.465 195.425C349.134 195.763 349.723 196.239 350.194 196.822C350.664 197.404 351.006 198.081 351.195 198.805C353.942 209.387 358.162 231.319 347.515 235.809C334.611 241.25 330.037 226.366 327.77 205.914C327.647 204.765 327.903 203.608 328.5 202.62C329.097 201.632 330.002 200.866 331.076 200.442Z" fill="white"/>
<g opacity="0.25">
<path d="M327.805 205.881C330.023 226.337 334.565 241.237 347.48 235.822C352.785 233.605 354.415 227.046 354.373 219.722C353.297 221.818 351.753 223.442 349.595 224.344C338.031 229.186 333.174 217.751 330.708 200.612C329.74 201.084 328.942 201.843 328.422 202.786C327.902 203.73 327.687 204.811 327.805 205.881Z" fill="#0E192F"/>
</g>
<path d="M342.501 239.92C340.475 239.933 338.484 239.393 336.742 238.357C330.446 234.644 326.887 225.027 324.842 206.204C324.654 204.409 325.057 202.601 325.991 201.057C326.926 199.513 328.34 198.317 330.017 197.652L343.085 192.477C344.174 192.045 345.342 191.849 346.512 191.903C347.681 191.958 348.827 192.26 349.871 192.791C350.915 193.321 351.834 194.068 352.567 194.981C353.3 195.895 353.831 196.954 354.123 198.088C358.162 213.812 360.486 233.598 348.629 238.565C346.471 239.47 344.424 239.92 342.501 239.92ZM346.127 197.846C345.833 197.847 345.541 197.906 345.269 198.017L332.199 203.194C331.731 203.377 331.336 203.709 331.074 204.139C330.812 204.568 330.699 205.072 330.75 205.572C331.391 211.48 333.345 229.46 339.757 233.242C341.49 234.273 343.638 234.214 346.321 233.09C353.404 230.123 352.015 213.832 348.354 199.578C348.274 199.263 348.128 198.968 347.924 198.714C347.721 198.46 347.465 198.253 347.175 198.107C346.851 197.939 346.492 197.85 346.127 197.846Z" fill="#0E192F"/>
<path d="M338.102 157.354C334.914 158.314 331.701 159.329 328.518 160.371C325.335 161.413 322.165 162.5 319.029 163.664C318.675 163.798 318.284 163.793 317.934 163.65C317.584 163.506 317.302 163.235 317.144 162.891C316.987 162.547 316.966 162.156 317.086 161.798C317.206 161.439 317.458 161.14 317.791 160.96C320.775 159.32 323.791 157.765 326.824 156.245C329.856 154.726 332.896 153.247 335.987 151.795C336.342 151.621 336.728 151.519 337.123 151.496C337.518 151.473 337.913 151.529 338.287 151.66C338.66 151.791 339.003 151.995 339.296 152.26C339.59 152.525 339.828 152.846 339.996 153.204C340.165 153.562 340.26 153.949 340.277 154.344C340.294 154.739 340.233 155.134 340.096 155.505C339.959 155.876 339.75 156.216 339.481 156.506C339.211 156.795 338.887 157.028 338.526 157.191C338.399 157.251 338.268 157.303 338.133 157.344L338.102 157.354Z" fill="#0E192F"/>
<path d="M181.032 178.929L176.911 155.429C178.833 163.156 180.21 171.009 181.032 178.929Z" fill="white"/>
<path d="M207.116 218.778C193.882 214.756 239.474 260.697 226.921 266.437C222.574 268.425 218.371 271.044 214.903 274.49C202.197 287.087 201.843 312.381 210.469 322.635C213.869 326.677 217.526 331.165 217.526 331.165C215.11 334.628 198.468 362.714 211.86 373.879C223.589 383.656 245.236 382.052 256.642 366.668C264.18 356.504 265.709 344.779 265.282 335.816C264.78 325.343 262.906 315.346 268.127 307.503C274.076 298.575 297.271 295.23 308.819 282.005C326.466 261.784 322.862 198.641 278.525 148.506" fill="white"/>
<path d="M267.078 264.049C253.843 260.028 239.474 260.697 226.921 266.437C222.574 268.425 218.371 271.044 214.903 274.49C202.197 287.087 201.843 312.381 210.469 322.635C213.869 326.677 217.526 331.165 217.526 331.165C215.11 334.628 198.468 362.714 211.86 373.879C223.589 383.656 245.236 382.052 256.642 366.668C264.18 356.504 265.709 344.779 265.282 335.816C264.78 325.343 262.906 315.346 268.127 307.503C274.076 298.575 297.271 295.23 308.819 282.005C326.466 261.784 322.862 198.641 278.525 148.506L267.078 264.049Z" fill="white"/>
<g opacity="0.25">
<path d="M308.815 282.011C297.272 295.232 274.074 298.576 268.123 307.513C262.905 315.354 264.773 325.347 265.278 335.819C265.707 344.783 264.172 356.514 256.64 366.678C245.234 382.052 223.586 383.654 211.856 373.876C209.84 372.202 208.354 369.978 207.579 367.475C220.69 374.502 242.243 375.701 252.201 362.264C259.734 352.101 256.264 338.947 255.834 329.985C255.319 319.511 251.508 304.484 258.82 295.953C270.523 282.299 287.825 289.399 299.368 276.168C315.744 257.41 313.825 201.666 278.012 153.668L278.517 148.517C322.846 198.647 326.453 261.787 308.815 282.011Z" fill="#0E192F"/>
</g>
<path d="M266.788 264.996C264.333 264.716 261.931 264.424 259.53 264.264C257.127 264.142 254.749 264.026 252.378 264.106C250.006 264.187 247.654 264.319 245.326 264.621C243 264.886 240.693 265.299 238.419 265.856C237.277 266.11 236.166 266.467 235.041 266.769C233.939 267.149 232.821 267.475 231.745 267.92C229.565 268.727 227.443 269.682 225.392 270.777C223.371 271.846 221.446 273.086 219.635 274.482C218.747 275.172 217.896 275.909 217.085 276.69C216.706 277.088 216.314 277.471 215.944 277.878C215.573 278.285 215.209 278.702 214.872 279.145C212.117 282.636 210.192 286.872 208.986 291.325C207.81 295.816 207.351 300.464 207.627 305.097C207.896 309.692 208.904 314.297 210.956 318.093C211.459 319.008 212.043 319.876 212.7 320.687L215.066 323.551L219.815 329.291L221.228 330.999L219.949 332.872C219.527 333.491 219.05 334.27 218.608 335.015C218.167 335.76 217.726 336.543 217.305 337.323C216.459 338.882 215.659 340.472 214.912 342.079C213.411 345.262 212.159 348.557 211.167 351.934C210.226 355.269 209.594 358.672 209.678 361.906C209.726 365.146 210.599 368.13 212.453 370.285L212.796 370.695C212.917 370.828 213.059 370.941 213.188 371.066C213.468 371.307 213.669 371.569 214.026 371.799C214.685 372.26 215.303 372.775 215.987 373.206C216.697 373.595 217.389 374.018 218.107 374.397L220.361 375.366C223.494 376.485 226.801 377.037 230.127 376.997C233.48 376.969 236.807 376.403 239.981 375.323C243.168 374.274 246.106 372.576 248.738 370.525C254.019 366.475 257.724 360.378 259.956 353.921C261.043 350.642 261.761 347.252 262.097 343.815C262.275 342.085 262.363 340.347 262.36 338.609C262.369 337.738 262.334 336.868 262.305 335.997L262.149 333.297C261.92 329.677 261.579 325.967 261.567 322.104C261.549 320.129 261.67 318.156 261.929 316.199C262.185 314.148 262.689 312.135 263.43 310.205C263.605 309.707 263.811 309.22 264.048 308.747C264.288 308.273 264.487 307.781 264.767 307.327L265.59 305.954C265.913 305.473 266.262 305.01 266.635 304.567C268.131 302.836 269.815 301.56 271.496 300.465C274.875 298.31 278.309 296.763 281.678 295.221C288.403 292.186 295.032 289.327 300.667 285.304C303.452 283.3 306.005 280.998 307.894 278.369C309.824 275.704 311.28 272.581 312.391 269.316C313.486 265.998 314.3 262.595 314.824 259.141C315.319 255.628 315.609 252.09 315.692 248.544C315.823 241.417 315.177 234.247 313.999 227.164C311.537 213.001 306.84 199.205 300.42 186.3C297.214 179.827 293.272 173.767 289.378 167.713C285.458 161.65 281.369 155.738 277.77 149.181C277.659 148.979 277.621 148.745 277.661 148.518C277.701 148.29 277.817 148.084 277.991 147.932C278.164 147.779 278.384 147.691 278.614 147.68C278.845 147.67 279.072 147.739 279.258 147.875C285.369 152.351 290.298 158.079 294.603 164.186C298.935 170.303 302.422 176.962 305.763 183.649C312.408 197.042 317.301 211.359 319.871 226.167C321.109 233.575 321.788 241.104 321.647 248.674C321.559 252.475 321.248 256.268 320.715 260.032C320.137 263.844 319.236 267.6 318.022 271.259C316.767 274.937 315.103 278.563 312.724 281.863C310.306 285.211 307.305 287.873 304.139 290.153C297.769 294.682 290.776 297.64 284.14 300.65C280.829 302.158 277.55 303.667 274.731 305.473C273.335 306.375 272.083 307.372 271.177 308.428C270.958 308.687 270.752 308.957 270.562 309.237L269.966 310.231C269.758 310.557 269.623 310.926 269.451 311.27C269.273 311.617 269.12 311.977 268.994 312.346C267.842 315.265 267.532 318.63 267.526 322.105C267.521 325.58 267.859 329.21 268.096 332.922L268.26 335.723C268.292 336.688 268.33 337.654 268.321 338.621C268.325 340.557 268.227 342.492 268.028 344.417C267.647 348.299 266.834 352.127 265.603 355.828C264.338 359.552 262.614 363.105 260.471 366.403C259.896 367.205 259.378 368.032 258.754 368.807L256.84 371.12C256.184 371.875 255.425 372.539 254.72 373.249C254.014 373.958 253.226 374.583 252.438 375.202C249.287 377.668 245.755 379.689 241.954 380.949C238.163 382.243 234.189 382.919 230.184 382.951C226.145 382.996 222.13 382.318 218.328 380.951L215.518 379.749C214.611 379.277 213.727 378.75 212.836 378.245C211.967 377.695 211.157 377.043 210.321 376.44C209.905 376.166 209.495 375.726 209.088 375.36C208.887 375.166 208.676 374.983 208.487 374.777L207.939 374.135C206.503 372.425 205.418 370.449 204.747 368.319C204.061 366.238 203.817 364.121 203.762 362.066C203.666 357.945 204.43 354.039 205.479 350.313C206.557 346.636 207.918 343.048 209.55 339.581C210.351 337.864 211.205 336.168 212.111 334.493C212.561 333.657 213.033 332.83 213.518 332.004C214.002 331.178 214.491 330.378 215.104 329.478L215.236 333.06L210.527 327.366L208.168 324.513C207.261 323.404 206.457 322.216 205.764 320.964C203.114 316.02 202.041 310.706 201.712 305.459C201.404 300.198 201.926 294.921 203.257 289.821C204.574 284.72 206.753 279.744 210.053 275.399C213.401 270.981 217.752 267.695 222.37 265.154C224.68 263.905 227.081 262.831 229.552 261.943C232.012 261.044 234.538 260.338 237.107 259.831C247.316 257.712 258.191 258.708 267.389 263.119C267.603 263.221 267.773 263.396 267.87 263.612C267.967 263.828 267.985 264.072 267.919 264.299C267.854 264.527 267.71 264.724 267.514 264.856C267.317 264.988 267.08 265.046 266.845 265.02L266.788 264.996Z" fill="#0E192F"/>
<path d="M265 317.951C264.681 317.951 264.367 317.883 264.077 317.752C263.787 317.62 263.529 317.428 263.319 317.189C263.109 316.949 262.953 316.668 262.862 316.363C262.77 316.058 262.744 315.737 262.787 315.422C265.997 291.671 252.102 280.545 245.977 276.864C236.213 270.992 224.224 270.254 217.476 275.103C216.994 275.423 216.407 275.544 215.838 275.44C215.27 275.336 214.763 275.016 214.426 274.546C214.089 274.076 213.947 273.493 214.031 272.921C214.115 272.349 214.417 271.832 214.875 271.478C223.138 265.544 236.874 266.181 248.276 273.049C255.156 277.184 270.769 289.65 267.208 316.026C267.134 316.56 266.869 317.048 266.464 317.402C266.058 317.755 265.538 317.95 265 317.951Z" fill="#0E192F"/>
<path d="M217.256 326.22L218.501 327.063L219.856 327.935C220.778 328.491 221.7 329.056 222.656 329.544C224.528 330.569 226.504 331.391 228.551 331.996C229.562 332.299 230.595 332.524 231.641 332.67C232.701 332.834 233.772 332.923 234.845 332.935C237.043 333.029 239.285 332.677 241.781 332.219C240.197 334.183 237.951 335.653 235.439 336.486C232.927 337.318 230.182 337.466 227.551 337.162C224.932 336.84 222.378 336.118 219.978 335.021C218.791 334.481 217.644 333.859 216.544 333.16C215.998 332.806 215.455 332.447 214.937 332.045C214.383 331.633 213.853 331.19 213.35 330.717C212.795 330.208 212.453 329.507 212.395 328.756C212.336 328.005 212.565 327.26 213.035 326.672C213.504 326.083 214.18 325.694 214.925 325.585C215.67 325.475 216.429 325.652 217.049 326.081L217.256 326.22Z" fill="#0E192F"/>
<path d="M275.121 158.443C337.043 132.161 343.925 105.217 362.751 104.81C381.578 104.403 390.48 122.225 379.471 146.457C361.359 186.318 292.777 190.653 292.777 190.653" fill="white"/>
<g opacity="0.25">
<path d="M379.473 146.458C361.358 186.316 292.767 190.651 292.767 190.651C292.383 189.952 292.168 189.173 292.14 188.376C292.112 187.579 292.271 186.786 292.605 186.062C292.939 185.337 293.439 184.702 294.063 184.205C294.687 183.709 295.42 183.366 296.201 183.205C316.718 178.964 352.939 167.948 368.057 141.41C374.238 130.554 376.618 118.479 375.784 108.333C384.959 114.639 387.461 128.856 379.473 146.458Z" fill="#0E192F"/>
</g>
<path d="M274.735 157.532C279.095 153.971 283.823 151.435 288.546 148.885C293.249 146.309 298.033 143.906 302.71 141.303C307.375 138.689 311.905 135.842 316.284 132.773C320.673 129.72 324.936 126.492 329.074 123.089C333.227 119.696 337.24 116.127 341.41 112.552C343.5 110.772 345.649 108.991 347.995 107.327C350.34 105.664 352.933 104.127 355.874 103.1C357.352 102.578 358.881 102.215 360.436 102.017C361.214 101.922 362.003 101.89 362.776 101.845C363.526 101.861 364.273 101.833 365.027 101.89C368.03 102.072 371.098 102.656 373.955 103.95C376.858 105.222 379.439 107.129 381.51 109.529C383.52 111.921 385.024 114.697 385.931 117.688C386.816 120.568 387.257 123.567 387.239 126.58C387.237 129.504 386.929 132.42 386.321 135.28C385.727 138.085 384.92 140.84 383.905 143.521L383.125 145.506L382.282 147.458C381.664 148.749 380.991 150.034 380.344 151.316C377.552 156.361 373.917 160.883 369.803 164.805C365.69 168.726 361.098 172.076 356.293 174.964C346.657 180.729 336.204 184.727 325.573 187.711C322.911 188.452 320.236 189.141 317.546 189.75C314.856 190.36 312.182 191.047 309.476 191.615C306.768 192.172 304.021 192.517 301.259 192.645C298.484 192.724 295.689 192.558 292.846 191.653C292.644 191.59 292.466 191.469 292.334 191.305C292.202 191.141 292.121 190.941 292.103 190.731C292.085 190.521 292.129 190.31 292.231 190.125C292.332 189.941 292.487 189.79 292.674 189.694L292.714 189.675C295.279 188.366 297.875 187.57 300.478 186.928C303.085 186.316 305.705 185.801 308.336 185.382C310.967 184.955 313.614 184.569 316.212 183.961C318.818 183.382 321.399 182.707 323.966 181.997C334.213 179.122 344.212 175.275 353.224 169.878C357.719 167.177 361.95 164.078 365.693 160.512C369.436 156.946 372.669 152.904 375.136 148.445C375.705 147.304 376.297 146.184 376.853 145.03L377.626 143.246L378.333 141.444C379.239 139.048 379.961 136.588 380.493 134.083C381.017 131.631 381.283 129.131 381.288 126.624C381.312 124.202 380.964 121.789 380.258 119.472C379.592 117.25 378.482 115.187 376.996 113.407C375.505 111.682 373.647 110.313 371.558 109.4C369.469 108.442 367.113 107.987 364.713 107.839C364.113 107.789 363.501 107.819 362.896 107.801C362.318 107.841 361.746 107.858 361.179 107.927C360.041 108.072 358.922 108.34 357.841 108.725C353.449 110.25 349.348 113.651 345.277 117.088C341.206 120.577 337.107 124.224 332.854 127.698C328.602 131.171 324.211 134.517 319.69 137.656C315.17 140.795 310.505 143.732 305.819 146.62C301.134 149.508 296.309 152.175 291.297 154.431C290.037 154.98 288.79 155.555 287.52 156.076C286.249 156.596 284.944 157.047 283.638 157.477C282.328 157.922 280.995 158.297 279.646 158.601C278.289 158.938 276.913 159.193 275.525 159.365C275.39 159.382 275.254 159.371 275.123 159.334C274.993 159.298 274.871 159.236 274.764 159.152C274.657 159.068 274.568 158.964 274.502 158.845C274.436 158.727 274.394 158.597 274.378 158.462C274.356 158.29 274.377 158.114 274.439 157.952C274.501 157.789 274.603 157.645 274.735 157.532Z" fill="#0E192F"/>
<path d="M134.409 143.762C203.646 246.357 349.524 155.31 293.865 49.9037C225.484 -56.7936 74.7824 37.4591 134.409 143.762Z" fill="white"/>
<path d="M134.409 143.762C203.646 246.357 349.524 155.31 293.865 49.9037C225.484 -56.7936 74.7824 37.4591 134.409 143.762Z" fill="white"/>
<g opacity="0.25">
<path d="M296.281 148.293C293.92 152.579 291.217 156.669 288.199 160.521C285.92 163.458 283.464 166.254 280.847 168.895C258.3 191.698 224.469 203.189 192.23 195.065C188.613 194.154 185.061 193.007 181.595 191.631C164.671 184.935 148.603 172.384 135.345 152.743C128.649 140.788 124.6 128.996 122.799 117.616C134.574 126.014 149.254 142.716 177.635 159.144C177.395 157.91 177.156 156.675 176.907 155.434L278.516 148.518C280.306 150.54 282.023 152.58 283.667 154.637C288.139 152.544 292.332 150.427 296.281 148.293Z" fill="#0E192F"/>
</g>
<path d="M134.409 143.762C203.646 246.357 349.524 155.31 293.865 49.9037C225.484 -56.7936 74.7824 37.4591 134.409 143.762Z" fill="white"/>
<path d="M212.42 190.816C206.818 190.819 201.228 190.292 195.726 189.242C170.8 184.475 148.99 169.153 132.651 144.944L132.56 144.795C118.366 119.492 114.922 93.0712 122.602 68.3898C129.451 46.3663 144.665 27.3698 165.442 14.8995C186.178 2.45498 209.949 -1.92671 232.371 2.57174C257.656 7.64193 279.541 23.6131 295.656 48.7581L295.746 48.9126C309.014 74.0369 311.909 100.121 304.119 124.341C297.14 146.007 282.07 164.67 261.66 176.899C246.362 186.062 229.339 190.816 212.42 190.816ZM136.216 142.65C170.926 194.01 223.13 195.037 259.482 173.259C294.999 151.98 320.324 104.645 292.032 50.9764C257.936 -2.14649 203.646 -3.08395 167.619 18.5378C131.236 40.3741 105.906 88.523 136.216 142.65Z" fill="#0E192F"/>
<g opacity="0.25">
<path d="M134.409 143.762C192.668 233.416 324.082 176.612 303.893 75.8506C299.64 109.093 288.347 111.048 271.947 128.788C221.811 186.772 135.949 151.109 121.618 85.2338C119.274 105.622 123.774 126.21 134.409 143.762Z" fill="#0E192F"/>
</g>
<path d="M212.419 191.665C206.763 191.667 201.119 191.135 195.564 190.076C170.41 185.269 148.411 169.816 131.943 145.423L131.814 145.216C117.505 119.701 114.035 93.0474 121.782 68.1342C128.691 45.9098 144.039 26.7433 164.996 14.1649C185.914 1.61042 209.898 -2.80389 232.533 1.73404C258.051 6.84888 280.126 22.9506 296.37 48.2964L296.495 48.5127C309.872 73.8465 312.788 100.159 304.926 124.602C297.895 146.46 282.686 165.294 262.099 177.625C246.669 186.874 229.491 191.665 212.419 191.665ZM136.946 142.202C171.344 193.071 223.045 194.094 259.045 172.527C294.222 151.453 319.31 104.573 291.296 51.4075C257.505 -1.20712 203.736 -2.14286 168.058 19.2711C132.026 40.898 106.937 88.5832 136.946 142.202Z" fill="#293856"/>
<path d="M212.419 191.665C206.763 191.667 201.119 191.135 195.564 190.076C170.41 185.269 148.411 169.816 131.943 145.423L131.814 145.216C117.505 119.701 114.035 93.0474 121.782 68.1342C128.691 45.9098 144.039 26.7433 164.996 14.1649C185.914 1.61042 209.898 -2.80389 232.533 1.73404C258.051 6.84888 280.126 22.9506 296.37 48.2964L296.495 48.5127C309.872 73.8465 312.788 100.159 304.926 124.602C297.895 146.46 282.686 165.294 262.099 177.625C246.669 186.874 229.491 191.665 212.419 191.665ZM136.946 142.202C171.344 193.071 223.045 194.094 259.045 172.527C294.222 151.453 319.31 104.573 291.296 51.4075C257.505 -1.20712 203.736 -2.14286 168.058 19.2711C132.026 40.898 106.937 88.5832 136.946 142.202Z" fill="#0E192F"/>
<path d="M149.175 162.313C242.765 217.536 322.217 108.325 251.23 44.9774C167.404 -21.1446 73.3092 81.9128 149.175 162.313Z" fill="#0E192F"/>
<path d="M124.157 97.9575C123.747 196.168 264.21 204.356 279.321 114.622C234.318 167.489 150.482 145.478 124.157 97.9575Z" fill="#21102B"/>
<path d="M204.652 188.876C198.066 188.884 191.507 188.046 185.135 186.383C164.253 180.911 145.963 166.653 132.237 145.15L132.227 145.133C109.781 109.367 113.648 51.0622 155.178 21.2729L155.554 21.0497C178.08 10.1041 205.394 9.36061 230.492 19.0134C255.505 28.6284 275.188 47.357 284.499 70.3867C292.942 92.9184 292.597 115.73 283.524 136.421C275.302 155.176 260.517 170.628 241.884 179.934C230.03 185.856 217.268 188.876 204.652 188.876ZM136.586 142.388C166.734 189.616 210.91 189.647 239.584 175.324C272.541 158.862 296.904 118.171 279.7 72.2547C270.944 50.6038 252.329 32.9362 228.643 23.8192C204.958 14.7021 179.212 15.3528 158.002 25.5842C118.996 53.7252 115.42 108.654 136.586 142.388Z" fill="#0E192F"/>
<path d="M200.409 180.4C183.032 180.4 165.079 175.151 147.662 164.875L147.3 164.661L147.012 164.355C128.697 144.953 118.781 122.779 118.338 100.255C117.906 80.1785 125.245 60.7104 138.823 45.9153C152.121 31.3863 170.144 22.5646 189.577 21.1C211.175 19.4672 233.128 26.9119 253.07 42.6427L253.208 42.7595C269.874 57.6318 279.563 75.9725 281.23 95.7982C282.739 113.753 277.484 131.971 266.432 147.103C254.506 163.46 236.881 174.752 217.036 178.748C211.563 179.852 205.993 180.405 200.409 180.4ZM151.05 159.968C198.763 187.917 240.947 171.918 261.622 143.597C280.396 117.894 283.859 78.1461 249.31 47.2597C207.701 14.4828 166.037 24.9803 143.202 49.933C119.746 75.5707 113.107 119.501 151.05 159.966V159.968Z" fill="#0E192F"/>
<path d="M318.447 114.834C312.536 158.074 268.702 155.789 270.183 113.94C274.716 68.3869 321.574 70.8302 318.447 114.834Z" fill="white"/>
<g opacity="0.35">
<path d="M291.077 146.419C277.934 145.83 268.225 129.892 270.378 111.748C278.822 130.656 298.474 99.1253 299.787 90.1318C333.608 98.3132 315.197 148.018 291.077 146.419Z" fill="#0E192F"/>
</g>
<path d="M292.161 149.278C291.552 149.278 290.948 149.253 290.348 149.203C278.25 148.173 266.406 136.825 267.22 113.833L267.234 113.646C269.722 88.6437 284.797 76.7314 298.392 77.899C310.682 78.9463 323.13 91.0183 321.423 115.045L321.404 115.238C318.156 138.927 304.322 149.278 292.161 149.278ZM273.154 114.141C272.51 133.161 281.567 142.471 290.849 143.274C300.686 144.133 312.591 135.483 315.488 114.527C316.873 94.5827 307.339 84.6329 297.878 83.8259C287.209 82.9039 275.287 93.034 273.154 114.141Z" fill="#0E192F"/>
<path d="M320.17 117.224C315.341 152.25 282.474 151.102 283.667 117.254C287.209 79.9131 322.925 81.2111 320.17 117.224Z" fill="white"/>
<path d="M299.844 145.65C299.402 145.65 298.966 145.631 298.532 145.593C289.381 144.804 280.44 135.707 281.093 117.166L281.103 117.015C283.072 96.2513 294.803 86.3049 305.398 87.2149C314.802 88.0202 324.238 97.8172 322.739 117.423L322.724 117.578C320.03 137.098 309.239 145.65 299.844 145.65ZM286.238 117.423C285.723 132.532 292.262 139.881 298.973 140.461C306.287 141.105 315.233 134.004 317.606 116.953C318.808 100.894 311.9 92.941 304.959 92.3469C296.954 91.643 287.911 100.046 286.238 117.42V117.423Z" fill="#0E192F"/>
<g opacity="0.7">
<path d="M261.56 95.212C256.775 112.952 236.529 107.825 238.081 91.7936C241.182 71.6845 265.14 77.3419 261.56 95.212Z" fill="white"/>
</g>
<g opacity="0.7">
<path d="M251.145 123.097C248.923 129.776 240.026 127.706 241.769 120.225C243.99 113.543 252.888 115.618 251.145 123.097Z" fill="white"/>
</g>
<g opacity="0.7">
<path d="M133.865 104.815C120.835 35.8326 192.413 25.4725 214.438 39.7422C168.513 43.7856 148.698 72.5688 133.865 104.815Z" fill="white"/>
</g>
<g opacity="0.25">
<path d="M282.053 125.208C281.33 120.286 281.955 115.149 283.598 110.43C290.272 133.953 313.855 123.078 319.052 106.02C324.955 140.877 289.728 157.872 282.053 125.208Z" fill="#0E192F"/>
</g>
<path d="M272.101 88.3338C271.334 88.3353 270.576 88.167 269.881 87.8411C265.953 86.0005 265.527 79.931 265.491 78.1144C265.483 77.7235 265.552 77.3348 265.695 76.9706C265.837 76.6064 266.05 76.2739 266.321 75.9921C266.592 75.7103 266.916 75.4847 267.275 75.3283C267.633 75.1719 268.019 75.0877 268.41 75.0806H268.47C269.247 75.0808 269.993 75.3851 270.549 75.9283C271.104 76.4715 271.426 77.2105 271.444 77.9874C271.483 79.5962 271.902 81.5295 272.343 82.2798C272.674 82.1106 272.984 81.905 273.269 81.6668C273.574 81.4229 273.924 81.2414 274.299 81.1327C274.674 81.0241 275.067 80.9904 275.455 81.0336C275.844 81.0768 276.22 81.1961 276.562 81.3846C276.904 81.573 277.206 81.8271 277.45 82.1321C277.693 82.4372 277.875 82.7873 277.984 83.1625C278.092 83.5377 278.126 83.9307 278.083 84.3189C278.04 84.7071 277.92 85.0831 277.732 85.4252C277.543 85.7673 277.289 86.069 276.984 86.313C275.077 87.8393 273.434 88.3338 272.101 88.3338Z" fill="#0E192F"/>
<path d="M191.17 235.711C195.103 231.778 195.103 225.401 191.17 221.467C187.237 217.534 180.86 217.534 176.926 221.467C172.993 225.401 172.993 231.778 176.926 235.711C180.86 239.644 187.237 239.644 191.17 235.711Z" fill="white"/>
<g opacity="0.35">
<path d="M174.006 229.344C174.09 230.674 174.437 231.975 175.028 233.171C175.618 234.366 176.44 235.432 177.445 236.308C178.451 237.183 179.62 237.85 180.885 238.27C182.151 238.691 183.487 238.855 184.816 238.755C186.146 238.655 187.442 238.292 188.63 237.687C189.818 237.082 190.874 236.248 191.738 235.232C192.601 234.215 193.253 233.038 193.658 231.768C194.063 230.497 194.211 229.159 194.095 227.831C193.986 226.345 193.546 224.902 192.805 223.609C192.122 225.39 190.947 226.941 189.417 228.08C187.886 229.219 186.064 229.9 184.162 230.044C182.259 230.188 180.355 229.789 178.671 228.893C176.987 227.997 175.592 226.641 174.648 224.983C174.111 226.37 173.892 227.86 174.006 229.344Z" fill="#0E192F"/>
</g>
<path d="M184.039 241.237C180.725 241.236 177.544 239.935 175.179 237.613C172.814 235.292 171.455 232.135 171.393 228.821C171.331 225.508 172.572 222.302 174.848 219.894C177.125 217.485 180.255 216.066 183.567 215.942C186.879 215.817 190.107 216.997 192.558 219.227C195.01 221.458 196.488 224.561 196.675 227.87C196.862 231.178 195.744 234.429 193.56 236.922C191.377 239.415 188.302 240.951 184.997 241.201C184.677 241.225 184.358 241.237 184.039 241.237ZM184.051 221.092C183.865 221.092 183.676 221.099 183.485 221.113C181.502 221.263 179.66 222.194 178.364 223.701C177.068 225.208 176.422 227.169 176.571 229.152C176.68 230.606 177.211 231.998 178.099 233.155C178.987 234.312 180.194 235.185 181.571 235.667C182.948 236.149 184.436 236.219 185.852 235.868C187.268 235.517 188.551 234.76 189.543 233.691C190.535 232.622 191.194 231.286 191.439 229.848C191.684 228.41 191.504 226.931 190.921 225.594C190.338 224.257 189.378 223.119 188.157 222.319C186.937 221.519 185.51 221.093 184.051 221.092Z" fill="#0E192F"/>
<path d="M196.395 252.716L249.636 251.876C252.674 251.818 255.565 250.562 257.679 248.38C259.793 246.198 260.958 243.269 260.92 240.232L260.472 211.902C260.423 209.261 259.466 206.718 257.763 204.699C256.06 202.68 253.714 201.309 251.12 200.815C250.364 200.67 249.595 200.604 248.826 200.618L195.591 201.451C192.553 201.505 189.659 202.761 187.544 204.944C185.43 207.126 184.266 210.058 184.307 213.097L184.651 235.538L184.742 241.43C184.799 244.469 186.057 247.362 188.241 249.477C190.424 251.591 193.356 252.756 196.395 252.716Z" fill="white"/>
<g opacity="0.25">
<path d="M196.395 252.716L249.636 251.877C252.673 251.819 255.564 250.562 257.678 248.381C259.792 246.199 260.958 243.27 260.92 240.232L260.472 211.902C260.422 209.262 259.466 206.718 257.763 204.699C256.06 202.681 253.714 201.309 251.119 200.816C248.128 202.876 246.228 204.186 246.228 204.186C243.996 226.969 245.259 243.814 209.936 242.03C197.758 241.415 189.553 237.969 184.657 235.545L184.748 241.438C184.808 244.474 186.065 247.364 188.247 249.477C190.429 251.59 193.358 252.755 196.395 252.716Z" fill="#0E192F"/>
</g>
<path d="M196.213 255.296C192.528 255.291 188.993 253.841 186.368 251.256C183.742 248.671 182.237 245.16 182.175 241.476L181.728 213.137C181.676 209.417 183.102 205.827 185.692 203.156C188.282 200.485 191.826 198.949 195.546 198.887L248.786 198.047C252.506 198.001 256.094 199.428 258.766 202.017C261.437 204.606 262.977 208.147 263.047 211.867L263.492 240.197C263.54 243.917 262.114 247.506 259.525 250.178C256.936 252.851 253.394 254.389 249.674 254.458L196.436 255.296H196.213ZM249.007 203.188H248.867L195.629 204.027C193.273 204.072 191.031 205.047 189.391 206.738C187.751 208.429 186.846 210.699 186.872 213.055L187.319 241.385C187.364 243.741 188.338 245.983 190.03 247.623C191.721 249.263 193.992 250.169 196.348 250.141L249.586 249.304C251.942 249.258 254.184 248.284 255.824 246.593C257.465 244.901 258.37 242.63 258.343 240.274L257.898 211.944C257.86 209.61 256.906 207.385 255.244 205.747C253.581 204.11 251.341 203.19 249.007 203.188Z" fill="#0E192F"/>
<path d="M194.254 252.541C194.959 252.673 195.677 252.731 196.395 252.713L249.636 251.873C251.837 251.833 253.981 251.161 255.811 249.937C257.641 248.714 259.082 246.99 259.96 244.971C260.617 243.478 260.941 241.86 260.911 240.229L260.717 227.642L260.654 223.488L260.472 211.895C260.414 208.858 259.157 205.967 256.975 203.852C254.793 201.738 251.864 200.573 248.826 200.612L237.322 200.797C239.951 201.256 242.339 202.615 244.076 204.641C245.813 206.667 246.792 209.234 246.844 211.902L247.09 227.207L247.292 240.242C247.331 243.28 246.166 246.209 244.052 248.391C241.938 250.573 239.047 251.83 236.01 251.889L194.254 252.541Z" fill="white"/>
<g opacity="0.25">
<path d="M194.254 252.542C194.959 252.674 195.677 252.731 196.395 252.713L249.636 251.874C252.673 251.818 255.565 250.562 257.678 248.379C259.791 246.197 260.954 243.267 260.911 240.229L260.654 223.489C259.361 226.468 257.012 230.137 253.17 230.578C251.061 230.825 248.958 229.338 247.088 227.208L247.291 240.243C247.329 243.28 246.164 246.21 244.05 248.392C241.937 250.574 239.046 251.831 236.008 251.889L194.254 252.542Z" fill="#0E192F"/>
</g>
<path d="M196.162 255.295C195.365 255.294 194.569 255.221 193.785 255.077L194.211 249.969L235.969 249.315C238.324 249.27 240.564 248.295 242.202 246.604C243.84 244.912 244.743 242.642 244.712 240.287L244.268 211.957C244.231 209.887 243.474 207.894 242.126 206.321C240.779 204.748 238.925 203.695 236.885 203.342L237.283 198.229L248.787 198.045C252.508 197.996 256.098 199.423 258.77 202.013C261.442 204.604 262.98 208.147 263.048 211.868L263.494 240.198C263.543 243.918 262.118 247.507 259.529 250.18C256.941 252.852 253.399 254.391 249.679 254.461L196.438 255.299L196.162 255.295ZM246.261 203.228C248.256 205.671 249.369 208.716 249.418 211.87L249.863 240.2C249.924 243.535 248.784 246.781 246.651 249.346L249.597 249.298C251.951 249.253 254.191 248.278 255.829 246.587C257.467 244.896 258.37 242.626 258.34 240.272L257.893 211.942C257.849 209.61 256.893 207.388 255.231 205.752C253.569 204.115 251.332 203.194 249 203.185H248.864L246.261 203.228Z" fill="#0E192F"/>
<path d="M226.078 226.637C226.101 227.685 227.756 236.11 227.756 236.11L233.724 235.983C237.834 235.894 241.074 231.567 240.961 226.318C240.848 221.069 237.426 216.885 233.315 216.973L227.347 217.101C227.347 217.101 226.04 224.931 226.078 226.637Z" fill="#803EF9"/>
<g opacity="0.35">
<path d="M226.078 226.637C226.101 227.685 227.756 236.11 227.756 236.11L233.724 235.983C237.834 235.894 241.074 231.567 240.961 226.318C240.848 221.069 237.426 216.885 233.315 216.973L227.347 217.101C227.347 217.101 226.04 224.931 226.078 226.637Z" fill="#0E192F"/>
</g>
<path d="M226.348 237.851L226.069 236.434C225.675 234.424 224.385 227.776 224.353 226.667C224.315 224.888 225.422 218.145 225.644 216.811L225.879 215.408L233.262 215.249H233.423C238.402 215.249 242.523 220.154 242.662 226.275C242.794 232.456 238.794 237.587 233.744 237.695L226.348 237.851ZM227.793 226.589C227.822 227.183 228.48 230.779 229.167 234.355L233.691 234.259C236.847 234.19 239.34 230.643 239.247 226.347C239.154 222.051 236.515 218.609 233.355 218.683L228.805 218.793C228.339 221.744 227.774 225.626 227.793 226.596V226.589Z" fill="#0E192F"/>
<path d="M227.748 236.119C231.857 236.031 235.098 231.704 234.985 226.455C234.872 221.205 231.449 217.022 227.34 217.11C223.23 217.198 219.99 221.525 220.102 226.774C220.215 232.023 223.638 236.207 227.748 236.119Z" fill="#803EF9"/>
<g opacity="0.35">
<path d="M234.985 226.447C235.098 231.694 231.859 236.025 227.75 236.114C223.641 236.203 220.212 232.017 220.103 226.763C220.086 226.069 220.131 225.375 220.238 224.689C221.373 228.272 224.151 230.783 227.343 230.711C230.892 230.633 233.797 227.397 234.443 223.125C234.779 224.201 234.962 225.32 234.985 226.447Z" fill="#0E192F"/>
</g>
<path d="M234.985 226.446C234.994 226.804 234.985 227.157 234.958 227.506C234.051 223.409 231.065 220.432 227.594 220.507C223.765 220.593 220.685 224.357 220.382 229.121C220.21 228.346 220.114 227.556 220.097 226.762C219.982 221.517 223.224 217.187 227.333 217.098C231.441 217.008 234.875 221.196 234.985 226.446Z" fill="white"/>
<path d="M227.622 237.829C225.16 237.829 222.85 236.661 221.097 234.527C219.411 232.466 218.448 229.719 218.385 226.8C218.252 220.619 222.253 215.491 227.302 215.381C229.826 215.335 232.204 216.5 233.99 218.683C235.676 220.743 236.639 223.49 236.703 226.409C236.766 229.328 235.922 232.113 234.325 234.242C232.635 236.5 230.312 237.774 227.785 237.827L227.622 237.829ZM227.472 218.815H227.383C224.226 218.884 221.733 222.433 221.825 226.727C221.872 228.885 222.56 230.882 223.762 232.351C224.864 233.698 226.26 234.441 227.711 234.391C229.162 234.341 230.534 233.577 231.576 232.183C232.714 230.664 233.315 228.638 233.269 226.481C233.223 224.325 232.536 222.326 231.332 220.856C230.259 219.539 228.889 218.815 227.472 218.815Z" fill="#0E192F"/>
<path d="M212.942 253.969C212.498 253.969 212.072 253.797 211.752 253.49C211.431 253.183 211.243 252.764 211.225 252.32L210.488 233.597L202.075 228.487C201.828 228.337 201.623 228.126 201.479 227.875C201.335 227.624 201.256 227.341 201.251 227.052L200.757 201.395C200.752 201.17 200.792 200.945 200.875 200.736C200.957 200.526 201.08 200.334 201.236 200.171C201.393 200.009 201.58 199.879 201.786 199.789C201.993 199.698 202.216 199.65 202.441 199.646H202.475C202.925 199.645 203.357 199.822 203.678 200.137C203.999 200.452 204.184 200.88 204.192 201.33L204.668 226.042L213.069 231.14C213.311 231.287 213.514 231.492 213.657 231.737C213.801 231.981 213.882 232.257 213.893 232.541L214.668 252.185C214.685 252.639 214.521 253.083 214.212 253.417C213.903 253.751 213.474 253.949 213.019 253.967L212.942 253.969Z" fill="#0E192F"/>
<path d="M314.575 204.984C314.575 204.984 320.202 208.418 320.317 214.731C320.451 222.023 315.31 225.587 315.31 225.587C315.31 225.587 297.862 238.284 257.39 235.795C257.39 235.795 247.159 225.048 258.987 216.925C258.987 216.925 295.974 222.991 314.575 204.984Z" fill="white"/>
<g opacity="0.25">
<path d="M320.319 214.588C320.52 221.971 315.312 225.588 315.312 225.588C315.312 225.588 297.866 238.282 257.394 235.796C257.394 235.796 249.575 227.58 255.505 220.089L255.526 220.223C256.29 224.773 260.253 228.121 264.865 228.262C301.513 229.374 317.414 217.807 317.414 217.807C317.414 217.807 318.946 216.743 320.319 214.588Z" fill="#0E192F"/>
</g>
<path d="M267.748 238.696C264.426 238.696 260.923 238.593 257.23 238.364L256.222 238.302L255.523 237.569C255.3 237.336 250.063 231.747 250.773 224.972C251.185 221.023 253.46 217.598 257.529 214.802L258.387 214.217L259.409 214.389C259.764 214.447 295.348 220.022 312.788 203.137L314.221 201.75L315.923 202.79C316.203 202.962 322.758 207.054 322.897 214.687C323.053 223.26 317.039 227.53 316.783 227.709C316.144 228.164 301.26 238.696 267.748 238.696ZM258.648 233.287C296.736 235.384 313.632 223.617 313.801 223.5C313.969 223.384 317.846 220.522 317.741 214.778C317.686 211.822 315.978 209.627 314.68 208.367C296.664 223.772 265.918 220.489 259.649 219.629C257.388 221.382 256.126 223.349 255.896 225.485C255.542 228.778 257.585 231.908 258.65 233.287H258.648Z" fill="#0E192F"/>
<path d="M355.042 174.474C354.958 174.474 354.871 174.474 354.788 174.461C340.173 172.799 328.701 158.455 321.615 132.98C321.488 132.52 321.397 132.182 321.335 131.988C321.122 131.528 321.072 131.009 321.193 130.516C321.315 130.024 321.6 129.587 322.003 129.279C322.406 128.97 322.901 128.808 323.408 128.819C323.915 128.83 324.404 129.013 324.793 129.339C325.368 129.821 325.48 130.197 325.914 131.785C332.378 155.026 342.812 168.607 355.293 170.027C355.855 170.097 356.369 170.378 356.731 170.812C357.094 171.247 357.278 171.803 357.246 172.368C357.214 172.933 356.969 173.465 356.56 173.856C356.151 174.247 355.608 174.468 355.042 174.474Z" fill="#0E192F"/>
<path d="M140.258 280.407C141.017 281.186 141.597 281.866 142.22 282.611C142.843 283.356 143.408 284.089 143.975 284.843C145.101 286.353 146.147 287.921 147.11 289.541C148.081 291.151 148.953 292.819 149.722 294.535C150.494 296.249 151.15 298.012 151.686 299.813C151.8 300.173 151.774 300.563 151.612 300.904C151.449 301.245 151.163 301.511 150.812 301.649C150.461 301.787 150.07 301.786 149.719 301.646C149.368 301.506 149.084 301.238 148.923 300.897L148.891 300.828C148.175 299.259 147.355 297.74 146.437 296.28C145.525 294.818 144.523 293.413 143.439 292.073C142.362 290.73 141.216 289.444 140.005 288.219C139.401 287.611 138.788 287.017 138.161 286.442C137.535 285.866 136.863 285.286 136.297 284.85C135.688 284.362 135.295 283.655 135.202 282.881C135.108 282.106 135.322 281.326 135.797 280.707C136.272 280.089 136.97 279.681 137.743 279.571C138.515 279.461 139.299 279.658 139.928 280.12C140.044 280.208 140.155 280.304 140.258 280.407Z" fill="#0E192F"/>
</g>
<defs>
<clipPath id="clip0_167_967">
<rect width="470" height="427.466" fill="white"/>
</clipPath>
</defs>
</svg>
