<svg width="435" height="430" viewBox="0 0 435 430" fill="none" xmlns="http://www.w3.org/2000/svg">
<g clip-path="url(#clip0_487_1379)">
<path d="M257.768 199.257H143.51C123.833 199.257 107.881 215.209 107.881 234.886V335.837C107.881 355.514 123.833 371.465 143.51 371.465H257.768C277.445 371.465 293.396 355.514 293.396 335.837V234.886C293.396 215.209 277.445 199.257 257.768 199.257Z" fill="white"/>
<path d="M257.768 199.257C277.364 199.257 293.398 215.29 293.398 234.886V335.837C293.398 355.432 277.364 371.465 257.768 371.465H143.511C123.915 371.465 107.881 355.432 107.881 335.837V234.886C107.881 215.29 123.915 199.257 143.511 199.257H257.768ZM257.768 193.626H143.511C138 193.618 132.545 194.727 127.474 196.886C117.592 201.098 109.722 208.968 105.51 218.85C103.351 223.92 102.242 229.375 102.25 234.886V335.837C102.242 341.348 103.351 346.802 105.51 351.873C109.722 361.755 117.592 369.625 127.474 373.837C132.545 375.996 138 377.105 143.511 377.097H257.768C263.279 377.105 268.734 375.996 273.805 373.837C283.687 369.625 291.557 361.755 295.769 351.873C297.928 346.802 299.037 341.348 299.029 335.837V234.886C299.037 229.375 297.928 223.92 295.769 218.85C291.557 208.968 283.687 201.098 273.805 196.886C268.734 194.727 263.279 193.618 257.768 193.626Z" fill="#14081D"/>
<path d="M290.843 309.052C273.053 311.144 255.322 311.65 255.322 311.65C255.322 311.65 246.292 266.624 243.79 231.316C241.945 205.155 243.679 184.332 255.322 191.125C260.678 194.25 266.847 200.136 273.28 207.599C297.407 235.595 325.126 285.892 326.648 296.326C327.63 303.029 309.211 306.878 290.843 309.052Z" fill="white"/>
<path d="M252.941 314.641L252.458 312.228C252.4 311.948 246.884 284.273 243.304 255.632C241.196 238.738 240.167 224.797 240.247 214.184C240.35 199.69 242.455 191.47 246.87 188.314C248.809 186.931 252.107 185.854 256.807 188.596C272.295 197.631 291.953 226.417 302.291 242.771C309.187 253.681 315.79 265.148 320.881 275.06C324.469 282.043 328.886 291.327 329.554 295.898C329.749 297.225 329.618 299.237 327.897 301.288C325.407 304.252 320.238 306.571 311.625 308.585C305.311 310.062 297.195 311.333 287.505 312.363C271.094 314.107 255.571 314.569 255.415 314.572L252.941 314.641ZM251.29 192.749C250.922 192.736 250.561 192.849 250.266 193.071C248.358 194.435 242.632 202.921 249.11 254.87C252.044 278.397 256.305 301.27 257.719 308.622C262.707 308.421 274.566 307.843 286.913 306.53C315.58 303.473 321.99 299.209 323.407 297.52C323.8 297.052 323.769 296.834 323.755 296.741C322.923 291.053 312.109 269.266 297.337 245.896C280.228 218.834 264.379 199.791 253.85 193.648C252.656 192.951 251.843 192.749 251.29 192.749Z" fill="#14081D"/>
<path d="M164.802 189.457L161.201 216.694L159.151 232.178L154.783 265.24C154.783 265.24 146.799 270.67 133.518 274.973C127.975 276.766 122.294 278.101 116.533 278.963C104.856 280.737 92.9576 280.434 81.3857 278.07C48.1563 271.264 28.2141 246.582 19.5801 234.171C2.89464 210.219 0.326643 203.743 4.96544 193.659C8.50527 185.936 14.5745 184.52 14.5745 184.52C14.5745 184.52 14.2736 178.343 19.1618 176.153C33.8038 169.574 52.6857 187.145 52.6857 187.145C52.6857 187.145 53.3872 168.25 63.5015 172.61C70.4669 175.619 72.0486 196.189 72.0486 196.189C72.0486 196.189 81.4001 208.205 96.2546 209.8C104.02 210.635 114.758 208.38 125.431 205.109C125.556 205.072 125.68 205.037 125.804 204.992C131.49 203.236 137.14 201.201 142.314 199.19C144.633 198.289 146.858 197.389 148.943 196.525C158.266 192.662 164.802 189.457 164.802 189.457Z" fill="white"/>
<g opacity="0.35">
<path d="M19.5752 234.178C28.2173 246.585 48.1562 271.272 81.384 278.077C102.197 282.334 120.435 279.203 133.516 274.97C146.797 270.674 154.779 265.24 154.779 265.24L155.365 239.15C155.365 239.15 146.314 230.429 137.888 233.985C127.761 238.257 131.004 252.778 116.543 256.817C76.3349 268.045 43.6735 247.531 33.1618 238.526C18.5825 226.031 14.7771 218.165 12.7273 214.918C8.48427 208.2 5.20993 202.921 3.35634 198.191C1.47218 206.189 5.49473 213.959 19.5752 234.178Z" fill="#14081D"/>
</g>
<path d="M101.429 283.031C94.4972 283.031 87.583 282.33 80.792 280.939C65.8539 277.882 51.9198 270.994 39.3743 260.468C31.2986 253.694 23.8296 245.41 17.1698 235.85C9.04431 224.18 3.87937 216.163 1.52377 209.724C-0.728855 203.554 -0.510034 198.545 2.29287 192.437C5.05234 186.424 9.22452 183.658 11.7475 182.471C12.1594 179.378 13.7619 175.368 17.955 173.484C29.8618 168.133 43.6156 176.414 50.4202 181.512C50.4861 181.164 50.5601 180.81 50.639 180.451C51.7653 175.393 53.7138 171.96 56.4314 170.25C58.0968 169.199 60.8772 168.29 64.6648 169.928C68.5087 171.587 71.3149 176.477 73.2409 184.876C73.9907 188.219 74.5382 191.604 74.8804 195.013C76.9512 197.356 85.0365 205.66 96.57 206.895C117.626 209.148 163.053 187.056 163.505 186.833C163.98 186.602 164.509 186.504 165.036 186.549C165.562 186.594 166.067 186.781 166.496 187.09C166.925 187.399 167.262 187.818 167.472 188.303C167.682 188.788 167.757 189.321 167.688 189.845L157.676 265.629C157.621 266.038 157.482 266.43 157.266 266.781C157.05 267.131 156.762 267.433 156.422 267.665C156.086 267.893 148.055 273.304 134.708 277.666C126.949 280.209 118.928 281.868 110.797 282.614C107.682 282.892 104.559 283.031 101.429 283.031ZM15.2519 187.368C14.8738 187.473 10.4055 188.817 7.62032 194.879C3.86971 203.055 4.79167 207.817 21.9808 232.506C38.1418 255.715 58.8868 270.479 81.973 275.208C103.006 279.514 121.278 275.89 132.902 272.093C142.755 268.875 149.55 265.032 152.062 263.499L161.194 194.376C156.424 196.554 148.62 199.977 139.862 203.257C120.367 210.562 105.59 213.743 95.9473 212.709C80.0373 211.005 70.1531 198.519 69.7396 197.99C69.3869 197.536 69.1754 196.989 69.1314 196.416C68.82 192.952 68.2825 189.512 67.5224 186.118C65.4838 177.269 63.0445 175.598 62.3462 175.298C60.5988 174.543 59.8442 175.018 59.5594 175.196C57.0992 176.744 55.7669 183.177 55.606 187.249C55.5839 187.809 55.4017 188.351 55.0809 188.81C54.7601 189.27 54.3143 189.628 53.7963 189.841C53.2783 190.055 52.7099 190.115 52.1585 190.016C51.6071 189.916 51.096 189.66 50.6857 189.278C50.5119 189.117 33.0589 173.117 20.3621 178.82C17.4369 180.134 17.49 184.097 17.4981 184.384C17.5542 185.07 17.3565 185.753 16.9425 186.303C16.5284 186.853 15.9269 187.232 15.2519 187.368Z" fill="#14081D"/>
<path d="M55.0896 187.141C55.141 187.888 55.0665 188.638 54.8692 189.36C54.79 189.673 54.6944 189.981 54.5828 190.284C54.4798 190.561 54.3639 190.845 54.2513 191.098C53.82 192.034 53.341 192.947 52.8161 193.833C52.3334 194.665 51.8828 195.454 51.4548 196.247L51.1443 196.842C51.0461 197.04 50.9416 197.24 50.845 197.439L50.5683 198.046L50.3044 198.657L50.0646 199.278L49.8426 199.909C49.767 200.12 49.7123 200.335 49.6447 200.553C49.5771 200.77 49.5208 200.985 49.4613 201.196C49.2281 202.086 49.0529 202.989 48.9367 203.901C48.8136 204.845 48.7401 205.794 48.7163 206.746C48.6938 207.228 48.7018 207.711 48.6986 208.212C48.6986 208.461 48.7098 208.706 48.7115 208.955C48.7131 209.204 48.7243 209.454 48.7243 209.706V209.724C48.7244 209.803 48.6979 209.88 48.649 209.942C48.6001 210.005 48.5316 210.048 48.4547 210.067C48.3777 210.086 48.2968 210.078 48.2249 210.045C48.1529 210.012 48.0942 209.955 48.0582 209.885C47.5774 208.97 47.1686 208.019 46.8353 207.04C45.7792 203.969 45.5271 200.678 46.1032 197.481L46.2642 196.676C46.3269 196.409 46.3961 196.144 46.4637 195.872C46.5312 195.6 46.6117 195.344 46.6873 195.08C46.7629 194.816 46.8482 194.562 46.9415 194.303C47.291 193.303 47.7043 192.326 48.1789 191.378C48.6262 190.462 49.1041 189.598 49.4886 188.849C49.7794 188.295 50.0373 187.724 50.2609 187.14L50.5441 186.443C50.7448 185.951 51.1052 185.542 51.5672 185.28C52.0292 185.018 52.5659 184.919 53.0907 185C53.6156 185.08 54.0981 185.335 54.4605 185.724C54.8228 186.112 55.0439 186.611 55.088 187.14L55.0896 187.141Z" fill="#14081D"/>
<path d="M78.1691 280.089C77.7156 280.09 77.2753 279.937 76.9197 279.655C76.564 279.374 76.3139 278.981 76.21 278.539C76.106 278.098 76.1542 277.634 76.3469 277.224C76.5396 276.813 76.8653 276.48 77.2713 276.278C85.3856 272.239 90.9302 259.641 93.3019 239.843C95.141 224.5 94.3767 210.237 94.3687 210.088C94.3388 209.554 94.5221 209.031 94.8781 208.632C95.2342 208.234 95.7339 207.994 96.2673 207.964C96.8008 207.934 97.3242 208.117 97.7225 208.473C98.1208 208.829 98.3614 209.329 98.3912 209.862C98.3993 210.007 99.1829 224.582 97.3084 240.273C96.1998 249.555 94.3896 257.431 91.9278 263.682C88.7404 271.774 84.4153 277.224 79.0686 279.884C78.789 280.022 78.4809 280.092 78.1691 280.089Z" fill="#14081D"/>
<g opacity="0.35">
<path d="M337.749 409.548V409.133C334.531 409.276 337.749 409.548 337.749 409.548Z" fill="#14081D"/>
</g>
<path d="M297.152 360.136H103.925C103.925 360.136 105.103 326.79 116.533 278.968C121.653 257.489 128.092 236.347 135.816 215.661C137.854 210.232 140.02 204.742 142.314 199.19C148.993 183.059 156.556 167.31 164.969 152.012H236.104C243.327 165.117 249.7 178.216 255.32 191.111C258.958 199.454 262.279 207.708 265.309 215.816C278.534 251.167 286.305 283.79 290.843 309.052C296.442 340.196 297.152 360.136 297.152 360.136Z" fill="white"/>
<path d="M270.625 240.691C274.36 244.86 276.067 249.713 277.644 254.588C278.435 257.026 279.216 259.468 279.961 261.921C280.334 263.148 280.717 264.371 281.05 265.608C281.383 266.846 281.728 268.081 282.061 269.319L283.04 273.037C283.362 274.278 283.684 275.517 283.988 276.764L285.766 284.246C286.056 285.493 286.373 286.735 286.656 287.985L287.504 291.734L288.374 295.478C288.667 296.725 288.97 297.971 289.242 299.222L290.918 306.725C291.206 307.972 291.454 309.23 291.723 310.484L292.51 314.247L292.902 316.132L293.098 317.073L293.282 318.016L294.017 321.79C294.262 323.049 294.516 324.305 294.781 325.559C295.036 326.815 295.291 328.072 295.557 329.327C296.707 334.335 297.468 339.424 297.835 344.548C297.879 345.192 297.929 345.836 297.959 346.479L298.043 348.41C298.085 349.697 298.12 350.984 298.101 352.288C298.082 353.591 298.064 354.88 297.98 356.182C297.896 357.483 297.797 358.785 297.6 360.098C297.586 360.199 297.538 360.293 297.464 360.364C297.39 360.435 297.294 360.48 297.192 360.491C297.09 360.502 296.988 360.478 296.9 360.424C296.813 360.37 296.746 360.289 296.711 360.193C295.787 357.739 295.034 355.276 294.32 352.809C293.97 351.577 293.632 350.343 293.304 349.108L292.835 347.253C292.688 346.635 292.534 346.016 292.379 345.398C291.781 342.922 291.253 340.437 290.778 337.943C290.55 336.695 290.341 335.443 290.152 334.188C289.948 332.936 289.76 331.679 289.565 330.424C289.37 329.169 289.176 327.914 288.973 326.661C288.77 325.407 288.516 324.162 288.275 322.915L287.544 319.174L287.362 318.239L287.168 317.306L286.778 315.441L285.999 311.71C285.736 310.468 285.491 309.221 285.205 307.982L283.536 300.524C283.267 299.282 282.957 298.049 282.661 296.814L281.752 293.113L280.82 289.412C280.669 288.796 280.498 288.184 280.337 287.57L279.837 285.731L277.827 278.378C277.132 275.933 276.423 273.493 275.736 271.045C275.398 269.821 275.06 268.596 274.731 267.369L274.487 266.448L274.228 265.531L273.718 263.697C273.036 261.25 272.392 258.791 271.756 256.329L271.29 254.479C271.129 253.863 270.968 253.251 270.797 252.637C270.476 251.409 270.197 250.163 269.993 248.896C269.783 247.614 269.649 246.321 269.591 245.024C269.562 244.367 269.562 243.7 269.591 243.024C269.608 242.332 269.671 241.642 269.779 240.958V240.929C269.789 240.865 269.811 240.804 269.845 240.749C269.879 240.694 269.923 240.646 269.976 240.609C270.029 240.571 270.089 240.545 270.152 240.53C270.215 240.516 270.28 240.515 270.344 240.527C270.453 240.549 270.552 240.606 270.625 240.691Z" fill="#14081D"/>
<path d="M103.473 360.122C103.195 359.478 102.963 358.815 102.779 358.138C102.588 357.477 102.444 356.82 102.317 356.161C102.072 354.86 101.913 353.544 101.844 352.222C101.809 351.569 101.783 350.914 101.786 350.262C101.79 349.61 101.814 348.962 101.844 348.314L101.954 346.367C101.989 345.723 102.028 345.07 102.081 344.425C102.282 341.837 102.478 339.247 102.781 336.671C102.919 335.383 103.07 334.096 103.222 332.809C103.296 332.165 103.395 331.522 103.482 330.878L103.754 328.947L104.322 325.1C104.522 323.821 104.753 322.545 104.966 321.268C105.41 318.714 105.828 316.157 106.335 313.617C106.842 311.076 107.276 308.523 107.783 305.984C108.29 303.444 108.795 300.904 109.286 298.362C109.412 297.728 109.524 297.09 109.661 296.457L110.065 294.558L110.869 290.761L111.674 286.962C111.743 286.64 111.806 286.329 111.878 286.014L112.1 285.068L112.544 283.177L114.314 275.615C114.459 274.984 114.618 274.357 114.778 273.731C114.937 273.105 115.099 272.474 115.238 271.843C115.537 270.584 115.831 269.323 116.12 268.061C116.411 266.799 116.696 265.534 116.996 264.275C117.297 263.015 117.65 261.769 118.013 260.526C118.377 259.282 118.779 258.051 119.193 256.825C119.606 255.599 120.049 254.378 120.494 253.16L121.183 251.338C121.299 251.036 121.428 250.736 121.553 250.435C121.679 250.135 121.803 249.835 121.935 249.538C122.454 248.342 122.98 247.151 123.544 245.97C124.107 244.789 124.67 243.616 125.281 242.453C125.893 241.29 126.517 240.138 127.212 239.008C127.266 238.921 127.347 238.854 127.444 238.818C127.54 238.782 127.645 238.779 127.743 238.809C127.841 238.84 127.926 238.903 127.985 238.987C128.043 239.071 128.072 239.173 128.066 239.275V239.283C127.777 244.593 126.779 249.645 125.801 254.696C125.548 255.956 125.291 257.214 125.008 258.466C124.725 259.718 124.417 260.958 124.092 262.197C123.412 264.666 122.731 267.132 122.02 269.599C121.664 270.828 121.316 272.062 120.976 273.3C120.802 273.916 120.638 274.535 120.472 275.153C120.306 275.771 120.15 276.39 120.004 277.016L118.248 284.497L117.825 286.365L117.606 287.3C117.534 287.612 117.471 287.926 117.404 288.239L116.599 291.996L115.795 295.753L115.394 297.633C115.26 298.259 115.148 298.889 115.024 299.517C112.967 309.556 111.584 319.715 110.24 329.853L109.719 333.654C109.558 334.922 109.397 336.19 109.217 337.454L108.182 345.054C107.994 346.32 107.841 347.586 107.672 348.853C107.584 349.487 107.49 350.119 107.373 350.75C107.255 351.38 107.143 352.011 107.001 352.64C106.716 353.911 106.368 355.167 105.957 356.404C105.749 357.03 105.505 357.657 105.252 358.281C104.993 358.923 104.696 359.549 104.364 360.156C104.299 360.271 104.191 360.357 104.064 360.393C103.936 360.429 103.799 360.413 103.683 360.349C103.592 360.297 103.518 360.217 103.473 360.122Z" fill="#14081D"/>
<path d="M159.578 318.062C148.557 322.524 131.502 321.591 119.875 320.183C118.22 319.982 116.622 319.451 115.175 318.622C113.728 317.793 112.463 316.683 111.452 315.356C110.441 314.03 109.707 312.515 109.291 310.9C108.876 309.285 108.788 307.604 109.033 305.955C109.483 302.893 111.055 300.108 113.443 298.139C115.83 296.171 118.864 295.16 121.955 295.303C132.831 295.811 149.148 296.051 159.475 293.76" fill="white"/>
<g opacity="0.35">
<path d="M159.581 318.062C148.557 322.531 131.502 321.588 119.875 320.189C117.871 319.942 115.956 319.212 114.295 318.064C112.635 316.915 111.276 315.382 110.337 313.594C109.398 311.806 108.906 309.818 108.902 307.798C108.899 305.779 109.384 303.789 110.317 301.998C111.255 303.791 112.615 305.329 114.28 306.479C115.946 307.628 117.866 308.354 119.875 308.595C131.482 310.004 148.507 310.936 159.532 306.503L159.581 318.062Z" fill="#14081D"/>
</g>
<path d="M137.667 324.275C131.291 324.275 124.956 323.747 119.522 323.09C115.56 322.611 111.939 320.613 109.419 317.518C106.9 314.423 105.678 310.472 106.011 306.495C106.345 302.518 108.207 298.825 111.207 296.193C114.207 293.561 118.11 292.194 122.097 292.381C138.118 293.131 151.167 292.606 158.845 290.904C160.388 290.561 164.218 290.55 166.477 297.822C168.773 305.206 168.519 317.613 160.684 320.783C154.213 323.395 145.91 324.275 137.667 324.275ZM121.362 298.209C118.929 298.218 116.592 299.154 114.825 300.826C113.058 302.497 111.994 304.779 111.85 307.207C111.705 309.635 112.49 312.026 114.046 313.896C115.602 315.765 117.812 316.972 120.226 317.271C136.853 319.284 150.438 318.598 158.48 315.34C160.868 314.374 161.553 310.503 161.737 308.884C162.38 303.221 160.657 297.987 159.577 296.722C149.099 298.923 133.31 298.756 121.819 298.217C121.664 298.221 121.513 298.217 121.362 298.217V298.209Z" fill="#14081D"/>
<path d="M243.871 318.062C254.892 322.524 271.946 321.591 283.575 320.183C285.23 319.982 286.828 319.451 288.274 318.622C289.721 317.792 290.987 316.682 291.997 315.356C293.008 314.03 293.742 312.515 294.158 310.9C294.573 309.285 294.661 307.604 294.416 305.955C293.966 302.893 292.394 300.108 290.007 298.14C287.619 296.172 284.585 295.161 281.494 295.303C270.619 295.811 254.302 296.051 243.974 293.76" fill="white"/>
<g opacity="0.35">
<path d="M283.57 320.189C271.945 321.588 254.889 322.531 243.866 318.062L243.914 306.397C254.937 310.836 271.964 309.903 283.57 308.489C285.57 308.25 287.483 307.529 289.143 306.387C290.803 305.245 292.16 303.717 293.098 301.934C294.049 303.724 294.55 305.719 294.557 307.747C294.564 309.774 294.078 311.773 293.14 313.57C292.202 315.367 290.84 316.909 289.173 318.062C287.505 319.216 285.582 319.946 283.57 320.189Z" fill="#14081D"/>
</g>
<path d="M265.782 324.275C257.538 324.275 249.237 323.395 242.773 320.777C234.936 317.604 234.682 305.2 236.981 297.816C239.234 290.55 243.069 290.561 244.611 290.897C252.289 292.6 265.34 293.124 281.361 292.374C285.347 292.188 289.251 293.555 292.251 296.187C295.251 298.819 297.113 302.512 297.446 306.489C297.78 310.466 296.558 314.417 294.038 317.512C291.519 320.607 287.897 322.604 283.935 323.084C278.498 323.747 272.157 324.275 265.782 324.275ZM243.871 296.733C242.793 297.998 241.069 303.232 241.711 308.896C241.897 310.514 242.582 314.384 244.97 315.351C253.015 318.606 266.597 319.29 283.222 317.282C285.678 316.982 287.921 315.742 289.482 313.823C291.042 311.904 291.799 309.456 291.593 306.991C291.387 304.526 290.235 302.237 288.377 300.604C286.52 298.97 284.102 298.12 281.631 298.231C270.138 298.767 254.35 298.934 243.871 296.733Z" fill="#14081D"/>
<path d="M248.131 285.729V324.677C248.12 328.159 246.732 331.495 244.27 333.957C241.807 336.419 238.471 337.807 234.989 337.818H163.262C156.046 337.818 150.129 331.903 150.129 324.677V285.729C150.14 282.25 151.527 278.916 153.988 276.456C156.448 273.995 159.782 272.609 163.262 272.598H234.989C238.47 272.605 241.807 273.99 244.27 276.451C246.733 278.912 248.121 282.248 248.131 285.729Z" fill="white"/>
<g opacity="0.35">
<path d="M248.13 285.729V324.677C248.119 328.158 246.732 331.494 244.27 333.955C241.809 336.417 238.473 337.804 234.992 337.815H163.265C159.784 337.804 156.448 336.417 153.987 333.955C151.525 331.494 150.138 328.158 150.128 324.677V310.111C160.9 321.094 182.084 327.988 201.515 328.091C207.759 328.124 212.796 323.185 213.24 316.959L213.254 316.77C213.737 311.308 218.233 306.883 223.703 306.489C226.643 306.272 229.552 307.209 231.812 309.102C234.073 310.994 235.506 313.693 235.809 316.626C245.214 305.015 242.459 284.835 245.451 277.808C247.191 280.082 248.132 282.866 248.13 285.729Z" fill="#14081D"/>
</g>
<path d="M234.994 340.749H163.264C159.005 340.745 154.923 339.051 151.912 336.04C148.901 333.029 147.207 328.947 147.202 324.688V285.729C147.207 281.471 148.901 277.388 151.912 274.377C154.923 271.366 159.005 269.673 163.264 269.668H234.994C239.252 269.673 243.334 271.366 246.345 274.377C249.356 277.388 251.05 281.471 251.055 285.729V324.682C251.052 328.941 249.359 333.025 246.348 336.038C243.336 339.05 239.253 340.745 234.994 340.749ZM163.264 275.528C160.558 275.531 157.963 276.608 156.05 278.522C154.137 280.435 153.061 283.03 153.058 285.736V324.688C153.061 327.394 154.137 329.988 156.05 331.902C157.964 333.815 160.558 334.891 163.264 334.894H234.994C237.7 334.892 240.294 333.816 242.208 331.902C244.122 329.989 245.198 327.394 245.201 324.688V285.729C245.198 283.023 244.122 280.428 242.208 278.515C240.294 276.601 237.7 275.525 234.994 275.522L163.264 275.528Z" fill="#14081D"/>
<path d="M224.54 316.532C230.796 316.532 235.867 311.461 235.867 305.205C235.867 298.949 230.796 293.877 224.54 293.877C218.284 293.877 213.212 298.949 213.212 305.205C213.212 311.461 218.284 316.532 224.54 316.532Z" fill="#22A7F0"/>
<g opacity="0.7">
<path d="M235.866 305.205C235.868 305.965 235.794 306.723 235.645 307.469C235.125 304.907 233.735 302.603 231.711 300.949C229.686 299.295 227.152 298.391 224.538 298.391C221.924 298.391 219.39 299.295 217.366 300.949C215.342 302.603 213.952 304.907 213.431 307.469C213.116 305.917 213.129 304.317 213.471 302.771C213.812 301.225 214.473 299.767 215.412 298.492C216.351 297.218 217.547 296.154 218.922 295.37C220.298 294.585 221.822 294.098 223.397 293.939C224.973 293.78 226.564 293.953 228.068 294.447C229.572 294.94 230.957 295.744 232.131 296.805C233.306 297.867 234.245 299.163 234.889 300.609C235.532 302.056 235.865 303.621 235.866 305.205Z" fill="white"/>
</g>
<g opacity="0.35">
<path d="M235.864 305.203C235.829 308.183 234.62 311.029 232.5 313.124C230.38 315.219 227.52 316.394 224.539 316.394C221.559 316.394 218.698 315.219 216.578 313.124C214.458 311.029 213.25 308.183 213.214 305.203C213.211 303.8 213.475 302.408 213.991 301.103C214.817 303.229 216.266 305.056 218.149 306.344C220.031 307.632 222.258 308.321 224.539 308.321C226.82 308.321 229.047 307.632 230.93 306.344C232.812 305.056 234.261 303.229 235.087 301.103C235.604 302.408 235.867 303.8 235.864 305.203Z" fill="#14081D"/>
</g>
<path d="M224.54 318.727C221.867 318.727 219.254 317.934 217.031 316.449C214.808 314.964 213.076 312.853 212.053 310.383C211.03 307.914 210.762 305.196 211.284 302.574C211.805 299.952 213.093 297.544 214.983 295.654C216.873 293.764 219.281 292.477 221.903 291.955C224.525 291.434 227.242 291.701 229.712 292.724C232.182 293.747 234.293 295.479 235.778 297.702C237.263 299.925 238.056 302.538 238.056 305.211C238.05 308.794 236.624 312.229 234.091 314.762C231.557 317.295 228.123 318.721 224.54 318.727ZM224.54 296.073C222.734 296.073 220.968 296.609 219.467 297.612C217.965 298.616 216.795 300.042 216.104 301.71C215.413 303.379 215.232 305.215 215.584 306.986C215.937 308.757 216.806 310.384 218.083 311.661C219.36 312.938 220.987 313.808 222.758 314.16C224.53 314.513 226.366 314.332 228.034 313.641C229.703 312.95 231.129 311.779 232.132 310.278C233.136 308.776 233.671 307.011 233.671 305.205C233.668 302.784 232.705 300.463 230.993 298.751C229.282 297.039 226.961 296.076 224.54 296.073Z" fill="#14081D"/>
<path d="M192.442 340.011C191.859 340.011 191.301 339.78 190.889 339.368C190.477 338.957 190.246 338.398 190.245 337.816V311.143L175.901 300.344V272.595C175.893 272.301 175.944 272.009 176.051 271.736C176.157 271.463 176.318 271.214 176.522 271.003C176.727 270.793 176.972 270.626 177.242 270.512C177.512 270.398 177.803 270.339 178.096 270.339C178.39 270.339 178.68 270.398 178.951 270.512C179.221 270.626 179.466 270.793 179.67 271.003C179.875 271.214 180.035 271.463 180.142 271.736C180.249 272.009 180.3 272.301 180.292 272.595V298.147L194.636 308.947V337.816C194.636 338.398 194.405 338.956 193.993 339.368C193.582 339.78 193.024 340.011 192.442 340.011Z" fill="#14081D"/>
<path d="M200.535 358.787C213.224 358.787 225.425 354.077 234.955 345.699C248.149 334.095 270.379 320.255 294.907 329.126C304.748 332.685 311.456 339.214 316.03 346.442C327.814 319.137 352.537 317.501 363.235 332.976C363.235 332.976 345.25 418.784 339.388 420.692C330.991 423.427 310.815 420.552 310.815 420.552C310.815 420.552 240.62 411.063 200.535 411.063C160.449 411.063 90.2561 420.557 90.2561 420.557C90.2561 420.557 70.079 423.432 61.6815 420.697C55.8199 418.788 37.8359 332.981 37.8359 332.981C48.5343 317.506 73.2568 319.144 85.0396 346.447C89.6141 339.219 96.3221 332.69 106.164 329.131C130.692 320.252 152.914 334.091 166.115 345.704C175.645 354.082 187.846 358.791 200.535 358.791V358.787Z" fill="white"/>
<g opacity="0.35">
<path d="M363.237 332.981C363.237 332.981 345.25 418.79 339.388 420.7C330.994 423.435 310.812 420.562 310.812 420.562C310.812 420.562 240.619 411.063 200.533 411.063C160.448 411.063 90.2529 420.557 90.2529 420.557C90.2529 420.557 70.0774 423.432 61.6848 420.695C55.8231 418.785 37.8359 332.976 37.8359 332.976C39.5187 330.521 41.6579 328.412 44.1369 326.764C49.9036 351.922 58.0838 384.772 61.6848 385.944C70.0774 388.679 90.2529 385.797 90.2529 385.797C90.2529 385.797 160.453 366.785 200.533 366.785C240.614 366.785 310.812 385.802 310.812 385.802C310.812 385.802 330.994 388.677 339.388 385.948C342.987 384.777 351.169 351.927 356.936 326.769C359.415 328.417 361.554 330.526 363.237 332.981Z" fill="#14081D"/>
</g>
<path d="M72.5039 424.798C68.1016 424.798 63.8007 424.476 60.7757 423.484C58.713 422.813 56.9785 420.526 53.7218 410.386C51.8167 404.45 49.5384 396.185 46.9285 385.818C42.2431 367.153 37.6767 346.236 35.9309 338.096C35.017 333.837 36.4136 329.435 39.5721 326.605C45.643 321.173 53.7765 319.079 61.8892 320.865C67.0042 321.992 71.9793 324.661 76.277 328.589C79.8378 331.84 82.9335 335.903 85.5144 340.704C90.7517 334.021 97.3455 329.214 105.169 326.384C114.033 323.176 123.307 322.539 132.736 324.49C140.348 326.066 148.089 329.335 155.745 334.207C156.077 334.41 156.365 334.677 156.592 334.993C156.82 335.309 156.982 335.667 157.069 336.046C157.157 336.425 157.168 336.818 157.102 337.201C157.036 337.584 156.894 337.951 156.685 338.279C156.475 338.607 156.203 338.89 155.883 339.111C155.563 339.332 155.202 339.488 154.821 339.568C154.44 339.648 154.048 339.652 153.665 339.578C153.283 339.505 152.92 339.356 152.596 339.14C136.845 329.115 121.558 326.672 107.159 331.884C99.0365 334.822 92.4267 340.251 87.5112 348.014C87.2264 348.464 86.8242 348.828 86.3481 349.066C85.8719 349.304 85.3397 349.408 84.8089 349.367C84.2781 349.325 83.7687 349.139 83.3356 348.829C82.9025 348.52 82.5621 348.098 82.3511 347.609C77.4275 336.199 69.5095 328.535 60.6293 326.581C54.3783 325.205 48.1256 326.803 43.4756 330.965C41.8778 332.397 41.1779 334.666 41.6526 336.865C43.3002 344.54 47.6188 364.344 52.1112 382.438C54.5826 392.384 56.7773 400.475 58.6261 406.484C61.2166 414.901 62.5698 417.371 63.0509 418.058C69.6639 419.912 84.5377 418.415 89.8346 417.66H89.8555C90.5586 417.566 160.705 408.13 200.527 408.13C240.348 408.13 310.495 417.566 311.2 417.66H311.219C316.518 418.414 331.39 419.913 338.003 418.058C338.476 417.384 339.792 414.985 342.297 406.912C344.103 401.091 346.243 393.245 348.656 383.594C352.959 366.386 357.081 347.662 359.157 338.034C359.837 334.878 358.655 331.644 356.145 329.794C351.354 326.254 345.417 325.208 339.43 326.827C330.851 329.145 323.501 336.526 318.711 347.609C318.5 348.098 318.159 348.52 317.726 348.83C317.293 349.14 316.783 349.326 316.252 349.368C315.721 349.41 315.189 349.306 314.712 349.067C314.236 348.829 313.834 348.465 313.549 348.014C308.633 340.249 302.024 334.82 293.903 331.884C279.377 326.627 263.959 329.149 248.072 339.392C247.749 339.6 247.388 339.742 247.01 339.811C246.631 339.88 246.243 339.873 245.868 339.792C245.492 339.711 245.136 339.557 244.82 339.338C244.504 339.119 244.234 338.84 244.026 338.517C243.818 338.194 243.675 337.833 243.606 337.455C243.538 337.077 243.544 336.689 243.625 336.313C243.706 335.937 243.861 335.581 244.08 335.265C244.298 334.949 244.577 334.679 244.9 334.471C252.599 329.509 260.39 326.169 268.056 324.542C277.578 322.523 286.944 323.14 295.892 326.379C303.715 329.21 310.308 334.017 315.546 340.7C321.045 330.479 328.854 323.618 337.898 321.174C345.533 319.11 353.449 320.531 359.62 325.081C363.98 328.299 366.046 333.863 364.881 339.266C362.684 349.467 358.326 369.229 353.844 386.972C351.303 397.033 349.07 405.049 347.208 410.795C344.032 420.599 342.326 422.817 340.289 423.48C331.388 426.377 311.425 423.601 310.408 423.456C309.308 423.308 239.84 413.981 200.528 413.981C161.217 413.981 91.759 423.313 90.6504 423.456C89.9842 423.554 81.0558 424.798 72.5039 424.798Z" fill="#14081D"/>
<path d="M334.175 420.7H339.388C342.382 420.702 345.312 419.837 347.825 418.21C350.338 416.582 352.326 414.262 353.548 411.528C361.353 394.051 375.581 355.654 362.254 332.222C361.865 331.538 361.45 330.881 361.01 330.249C361.01 330.249 348.215 318.611 339.023 335.076C330.44 350.447 312.418 416.212 334.175 420.7Z" fill="#AFAFB2"/>
<g opacity="0.7">
<path d="M334.32 346.029C334.55 345.66 334.78 345.311 335.004 344.989C346.305 328.526 362.035 340.162 362.035 340.162C362.577 340.793 363.086 341.452 363.56 342.135C365.113 344.36 366.398 346.762 367.387 349.289C366.743 343.134 365.158 337.316 362.252 332.214C361.863 331.53 361.448 330.873 361.009 330.241C361.009 330.241 348.214 318.603 339.021 335.068C337.633 337.56 335.996 341.367 334.32 346.029Z" fill="white"/>
</g>
<path d="M367.322 351.047C367.188 351.047 367.054 351.037 366.922 351.015L334.941 345.676C334.628 345.624 334.329 345.511 334.06 345.343C333.791 345.175 333.558 344.956 333.373 344.698C333.189 344.44 333.058 344.148 332.986 343.839C332.915 343.53 332.905 343.21 332.957 342.897C333.009 342.585 333.122 342.285 333.29 342.016C333.458 341.747 333.677 341.514 333.935 341.33C334.193 341.146 334.485 341.014 334.794 340.943C335.103 340.871 335.423 340.861 335.736 340.914L367.721 346.252C368.317 346.353 368.854 346.674 369.225 347.151C369.596 347.628 369.774 348.227 369.724 348.83C369.675 349.432 369.401 349.994 368.957 350.404C368.513 350.815 367.932 351.043 367.327 351.046L367.322 351.047Z" fill="#14081D"/>
<path d="M367.118 368.325C367.01 368.325 366.903 368.318 366.796 368.304L329.382 363.276C329.067 363.233 328.765 363.13 328.491 362.97C328.216 362.811 327.976 362.599 327.784 362.347C327.592 362.095 327.451 361.808 327.37 361.501C327.289 361.195 327.269 360.875 327.311 360.561C327.353 360.247 327.457 359.944 327.616 359.67C327.775 359.396 327.987 359.156 328.239 358.964C328.491 358.771 328.779 358.63 329.085 358.549C329.392 358.468 329.711 358.448 330.025 358.49L367.436 363.52C368.044 363.601 368.598 363.909 368.987 364.384C369.375 364.858 369.569 365.462 369.528 366.074C369.487 366.686 369.214 367.259 368.766 367.677C368.318 368.095 367.728 368.327 367.115 368.326L367.118 368.325Z" fill="#14081D"/>
<path d="M363.818 385.248C363.719 385.249 363.62 385.243 363.522 385.231L325.549 380.582C325.235 380.544 324.931 380.444 324.655 380.288C324.379 380.132 324.136 379.923 323.941 379.673C323.746 379.423 323.602 379.137 323.517 378.832C323.432 378.527 323.408 378.207 323.447 377.893C323.486 377.578 323.586 377.274 323.742 376.998C323.898 376.722 324.107 376.48 324.356 376.285C324.606 376.09 324.892 375.945 325.197 375.861C325.503 375.776 325.822 375.752 326.136 375.791L364.109 380.439C364.719 380.513 365.278 380.818 365.672 381.29C366.065 381.762 366.264 382.366 366.227 382.98C366.19 383.593 365.92 384.17 365.473 384.591C365.026 385.013 364.434 385.248 363.82 385.248H363.818Z" fill="#14081D"/>
<path d="M357.795 403.705C357.721 403.705 357.649 403.705 357.575 403.696L323.625 400.631C322.987 400.573 322.399 400.265 321.988 399.773C321.578 399.281 321.38 398.647 321.438 398.01C321.496 397.372 321.804 396.783 322.296 396.373C322.787 395.963 323.422 395.765 324.059 395.823L358.009 398.88C358.628 398.936 359.202 399.228 359.611 399.695C360.02 400.163 360.232 400.77 360.205 401.391C360.177 402.012 359.911 402.598 359.463 403.027C359.014 403.457 358.417 403.697 357.795 403.697V403.705Z" fill="#14081D"/>
<g opacity="0.35">
<path d="M334.175 420.7H339.388C342.382 420.702 345.312 419.837 347.825 418.21C350.338 416.582 352.326 414.262 353.548 411.528C355.567 406.997 358.019 401.07 360.313 394.36C357.184 399.556 350.82 402.849 343.844 402.849H337.633C328.783 401.318 325.462 392.645 325.332 381.277C322.347 400.457 323.161 418.426 334.175 420.7Z" fill="#14081D"/>
</g>
<path d="M339.388 423.113H334.175C334.013 423.113 333.851 423.097 333.692 423.063C329.478 422.195 326.291 419.462 324.226 414.943C319.353 404.288 321.721 385.725 324.568 372.029C328.046 355.295 333.417 340.17 336.925 333.895C340.143 328.119 344.212 324.793 348.992 324.012C356.333 322.815 362.384 328.228 362.638 328.46C362.771 328.581 362.889 328.717 362.992 328.864C363.475 329.554 363.932 330.281 364.355 331.026C370.447 341.736 371.739 356.386 368.198 374.566C365.317 389.346 359.842 403.358 355.755 412.51C354.341 415.668 352.043 418.349 349.139 420.231C346.235 422.112 342.848 423.113 339.388 423.113ZM334.437 418.286H339.388C341.916 418.287 344.391 417.555 346.513 416.181C348.635 414.806 350.313 412.847 351.346 410.539C355.332 401.617 360.667 387.974 363.459 373.641C366.775 356.624 365.663 343.087 360.159 333.407C359.858 332.88 359.539 332.365 359.206 331.872C358.302 331.134 354.194 328.035 349.741 328.778C346.494 329.319 343.599 331.835 341.134 336.244C337.887 342.061 332.632 356.922 329.288 373.01C325.473 391.371 325.234 405.549 328.611 412.935C329.983 415.932 331.89 417.686 334.437 418.286Z" fill="#14081D"/>
<path d="M66.8964 420.7H61.6864C58.6926 420.702 55.7622 419.837 53.2495 418.21C50.7367 416.582 48.7492 414.261 47.5271 411.528C39.7233 394.051 25.4948 355.654 38.8223 332.222C39.2106 331.538 39.6246 330.881 40.0644 330.249C40.0644 330.249 52.8593 318.611 62.0516 335.076C70.6309 350.447 88.6519 416.212 66.8964 420.7Z" fill="#AFAFB2"/>
<g opacity="0.7">
<path d="M66.7516 346.029C66.5215 345.66 66.2914 345.311 66.0678 344.989C54.7644 328.526 39.0363 340.162 39.0363 340.162C38.4947 340.793 37.9856 341.452 37.511 342.135C35.9571 344.36 34.6722 346.761 33.6831 349.289C34.3267 343.134 35.9132 337.316 38.8191 332.214C39.2074 331.53 39.6214 330.873 40.0612 330.241C40.0612 330.241 52.8561 318.603 62.0485 335.068C63.437 337.56 65.075 341.367 66.7516 346.029Z" fill="white"/>
</g>
<path d="M33.7492 351.047C33.1447 351.046 32.5627 350.817 32.1185 350.407C31.6743 349.997 31.4002 349.435 31.3505 348.832C31.3007 348.23 31.4789 347.63 31.8498 347.153C32.2207 346.676 32.7573 346.355 33.3534 346.254L65.3342 340.91C65.9658 340.805 66.6134 340.955 67.1345 341.327C67.6556 341.699 68.0076 342.263 68.113 342.894C68.2184 343.526 68.0686 344.173 67.6965 344.695C67.3245 345.216 66.7607 345.568 66.1291 345.673L34.1483 351.012C34.0165 351.035 33.883 351.047 33.7492 351.047Z" fill="#14081D"/>
<path d="M33.9517 368.325C33.3387 368.326 32.7482 368.094 32.3001 367.676C31.852 367.257 31.5798 366.684 31.5388 366.073C31.4979 365.461 31.6912 364.857 32.0796 364.382C32.4679 363.908 33.0222 363.599 33.6299 363.519L71.0412 358.489C71.6757 358.404 72.3182 358.574 72.8273 358.962C73.3363 359.351 73.6702 359.925 73.7556 360.56C73.8409 361.194 73.6707 361.837 73.2824 362.346C72.894 362.855 72.3194 363.189 71.6848 363.274L34.2736 368.304C34.1669 368.318 34.0594 368.325 33.9517 368.325Z" fill="#14081D"/>
<path d="M37.2536 385.248C36.6388 385.248 36.0473 385.014 35.5997 384.592C35.1521 384.171 34.8822 383.594 34.845 382.981C34.8078 382.367 35.0062 381.762 35.3997 381.29C35.7932 380.818 36.3521 380.513 36.9623 380.439L74.9351 375.791C75.5706 375.713 76.2108 375.891 76.715 376.285C77.2192 376.68 77.5462 377.258 77.6238 377.894C77.7015 378.529 77.5235 379.169 77.1292 379.674C76.7348 380.178 76.1562 380.505 75.5208 380.582L37.548 385.231C37.4504 385.243 37.352 385.249 37.2536 385.248Z" fill="#14081D"/>
<path d="M43.2761 403.705C42.6549 403.705 42.0577 403.465 41.6089 403.035C41.1601 402.606 40.8942 402.02 40.8666 401.399C40.8391 400.778 41.0519 400.171 41.4608 399.703C41.8698 399.236 42.4434 398.944 43.0621 398.888L77.0124 395.831C77.6499 395.773 78.2842 395.972 78.7756 396.382C79.267 396.792 79.5753 397.381 79.6327 398.018C79.6901 398.656 79.4918 399.29 79.0816 399.782C78.6714 400.273 78.0827 400.581 77.4452 400.639L43.495 403.704C43.4209 403.702 43.3437 403.705 43.2761 403.705Z" fill="#14081D"/>
<g opacity="0.35">
<path d="M66.8965 420.7H61.6865C58.6927 420.702 55.7623 419.837 53.2496 418.21C50.7369 416.582 48.7493 414.261 47.5272 411.528C45.5094 406.997 43.0557 401.07 40.7693 394.36C43.8988 399.556 50.2625 402.849 57.2408 402.849H63.4532C72.3028 401.318 75.6238 392.645 75.7557 381.277C78.7308 400.457 77.9086 418.426 66.8965 420.7Z" fill="#14081D"/>
</g>
<path d="M66.8964 423.113H61.6864C58.2255 423.115 54.8382 422.114 51.9331 420.233C49.0281 418.352 46.7295 415.67 45.3147 412.512C41.2294 403.361 35.7523 389.351 32.8738 374.569C29.3339 356.387 30.6211 341.745 36.7161 331.028C37.1393 330.283 37.5978 329.555 38.0773 328.867C38.1801 328.719 38.2994 328.584 38.4329 328.463C38.6871 328.231 44.7387 322.819 52.079 324.016C56.8642 324.796 60.9286 328.122 64.1466 333.898C67.6543 340.173 73.0252 355.298 76.5022 372.032C79.3486 385.728 81.7187 404.291 76.8434 414.946C74.7774 419.466 71.5915 422.198 67.3791 423.067C67.2202 423.099 67.0585 423.114 66.8964 423.113ZM41.8633 331.882C41.5303 332.365 41.2197 332.886 40.9124 333.414C35.4064 343.095 34.2961 356.632 37.6107 373.649C40.404 387.982 45.7395 401.625 49.7234 410.545C50.7561 412.853 52.4347 414.813 54.5566 416.188C56.6786 417.563 59.1531 418.295 61.6816 418.294H66.6325C69.1796 417.694 71.0879 415.94 72.4588 412.943C75.8377 405.557 75.5964 391.382 71.7814 373.018C68.4379 356.928 63.1828 342.069 59.9358 336.252C57.4724 331.839 54.5762 329.333 51.3292 328.786C46.8835 328.038 42.7789 331.126 41.8633 331.874V331.882Z" fill="#14081D"/>
<path d="M125.744 418.497C125.366 418.497 124.995 418.399 124.665 418.213C124.336 418.028 124.06 417.76 123.865 417.436C123.67 417.113 123.561 416.744 123.55 416.366C123.538 415.988 123.625 415.614 123.801 415.279C132.972 397.765 133.103 378.067 124.203 356.737C117.49 340.646 107.878 329.638 107.781 329.528C107.396 329.092 107.2 328.52 107.237 327.939C107.273 327.358 107.539 326.815 107.975 326.43C108.412 326.045 108.984 325.849 109.565 325.885C110.146 325.922 110.688 326.187 111.073 326.624C111.484 327.089 121.201 338.198 128.203 354.923C132.335 364.79 134.639 374.553 135.056 383.947C135.577 395.755 133.099 406.981 127.691 417.314C127.506 417.671 127.227 417.97 126.883 418.178C126.54 418.387 126.146 418.497 125.744 418.497Z" fill="#14081D"/>
<path d="M276.218 418.497C275.817 418.498 275.423 418.389 275.08 418.181C274.737 417.973 274.457 417.675 274.271 417.319C268.863 406.986 266.387 395.759 266.907 383.952C267.322 374.56 269.626 364.795 273.758 354.928C280.761 338.203 290.477 327.092 290.888 326.629C291.273 326.192 291.816 325.927 292.397 325.89C292.978 325.854 293.549 326.05 293.986 326.435C294.422 326.82 294.688 327.363 294.724 327.944C294.761 328.525 294.565 329.097 294.18 329.533C294.083 329.643 284.471 340.653 277.758 356.742C268.859 378.072 268.995 397.772 278.16 415.284C278.336 415.619 278.423 415.993 278.412 416.371C278.4 416.748 278.292 417.117 278.097 417.441C277.901 417.764 277.626 418.032 277.297 418.218C276.968 418.404 276.596 418.502 276.218 418.502V418.497Z" fill="#14081D"/>
<g opacity="0.35">
<path d="M273.28 207.59C270.767 210.469 268.107 213.217 265.311 215.822C258.834 221.89 251.601 227.095 243.79 231.307C230.749 238.303 216.276 242.226 201.047 242.299C186.162 242.365 171.994 238.749 159.151 232.178C150.644 227.784 142.791 222.225 135.82 215.661C132.261 212.32 128.917 208.757 125.809 204.992C131.495 203.236 137.145 201.201 142.319 199.19C148.997 183.06 156.558 167.31 164.969 152.012H236.104C243.327 165.117 249.7 178.216 255.32 191.111C260.678 194.242 266.847 200.121 273.28 207.59Z" fill="#14081D"/>
</g>
<path d="M309.166 136.921C308.871 136.953 308.573 136.927 308.289 136.843C308.005 136.76 307.739 136.622 307.509 136.436C307.278 136.25 307.086 136.02 306.944 135.76C306.802 135.5 306.713 135.214 306.682 134.919L299.739 70.3107C299.707 70.016 299.733 69.7178 299.816 69.4333C299.9 69.1487 300.039 68.8835 300.225 68.6526C300.411 68.4218 300.641 68.23 300.901 68.0883C301.161 67.9465 301.447 67.8575 301.742 67.8264C304.833 67.4935 307.959 67.7727 310.941 68.6481C313.924 69.5235 316.705 70.9779 319.126 72.9282C321.546 74.8786 323.559 77.2866 325.049 80.0149C326.538 82.7432 327.476 85.7382 327.808 88.8289L330.177 110.861C330.509 113.952 330.228 117.078 329.352 120.06C328.476 123.043 327.021 125.823 325.069 128.243C323.118 130.663 320.71 132.675 317.981 134.164C315.252 135.653 312.257 136.59 309.166 136.921Z" fill="white"/>
<path d="M308.92 137.491C308.227 137.489 307.559 137.232 307.045 136.768C306.53 136.305 306.204 135.668 306.13 134.979L299.187 70.3705C299.148 70.0032 299.181 69.6318 299.285 69.2774C299.389 68.923 299.562 68.5925 299.793 68.3049C300.025 68.0173 300.311 67.7781 300.635 67.6011C300.96 67.4241 301.315 67.3126 301.683 67.2731C314.963 65.8459 326.928 75.4903 328.355 88.7696L330.722 110.802C331.408 117.189 329.529 123.588 325.497 128.59C321.466 133.592 315.613 136.788 309.226 137.474L309.166 136.921L309.226 137.474C309.124 137.485 309.022 137.491 308.92 137.491ZM304.288 68.2449C303.457 68.2454 302.627 68.2905 301.802 68.3801C301.58 68.4038 301.364 68.471 301.168 68.5778C300.972 68.6847 300.799 68.8292 300.659 69.003C300.519 69.1767 300.415 69.3765 300.352 69.5907C300.289 69.8049 300.269 70.0294 300.292 70.2514L307.235 134.86C307.284 135.308 307.508 135.719 307.859 136.002C308.209 136.285 308.658 136.417 309.107 136.369C315.201 135.714 320.786 132.665 324.632 127.893C328.478 123.12 330.271 117.015 329.617 110.921L327.248 88.8886C325.977 77.0527 315.932 68.2449 304.288 68.2449Z" fill="#14081D"/>
<g opacity="0.35">
<path d="M329.06 100.523L330.172 110.856C330.841 117.098 329.005 123.351 325.066 128.239C321.127 133.127 315.408 136.25 309.166 136.922C308.871 136.955 308.572 136.929 308.288 136.845C308.003 136.762 307.737 136.623 307.506 136.436C307.275 136.25 307.083 136.019 306.941 135.759C306.8 135.498 306.711 135.211 306.68 134.916L304.83 117.74C305.048 118.115 305.371 118.42 305.758 118.617C306.145 118.814 306.581 118.896 307.013 118.852L308.545 118.691C313.427 118.167 318.025 116.136 321.702 112.881C325.378 109.625 327.949 105.306 329.06 100.523Z" fill="#14081D"/>
</g>
<path d="M308.915 140.031C307.597 140.028 306.326 139.538 305.346 138.656C304.367 137.774 303.747 136.561 303.605 135.251L296.664 70.6407C296.513 69.2297 296.928 67.8164 297.818 66.7114C298.708 65.6064 300.001 64.9004 301.412 64.7485C316.083 63.1716 329.305 73.8266 330.881 88.4992L333.25 110.53C334.008 117.587 331.931 124.657 327.477 130.183C323.023 135.709 316.556 139.24 309.499 139.999C309.305 140.02 309.11 140.031 308.915 140.031ZM302.909 70.8322L309.666 133.745C314.919 132.961 319.665 130.178 322.912 125.976C326.159 121.774 327.656 116.479 327.089 111.199L324.72 89.1685C324.149 83.8899 321.562 79.0359 317.497 75.6193C313.433 72.2028 308.207 70.4878 302.909 70.8322Z" fill="#14081D"/>
<path d="M88.4831 90.7436C88.778 90.711 89.0764 90.737 89.3612 90.8201C89.646 90.9031 89.9116 91.0416 90.1428 91.2276C90.3739 91.4136 90.566 91.6434 90.7081 91.9038C90.8502 92.1643 90.9394 92.4502 90.9707 92.7452L97.9136 157.354C97.9457 157.648 97.9194 157.946 97.8361 158.231C97.7529 158.515 97.6143 158.78 97.4284 159.011C97.2424 159.242 97.0128 159.434 96.7525 159.576C96.4923 159.718 96.2067 159.807 95.912 159.838C92.8213 160.171 89.6954 159.892 86.7127 159.016C83.73 158.141 80.9489 156.687 78.5284 154.736C76.1078 152.786 74.0952 150.378 72.6055 147.65C71.1157 144.921 70.178 141.926 69.8459 138.836L67.479 116.803C67.147 113.713 67.427 110.588 68.3029 107.606C69.1788 104.623 70.6335 101.843 72.5839 99.4233C74.5343 97.0034 76.9423 94.9914 79.6703 93.5022C82.3983 92.0129 85.3929 91.0755 88.4831 90.7436Z" fill="white"/>
<path d="M93.36 160.54C81.154 160.54 70.6278 151.309 69.2939 138.903L66.927 116.871C65.4998 103.59 75.1427 91.6254 88.4235 90.1982L88.4831 90.7517L88.4235 90.1982C89.1648 90.1197 89.9069 90.3383 90.4872 90.8061C91.0675 91.2739 91.4387 91.9527 91.5193 92.6937L98.4622 157.302C98.5411 158.044 98.3227 158.786 97.8548 159.367C97.387 159.948 96.7079 160.319 95.9666 160.4C95.1008 160.492 94.2307 160.539 93.36 160.54ZM88.718 91.2859C88.6567 91.2859 88.5955 91.2892 88.5345 91.2955C75.8651 92.6567 66.6648 104.073 68.026 116.744L70.3929 138.776C71.7541 151.445 83.1685 160.647 95.8411 159.284C96.2891 159.236 96.6996 159.012 96.9825 158.661C97.2654 158.31 97.3977 157.861 97.3503 157.413L90.4139 92.7999C90.3671 92.3831 90.1683 91.9981 89.8553 91.7187C89.5424 91.4393 89.1374 91.2852 88.718 91.2859Z" fill="#14081D"/>
<g opacity="0.35">
<path d="M95.9876 139.429L97.9184 157.354C97.9505 157.649 97.924 157.947 97.8404 158.232C97.7569 158.517 97.6179 158.782 97.4314 159.013C97.245 159.244 97.0148 159.435 96.754 159.577C96.4932 159.719 96.2071 159.807 95.9119 159.838C92.822 160.171 89.6966 159.893 86.7144 159.018C83.7322 158.143 80.9517 156.689 78.5318 154.738C76.112 152.788 74.1001 150.38 72.6114 147.652C71.1227 144.924 70.1862 141.929 69.8555 138.839L68.8579 129.555C71.1679 133.473 74.5577 136.643 78.6219 138.685C82.6861 140.727 87.2526 141.555 91.7751 141.07L94.134 140.818C94.5387 140.773 94.9241 140.62 95.25 140.376C95.576 140.132 95.8306 139.805 95.9876 139.429Z" fill="#14081D"/>
</g>
<path d="M93.3584 163.071C79.8716 163.071 68.2417 152.873 66.7694 139.165L64.4009 117.135C62.8241 102.462 73.479 89.2425 88.1516 87.6657C89.5623 87.5159 90.9747 87.9317 92.0793 88.8218C93.1838 89.7119 93.8903 91.0037 94.0439 92.4139L100.987 157.024C101.137 158.435 100.721 159.847 99.8307 160.952C98.9406 162.056 97.6488 162.763 96.2386 162.916C95.282 163.019 94.3205 163.071 93.3584 163.071ZM87.9795 93.9264C82.7298 94.7145 77.9871 97.4992 74.741 101.7C71.4949 105.9 69.996 111.192 70.557 116.47L72.9255 138.503C73.4967 143.781 76.0846 148.636 80.1491 152.052C84.2135 155.469 89.4405 157.184 94.739 156.839L87.9795 93.9264Z" fill="#14081D"/>
<path d="M198.837 224.564C259.993 224.564 309.57 174.987 309.57 113.831C309.57 52.6755 259.993 3.09888 198.837 3.09888C137.682 3.09888 88.105 52.6755 88.105 113.831C88.105 174.987 137.682 224.564 198.837 224.564Z" fill="white"/>
<path d="M198.73 225.122C169.192 225.121 140.85 213.456 119.869 192.665C98.8882 171.875 86.9656 143.64 86.6953 114.104C86.4249 84.5679 97.8285 56.1198 118.425 34.9484C139.022 13.7771 167.146 1.59542 196.678 1.05343C226.211 0.511448 254.763 11.653 276.123 32.0543C297.482 52.4557 309.922 80.4662 310.736 109.992C311.549 139.519 300.671 168.172 280.467 189.718C260.263 211.265 232.368 223.962 202.85 225.047C201.473 225.097 200.099 225.122 198.73 225.122ZM198.891 3.65244C197.552 3.65244 196.216 3.67657 194.868 3.72484C134.155 5.91632 86.5442 57.0911 88.734 117.804C89.796 147.215 102.25 174.451 123.791 194.498C144.342 213.616 170.821 224.01 198.741 224.01C200.096 224.01 201.453 223.986 202.812 223.938C232.221 222.876 259.459 210.422 279.504 188.879C299.549 167.336 310.006 139.27 308.949 109.86C306.801 50.4957 257.826 3.66048 198.889 3.66048L198.891 3.65244Z" fill="#14081D"/>
<g opacity="0.35">
<path d="M307.885 94.5587C308.777 99.6102 309.315 104.718 309.494 109.844C311.691 170.96 263.937 222.29 202.817 224.5C141.696 226.709 90.3704 178.942 88.1596 117.822C88.0952 116.065 88.0727 114.305 88.0936 112.568C97.4983 166.168 145.214 205.975 201.135 203.961C260.505 201.816 307.25 153.338 307.885 94.5587Z" fill="#14081D"/>
</g>
<path d="M198.728 227.661C168.581 227.647 139.659 215.729 118.254 194.5C96.8495 173.27 84.6933 144.448 84.4301 114.302C84.167 84.1562 95.8182 55.1259 116.849 33.5264C137.88 11.9268 166.589 -0.494476 196.731 -1.0354C226.874 -1.57632 256.01 9.80688 277.802 30.6379C299.595 51.469 312.28 80.0626 313.099 110.198C313.917 140.334 302.803 169.574 282.174 191.558C261.544 213.541 233.069 226.49 202.942 227.586C201.535 227.636 200.13 227.661 198.728 227.661ZM198.889 6.19318C197.581 6.19318 196.274 6.21571 194.956 6.26398C135.645 8.40397 89.1314 58.3961 91.2698 117.711C92.3076 146.443 104.464 173.061 125.521 192.636C145.597 211.314 171.465 221.47 198.741 221.47C200.063 221.47 201.389 221.446 202.718 221.398C231.451 220.361 258.059 208.204 277.644 187.148C297.229 166.092 307.441 138.683 306.405 109.951C304.313 51.9552 256.459 6.19318 198.889 6.19318Z" fill="#14081D"/>
<path d="M309.248 112.694C310.355 134.334 304.36 154.784 293.197 172.023C284.83 184.947 248.92 208.654 203.22 211.405C160.847 213.957 121.119 193.33 111.473 181.33C98.6006 165.322 90.5555 145.59 89.4469 123.951C86.5136 66.6824 134.499 40.4233 195.198 37.3147C255.896 34.2061 306.315 55.4274 309.248 112.694Z" fill="#14081D"/>
<path d="M195.867 213.753C174.789 213.753 156.472 208.501 144.308 203.809C128.905 197.869 115.366 189.568 109.815 182.662C96.195 165.716 88.4154 145.45 87.3213 124.058C86.5956 109.864 88.9303 96.9835 94.2771 85.7751C99.3036 75.228 107.017 66.0904 117.197 58.6084C135.806 44.9447 162.733 36.8465 195.087 35.1908C227.441 33.5351 255.055 38.8384 274.96 50.5296C285.855 56.9286 294.461 65.2328 300.543 75.2119C307.002 85.8169 310.645 98.3817 311.372 112.585C312.468 133.984 306.799 154.931 294.983 173.178C290.073 180.762 277.879 190.054 263.161 197.43C250.231 203.909 229.36 211.962 203.347 213.529C200.821 213.681 198.328 213.755 195.867 213.753ZM206.511 39.1474C202.848 39.1474 199.113 39.2445 195.307 39.4386C163.791 41.0476 137.655 48.8675 119.719 62.0373C99.6946 76.7421 90.2239 97.537 91.5707 123.841C92.6198 144.334 100.076 163.745 113.132 179.996C117.016 184.823 127.912 192.926 145.84 199.838C159.034 204.924 179.664 210.691 203.092 209.282C228.385 207.758 248.681 199.927 261.254 193.626C278.102 185.182 288.03 176.088 291.412 170.865C302.74 153.371 308.172 133.294 307.123 112.8C305.776 86.4959 294.231 66.7822 272.809 54.1965C255.94 44.2898 233.18 39.1474 206.511 39.1474Z" fill="#14081D"/>
<g opacity="0.5">
<path d="M287.791 109.694C289.198 98.98 284.045 89.4678 276.281 88.4483C268.517 87.4288 261.083 95.2881 259.676 106.003C258.269 116.717 263.422 126.229 271.186 127.249C278.95 128.268 286.384 120.409 287.791 109.694Z" fill="white"/>
</g>
<g opacity="0.5">
<path d="M262.816 149.457C264.107 144.688 261.837 139.924 257.745 138.816C253.652 137.707 249.288 140.675 247.996 145.444C246.705 150.212 248.975 154.977 253.068 156.085C257.16 157.193 261.524 154.226 262.816 149.457Z" fill="white"/>
</g>
<g opacity="0.35">
<path d="M285.137 60.3639C299.229 72.4959 308.065 89.6898 309.247 112.691C310.355 134.335 304.355 154.784 293.2 172.023C284.833 184.947 248.916 208.652 203.219 211.409C187.082 212.385 171.334 209.994 157.479 205.994C213.581 201.407 257.312 172.329 267.697 156.3C281.866 134.417 289.475 108.462 288.064 80.9979C287.731 74.0439 286.751 67.1361 285.137 60.3639Z" fill="#111A28"/>
</g>
<path d="M95.2232 77.6752C94.685 77.6751 94.1568 77.5292 93.6949 77.2529C93.2329 76.9766 92.8545 76.5803 92.5998 76.1061C92.3452 75.6319 92.2237 75.0976 92.2485 74.5599C92.2733 74.0222 92.4433 73.5013 92.7405 73.0525C97.3358 65.503 103.199 58.6052 110.182 52.5472C116.976 46.6518 124.874 41.5045 133.663 37.2503C142.266 33.0845 151.775 29.7474 161.925 27.3307C171.981 24.9365 182.72 23.4337 193.841 22.8625C204.783 22.3025 215.496 22.6806 225.7 23.9888C235.998 25.3049 245.779 27.5672 254.785 30.7145C263.999 33.9325 272.431 38.0918 279.845 43.0717C287.465 48.1916 294.059 54.2125 299.443 60.9704C299.944 61.5213 300.22 62.2399 300.218 62.9846C300.215 63.7293 299.934 64.446 299.429 64.9935C298.924 65.541 298.233 65.8794 297.491 65.9422C296.749 66.0049 296.01 65.7874 295.42 65.3324L295.108 65.1007L294.873 64.8015C274.939 39.6751 238.223 26.5584 194.149 28.8142C149.819 31.0829 114.697 48.3638 97.7831 76.2271L97.7059 76.3542L97.6045 76.4894C97.3269 76.8584 96.9672 77.1576 96.5539 77.3634C96.1406 77.5693 95.685 77.676 95.2232 77.6752Z" fill="#14081D"/>
<g opacity="0.5">
<path d="M115.872 156.754C115.872 156.754 95.2426 101.167 124.536 77.096C153.83 53.0252 197.639 50.8691 196.759 53.7331C196.759 53.7331 148.865 67.9568 131.854 107.265C118.738 137.577 115.872 156.754 115.872 156.754Z" fill="white"/>
</g>
<path d="M318.352 347.113C318.286 347.596 318.191 348.124 318.096 348.627C318.001 349.131 317.89 349.641 317.774 350.148C317.552 351.158 317.306 352.165 317.047 353.168C316.535 355.176 315.937 357.166 315.372 359.169C314.807 361.173 314.262 363.181 313.733 365.206L313.35 366.727C313.213 367.237 313.095 367.745 312.973 368.257L312.788 369.026L312.693 369.412L312.609 369.799C312.502 370.316 312.383 370.835 312.252 371.358V371.375C312.233 371.453 312.188 371.522 312.125 371.571C312.061 371.62 311.983 371.645 311.902 371.643C311.822 371.641 311.745 371.612 311.684 371.56C311.623 371.508 311.582 371.436 311.567 371.358C311.348 370.294 311.187 369.22 311.084 368.14L311 367.335C310.976 367.065 310.967 366.795 310.951 366.531C310.923 365.99 310.891 365.446 310.877 364.904C310.837 362.741 310.906 360.578 311.084 358.423C311.249 356.277 311.534 354.142 311.935 352.027C312.141 350.973 312.383 349.935 312.671 348.891C312.815 348.375 312.968 347.858 313.139 347.346C313.309 346.835 313.49 346.333 313.708 345.807C313.935 345.262 314.351 344.818 314.881 344.558C315.41 344.297 316.016 344.239 316.586 344.393C317.155 344.547 317.65 344.902 317.976 345.394C318.302 345.885 318.439 346.479 318.36 347.063L318.352 347.113Z" fill="#14081D"/>
<path d="M87.5693 345.787C87.7881 346.313 87.9683 346.812 88.1389 347.327C88.3094 347.842 88.4607 348.355 88.6055 348.872C88.8951 349.908 89.1365 350.954 89.3408 352.008C89.7438 354.122 90.0285 356.257 90.1936 358.404C90.3642 360.555 90.4462 362.719 90.4011 364.885C90.3867 365.427 90.3545 365.971 90.3271 366.511C90.311 366.782 90.3014 367.052 90.2772 367.316L90.1936 368.12C90.0906 369.201 89.9295 370.275 89.7109 371.338C89.696 371.417 89.6545 371.488 89.5935 371.54C89.5324 371.592 89.4554 371.622 89.3753 371.624C89.2952 371.626 89.2168 371.6 89.1531 371.552C89.0895 371.503 89.0444 371.434 89.0254 371.356V371.338C88.8967 370.816 88.7776 370.296 88.6682 369.779L88.5846 369.393L88.488 369.007L88.3046 368.238C88.1823 367.726 88.0649 367.218 87.9281 366.708L87.5451 365.187C87.0158 363.161 86.4623 361.153 85.9056 359.15C85.3488 357.147 84.7422 355.157 84.2306 353.149C83.9715 352.146 83.7253 351.139 83.5017 350.128C83.3939 349.622 83.2829 349.116 83.1799 348.608C83.0769 348.099 82.99 347.583 82.9241 347.094V347.028C82.8454 346.444 82.9819 345.851 83.308 345.36C83.6341 344.869 84.1276 344.513 84.6966 344.359C85.2656 344.205 85.8712 344.263 86.4006 344.522C86.93 344.781 87.3471 345.224 87.5741 345.768L87.5693 345.787Z" fill="#14081D"/>
<path d="M97.9198 408.925H304.072C305.831 408.925 307.519 409.624 308.763 410.868C310.007 412.112 310.706 413.8 310.706 415.559C310.706 418.613 309.493 421.541 307.333 423.701C305.174 425.86 302.245 427.073 299.192 427.073H102.802C99.7479 427.073 96.8192 425.86 94.6599 423.701C92.5006 421.541 91.2875 418.613 91.2875 415.559C91.2875 413.8 91.9862 412.113 93.23 410.869C94.4737 409.625 96.1607 408.925 97.9198 408.925Z" fill="#803EF9"/>
<g opacity="0.3">
<path d="M310.703 415.559C310.703 416.782 310.508 417.997 310.125 419.158C309.605 417.988 308.756 416.994 307.682 416.296C306.608 415.599 305.354 415.228 304.073 415.229H97.9231C96.6422 415.232 95.3893 415.604 94.3146 416.301C93.2399 416.998 92.3889 417.99 91.8635 419.158C91.4805 417.997 91.2855 416.782 91.2859 415.559C91.2876 413.799 91.9874 412.112 93.2318 410.868C94.4761 409.623 96.1633 408.923 97.9231 408.922H304.073C304.945 408.922 305.807 409.094 306.612 409.427C307.417 409.761 308.148 410.25 308.764 410.866C309.38 411.483 309.868 412.214 310.2 413.02C310.533 413.825 310.704 414.688 310.703 415.559Z" fill="white"/>
</g>
<g opacity="0.35">
<path d="M310.703 415.559C310.7 418.611 309.487 421.538 307.328 423.696C305.17 425.854 302.244 427.067 299.192 427.07H102.805C101.293 427.071 99.7952 426.773 98.3979 426.195C97.0005 425.617 95.7308 424.769 94.6612 423.7C93.5915 422.632 92.7429 421.362 92.1638 419.965C91.5846 418.569 91.2863 417.071 91.2859 415.559C91.283 414.377 91.5993 413.216 92.2014 412.199C93.0842 414.281 94.5605 416.057 96.4463 417.305C98.332 418.554 100.543 419.219 102.805 419.218H299.192C301.452 419.216 303.661 418.549 305.545 417.301C307.429 416.053 308.905 414.279 309.789 412.199C310.39 413.217 310.705 414.377 310.703 415.559Z" fill="#14081D"/>
</g>
<path d="M299.192 430H102.8C98.9715 429.995 95.3011 428.472 92.594 425.765C89.8868 423.058 88.3638 419.388 88.3591 415.559C88.3621 413.024 89.3704 410.594 91.1627 408.802C92.9551 407.01 95.3851 406.001 97.9199 405.998H304.072C306.607 406.001 309.037 407.009 310.83 408.801C312.622 410.594 313.63 413.024 313.633 415.559C313.628 419.388 312.105 423.058 309.398 425.765C306.691 428.472 303.02 429.995 299.192 430ZM97.9199 411.852C96.9392 411.854 95.9994 412.245 95.3059 412.939C94.6124 413.632 94.2217 414.572 94.2192 415.553C94.2217 417.829 95.1271 420.011 96.7367 421.621C98.3463 423.23 100.529 424.136 102.805 424.138H299.192C301.468 424.136 303.651 423.23 305.261 421.621C306.87 420.011 307.776 417.829 307.779 415.553C307.776 414.572 307.385 413.632 306.692 412.939C305.999 412.246 305.059 411.855 304.078 411.852H97.9199Z" fill="#14081D"/>
<path d="M322.17 279.295L302.96 408.922H99.035L98.3399 404.23L79.8185 279.295C79.6757 278.329 79.7425 277.344 80.0145 276.407C80.2865 275.47 80.7572 274.602 81.3947 273.863C82.0322 273.124 82.8214 272.531 83.7086 272.125C84.5958 271.718 85.5602 271.507 86.5362 271.507H315.453C316.429 271.507 317.393 271.717 318.281 272.123C319.168 272.53 319.958 273.123 320.595 273.862C321.233 274.601 321.704 275.469 321.975 276.406C322.247 277.344 322.314 278.329 322.17 279.295Z" fill="#FF66AC"/>
<path d="M322.17 279.295L302.96 408.922H99.035L98.3399 404.23L79.8185 279.295C79.6757 278.329 79.7425 277.344 80.0145 276.407C80.2865 275.47 80.7572 274.602 81.3947 273.863C82.0322 273.124 82.8214 272.531 83.7086 272.125C84.5958 271.718 85.5602 271.507 86.5362 271.507H315.453C316.429 271.507 317.393 271.717 318.281 272.123C319.168 272.53 319.958 273.123 320.595 273.862C321.233 274.601 321.704 275.469 321.975 276.406C322.247 277.344 322.314 278.329 322.17 279.295Z" fill="#803EF9"/>
<g opacity="0.5">
<path d="M87.0591 287.34C86.9162 286.374 86.9831 285.389 87.2551 284.452C87.5271 283.515 87.9978 282.647 88.6353 281.908C89.2727 281.169 90.0619 280.576 90.9492 280.17C91.8364 279.763 92.8008 279.552 93.7767 279.552H322.132L322.17 279.295C322.314 278.329 322.247 277.344 321.975 276.406C321.704 275.469 321.233 274.601 320.595 273.862C319.958 273.123 319.168 272.53 318.281 272.123C317.393 271.717 316.429 271.507 315.453 271.507H86.5362C85.5602 271.507 84.5958 271.718 83.7086 272.125C82.8214 272.531 82.0322 273.124 81.3947 273.863C80.7572 274.602 80.2865 275.47 80.0145 276.407C79.7425 277.344 79.6757 278.329 79.8185 279.295L98.3399 404.23L99.0366 408.922H105.083L87.0591 287.34Z" fill="white"/>
</g>
<g opacity="0.35">
<path d="M309.016 271.507H292.942C299.037 293.838 295.678 344.26 256.353 370.622C206.992 403.702 118.033 403.493 99.1523 404.238L99.8491 408.93H296.524L315.734 279.303C315.879 278.337 315.813 277.351 315.542 276.412C315.271 275.474 314.8 274.605 314.163 273.865C313.525 273.125 312.735 272.531 311.847 272.124C310.959 271.717 309.993 271.507 309.016 271.507Z" fill="#14081D"/>
</g>
<path d="M305.483 411.852H96.5103L76.9253 279.721C76.7204 278.34 76.8157 276.93 77.2048 275.589C77.5938 274.248 78.2674 273.006 79.1797 271.949C80.0919 270.892 81.2214 270.043 82.4912 269.462C83.7609 268.881 85.1411 268.58 86.5376 268.58H315.456C316.852 268.58 318.232 268.881 319.501 269.463C320.771 270.044 321.9 270.892 322.812 271.95C323.725 273.007 324.398 274.248 324.787 275.59C325.176 276.931 325.271 278.34 325.066 279.721L305.483 411.852ZM101.561 405.998H300.435L319.279 278.862C319.36 278.313 319.322 277.753 319.168 277.22C319.013 276.687 318.745 276.193 318.383 275.773C318.02 275.353 317.571 275.016 317.067 274.785C316.562 274.554 316.014 274.434 315.459 274.434H86.5376C85.9825 274.434 85.4339 274.553 84.9291 274.784C84.4243 275.015 83.9753 275.352 83.6126 275.773C83.2499 276.193 82.9821 276.686 82.8274 277.219C82.6727 277.753 82.6348 278.313 82.7162 278.862L101.561 405.998Z" fill="#14081D"/>
<g opacity="0.3">
<path d="M115.267 378.635C107.531 361.58 101.899 332.474 103.167 315.343C104.435 298.212 114.372 303.454 117.452 325.398C125.648 383.799 118.721 386.249 115.267 378.635Z" fill="white"/>
</g>
<path d="M321.157 286.133C321.157 286.133 305.353 278.633 290.511 285.361C276.3 291.797 266.246 337.671 284.658 349.29C296.022 356.461 303.758 350.125 310.188 351.985C319.726 354.748 339.292 307.517 321.157 286.133Z" fill="white"/>
<g opacity="0.35">
<path d="M328.288 315.982C326.415 335.205 316.265 353.741 310.191 351.985C303.755 350.127 296.032 356.463 284.659 349.292C275.863 343.737 273.565 330.376 275.118 317.218C276.164 324.894 279.127 331.473 284.659 334.963C296.024 342.128 303.591 338.798 310.191 337.657C318.35 336.244 325.002 327.332 328.288 315.982Z" fill="#14081D"/>
</g>
<path d="M296.312 355.723C292.477 355.723 288.04 354.885 283.095 351.765C278.669 348.972 275.473 344.452 273.594 338.333C272.017 333.195 271.428 326.936 271.89 320.233C272.436 312.291 274.387 304.143 277.386 297.295C279.678 292.061 283.605 285.279 289.303 282.695C305.198 275.491 321.716 283.158 322.412 283.488L322.981 283.758L323.39 284.241C331.689 294.028 332.169 307.547 331.113 317.165C329.919 328.001 326.095 339.498 321.137 347.165C316.18 354.832 312.003 355.556 309.391 354.799C307.694 354.317 305.549 354.651 303.065 355.049C301.082 355.363 298.827 355.723 296.312 355.723ZM304.035 285.478C299.586 285.478 295.462 286.329 291.716 288.027C288.633 289.425 285.364 293.658 282.745 299.642C280.048 305.802 278.218 313.453 277.724 320.634C276.852 333.317 279.946 342.859 286.215 346.814C292.534 350.801 297.406 350.021 302.119 349.268C305.165 348.785 308.041 348.318 310.997 349.174C311.335 349.232 313.773 348.293 317.208 342.342C325.219 328.463 330.301 302.254 319.34 288.535C316.562 287.41 313.671 286.586 310.717 286.077C308.513 285.686 306.279 285.486 304.04 285.478H304.035Z" fill="#14081D"/>
<path d="M365.353 119.173C359.515 113.146 355.823 105.363 354.849 97.0285C352.357 75.9809 367.4 56.898 388.445 54.4056C409.491 51.9132 428.576 66.9559 431.068 88.0019C433.561 109.048 418.518 128.132 397.472 130.625C391.815 131.302 386.079 130.705 380.682 128.879L364.22 136.644L365.353 119.173Z" fill="#FCA311"/>
<g opacity="0.5">
<path d="M389.308 61.7347C369.646 64.0629 355.231 80.8691 355.448 100.23C355.143 98.8974 354.908 97.5493 354.743 96.1918C352.251 75.1442 367.293 56.0613 388.341 53.5689C409.388 51.0766 428.47 66.1193 430.964 87.1652C431.123 88.5294 431.211 89.9012 431.226 91.2746C426.923 72.3896 408.975 59.4064 389.308 61.7347Z" fill="white"/>
</g>
<path d="M364.215 139.462C363.83 139.462 363.449 139.383 363.096 139.23C362.742 139.077 362.424 138.853 362.16 138.572C361.897 138.291 361.694 137.959 361.564 137.596C361.434 137.234 361.38 136.848 361.404 136.464L362.465 120.213C355.775 112.839 351.986 103.29 351.802 93.3353C351.618 83.381 355.051 73.6978 361.464 66.082C367.877 58.4663 376.834 53.4351 386.675 51.9218C396.515 50.4084 406.57 52.5157 414.975 57.8526C423.38 63.1896 429.564 71.3939 432.379 80.9435C435.195 90.4932 434.451 100.74 430.285 109.783C426.12 118.826 418.816 126.051 409.729 130.118C400.641 134.185 390.387 134.818 380.869 131.899L365.422 139.19C365.045 139.369 364.633 139.462 364.215 139.462ZM392.983 56.9528C391.577 56.9532 390.172 57.0365 388.775 57.2022C382.197 57.9805 375.967 60.5807 370.787 64.7099C365.607 68.8391 361.684 74.333 359.459 80.5725C357.234 86.8119 356.797 93.5487 358.195 100.024C359.594 106.498 362.774 112.454 367.375 117.219C367.649 117.501 367.86 117.837 367.995 118.206C368.131 118.575 368.188 118.968 368.162 119.36L367.335 132.06L379.467 126.332C380.126 126.021 380.88 125.978 381.57 126.211C386.57 127.906 391.887 128.456 397.128 127.82C416.597 125.515 430.565 107.798 428.259 88.3255C426.129 70.2739 410.734 56.9528 392.983 56.9528Z" fill="#14081D"/>
<g opacity="0.3">
<path d="M365.063 118.866C377.263 125.246 392.244 125.883 405.495 119.249C420.19 111.893 429.004 97.4758 429.91 82.1692C430.443 84.0826 430.828 86.0342 431.062 88.0067C433.554 109.054 418.512 128.137 397.466 130.63C391.809 131.306 386.072 130.71 380.675 128.884L364.214 136.649L365.353 119.178C365.255 119.07 365.16 118.964 365.063 118.866Z" fill="#14081D"/>
</g>
<path d="M380.816 81.738C384.137 78.417 389.522 79.0123 392.843 82.3334L393.36 82.8498L393.876 82.3334C397.197 79.0123 402.582 78.417 405.903 81.738C407.498 83.333 408.394 85.4962 408.394 87.7517C408.394 90.0072 407.498 92.1704 405.903 93.7654L405.387 94.2819L394.944 104.723C394.736 104.931 394.489 105.096 394.217 105.209C393.945 105.321 393.654 105.379 393.36 105.379C393.065 105.379 392.774 105.321 392.502 105.209C392.23 105.096 391.983 104.931 391.775 104.723L381.332 94.2819L380.816 93.7654C379.221 92.1704 378.325 90.0072 378.325 87.7517C378.325 85.4962 379.221 83.333 380.816 81.738Z" fill="white"/>
</g>
<defs>
<clipPath id="clip0_487_1379">
<rect width="434.15" height="430" fill="white"/>
</clipPath>
</defs>
</svg>
