<svg width="414" height="327" viewBox="0 0 414 327" fill="none" xmlns="http://www.w3.org/2000/svg">
<path fill-rule="evenodd" clip-rule="evenodd" d="M328.904 74.7012L337.369 87.3145L340.624 39.4925L299.858 68.8717L311.89 68.8937L293.497 97.393L176.646 64.9743C175.534 64.6668 174.373 64.5825 173.229 64.7262C172.084 64.8699 170.98 65.2388 169.979 65.8116C168.978 66.3844 168.1 67.1499 167.397 68.0636C166.693 68.9774 166.178 70.0215 165.88 71.1356L151.428 125.393L127.56 129.017C125.949 129.262 124.44 129.953 123.201 131.01C121.962 132.068 121.044 133.451 120.549 135.003L102.903 190.545C101.447 195.132 103.987 200.042 108.577 201.498C113.166 202.955 118.081 200.411 119.537 195.824L135.54 145.451L159.686 141.788C161.366 141.531 162.934 140.791 164.2 139.658C165.466 138.525 166.374 137.047 166.814 135.405L180.474 84.1405L295.015 115.919C296.808 116.416 298.712 116.327 300.451 115.666C302.19 115.004 303.672 113.805 304.681 112.242L328.904 74.7012Z" fill="#EEEEEE"/>
<path fill-rule="evenodd" clip-rule="evenodd" d="M72.4789 304.062C70.0099 285.217 56.2908 281.871 43.6085 275.319C32.2677 269.451 20.4213 261.148 11.6532 250.587C0.928066 237.676 -3.99706 218.963 4.96543 202.895C8.32232 196.873 12.7615 191.641 17.6996 187.535C21.6397 184.262 26.014 181.912 30.6216 180.402C68.1111 168.099 76.7366 232.973 112.185 227.752C133.862 224.56 147.905 200.641 160.341 181.539C172.22 163.289 186.315 146.67 204.395 137.893C225.23 127.782 244.659 142.825 264.204 150.71C275.635 155.322 287.546 157.466 299.594 156.633C328.321 154.649 328.062 107.844 354.366 92.3927C408.096 60.8277 435.917 134.124 391.895 186.926C379.277 202.061 361.605 213.429 351.956 232.003C340.323 254.408 343.103 277.574 345.391 302.531L72.4789 304.062Z" fill="#EEEEEE"/>
<path fill-rule="evenodd" clip-rule="evenodd" d="M77.9148 302.486C77.5518 297.787 75.9832 293.109 74.4968 288.67C70.5309 276.855 64.8183 266.245 54.6945 258.625C49.7765 254.925 43.105 251.46 36.728 252.334C33.7073 252.747 30.3373 254.491 30.488 257.982C30.7483 264.224 38.2349 269.101 42.8105 272.135C53.989 279.553 74.7434 287.588 77.9148 302.486Z" fill="#803EF9"/>
<path fill-rule="evenodd" clip-rule="evenodd" d="M33.2319 249.123C32.376 251.256 32.7381 253.782 33.1825 255.963C33.5775 257.93 34.1289 259.93 35.1411 261.674C38.8115 267.978 46.5308 270.628 53.3614 271.665C56.4474 272.134 61.3935 272.447 63.8129 269.912C65.4753 268.168 64.2738 266.489 64.175 264.53C64.1503 264.012 64.5618 263.888 64.998 264.02C67.3598 264.711 69.3843 268.077 70.6517 269.945C74.4537 275.582 76.8815 282.405 77.8855 289.112C78.2393 291.474 78.766 294.774 77.2435 296.864C75.3343 299.489 70.989 297.481 68.7753 296.444C68.1334 296.14 67.4915 295.819 66.8578 295.49C66.1254 295.111 65.393 294.716 64.677 294.321C63.5495 293.704 62.4467 293.046 61.3522 292.387C54.6616 288.388 22.6898 271.772 18.4763 263.913C14.0817 255.708 25.636 251.906 33.2319 249.123Z" fill="#477282"/>
<path fill-rule="evenodd" clip-rule="evenodd" d="M81.3521 302.486C81.7151 297.787 83.2836 293.109 84.77 288.67C88.7359 276.855 94.4486 266.245 104.572 258.625C109.49 254.925 116.162 251.46 122.539 252.334C125.56 252.747 128.93 254.491 128.779 257.982C128.519 264.224 121.032 269.101 116.456 272.135C105.278 279.553 84.5234 287.588 81.3521 302.486Z" fill="#803EF9"/>
<path fill-rule="evenodd" clip-rule="evenodd" d="M126.035 249.123C126.891 251.256 126.529 253.782 126.085 255.963C125.69 257.93 125.138 259.93 124.126 261.674C120.456 267.978 112.736 270.628 105.906 271.665C102.82 272.134 97.8736 272.447 95.4541 269.912C93.7918 268.168 94.9933 266.489 95.0921 264.53C95.1168 264.012 94.7053 263.888 94.2691 264.02C91.9073 264.711 89.8828 268.077 88.6154 269.945C84.8134 275.582 82.3856 282.405 81.3816 289.112C81.0278 291.474 80.5011 294.774 82.0236 296.864C83.9328 299.489 88.278 297.481 90.4918 296.444C91.1337 296.14 91.7756 295.819 92.4092 295.49C93.1417 295.111 93.8741 294.716 94.5901 294.321C95.7175 293.704 96.8203 293.046 97.9149 292.387C104.605 288.388 136.577 271.772 140.791 263.913C145.185 255.708 133.631 251.906 126.035 249.123Z" fill="#477282"/>
<path fill-rule="evenodd" clip-rule="evenodd" d="M76.4195 300.162C76.6558 291.313 77.2101 281.791 76.1924 272.659C75.2201 264.013 72.8395 255.712 67.1422 248.816C60.9725 241.338 52.1767 236.647 44.2987 231.193C35.5303 225.117 27.8521 218.162 24.8989 206.695C23.9994 203.238 23.6632 199.644 24.0085 196.09C24.381 192.301 25.635 188.648 27.316 185.232C28.1247 183.586 30.1237 182.909 31.7684 183.721C33.4131 184.532 34.0946 186.528 33.2768 188.173C31.9502 190.873 30.9233 193.749 30.6235 196.745C30.3509 199.523 30.6326 202.331 31.3323 205.034C33.8583 214.802 40.6095 220.551 48.0877 225.727C56.4564 231.525 65.7156 236.636 72.276 244.582C85.0244 260.035 83.5706 281.579 83.0708 300.339C83.0163 302.178 81.4898 303.628 79.6543 303.575C77.8188 303.53 76.3741 302.001 76.4195 300.162Z" fill="#803EF9"/>
<path fill-rule="evenodd" clip-rule="evenodd" d="M41.9792 179.017C36.9338 183.149 34.9979 208.554 31.3538 213.866C30.4894 215.137 29.159 220.112 27.4206 220.397C26.0765 220.615 24.9253 218.662 24.3551 217.755C22.323 214.548 21.2024 210.656 20.2307 207.027C17.702 197.668 16.3086 186.395 19.152 176.965C19.6265 175.372 20.2698 173.767 21.1644 172.361C25.0918 166.226 32.2535 169.313 36.5585 173.156C38.5464 174.936 40.3068 176.937 41.9792 179.017Z" fill="#477282"/>
<path d="M36.7091 204.477C19.4752 204.477 5.50434 190.506 5.50434 173.272C5.50434 156.038 19.4752 142.067 36.7091 142.067C53.9431 142.067 67.9138 156.038 67.9138 173.272C67.9138 190.506 53.9431 204.477 36.7091 204.477Z" fill="#999999"/>
<path fill-rule="evenodd" clip-rule="evenodd" d="M11.27 148.823C8.15924 164.179 9.15509 182.737 23.1783 192.522C25.858 194.379 28.7828 195.856 31.8688 196.908C39.6211 199.558 48.9205 199.517 56.3601 195.912C58.5492 194.859 60.6313 193.518 62.4006 191.847C63.5116 190.802 64.6144 189.057 65.997 188.374C67.3713 187.691 67.7499 189.436 67.6676 190.423C67.3713 194.143 64.853 197.83 62.5899 200.628C53.883 211.4 39.5058 214.561 26.5195 210.364C4.12675 203.13 -7.59223 169.265 11.27 148.823Z" fill="#232323"/>
<path d="M42.9677 177.558C42.392 176.56 41.6578 175.926 40.7625 175.656C39.8703 175.385 38.6163 175.383 37.0006 175.651C35.3883 175.917 33.9582 176.081 32.7137 176.143C31.4658 176.207 30.3155 176.117 29.259 175.875C28.2104 175.635 27.2219 175.184 26.3545 174.548C25.4713 173.906 24.6872 172.989 23.9989 171.796C22.812 169.741 22.4965 167.677 23.0522 165.604C23.6078 163.532 24.9086 161.759 26.9609 160.282L24.7068 156.378L27.6244 154.693L29.9102 158.652C32.2408 157.712 34.444 157.636 36.5197 158.425C38.5955 159.213 40.3198 160.792 41.6892 163.164L36.4156 166.209C35.5728 164.749 34.6396 163.833 33.6225 163.455C32.602 163.079 31.5862 163.183 30.5785 163.765C29.581 164.34 28.9715 165.07 28.7498 165.952C28.5284 166.834 28.7071 167.772 29.283 168.77C29.8167 169.694 30.5107 170.283 31.3716 170.532C32.2293 170.783 33.5534 170.781 35.3442 170.525C37.135 170.27 38.6479 170.13 39.8825 170.107C41.1171 170.083 42.244 170.211 43.2667 170.488C44.2693 170.759 45.2084 171.225 46.0294 171.861C46.851 172.498 47.5813 173.37 48.2203 174.476C49.4142 176.544 49.7365 178.597 49.194 180.629C48.6481 182.663 47.3098 184.449 45.1827 185.986L47.279 189.617L44.3783 191.291L42.2925 187.678C39.6425 188.852 37.2013 189.081 34.9655 188.369C32.7294 187.657 30.8917 186.054 29.4521 183.561L34.7257 180.516C35.5613 181.963 36.5459 182.875 37.6796 183.25C38.8133 183.626 40.0235 183.442 41.3138 182.697C42.3828 182.08 43.064 181.31 43.3603 180.384C43.6535 179.461 43.5226 178.519 42.9677 177.558Z" fill="white"/>
<path fill-rule="evenodd" clip-rule="evenodd" d="M328.387 177.722C298.25 162.232 234.954 179.721 234.954 179.721L182.751 116.134C182.751 116.134 185.391 101.242 183.744 100.004C178.335 95.9388 174.32 107.094 174.32 107.094C174.32 107.094 152.452 94.5759 146.248 94.9116C133.977 95.5779 157.125 115.111 157.125 115.111C157.125 115.111 177.997 193.857 201.023 213.602C224.048 233.346 276.55 232.504 295.259 233.582C329.664 235.565 345.897 186.721 328.387 177.722Z" fill="#FAD8BA"/>
<path fill-rule="evenodd" clip-rule="evenodd" d="M157.747 116.802C162.989 121.985 178.676 196.192 227.195 216.596C237.919 221.105 257.466 213.748 269.089 213.72C274.739 213.706 281.294 211.817 286.838 212.863C291.344 213.711 294.011 218.075 294.699 222.325C298.138 243.574 271.187 250.373 255.409 250.651C251.718 250.715 248.026 250.631 244.348 250.284C240.334 249.905 236.312 249.363 232.354 248.583C191.443 240.517 167.909 156.978 157.747 116.802Z" fill="#D7B699"/>
<path fill-rule="evenodd" clip-rule="evenodd" d="M269.435 166.738C263.377 176.055 262.891 188.545 262.686 199.296C262.532 207.196 262.559 214.897 265.225 222.406C267.563 228.98 271.187 236.384 276.44 241.163C287.237 250.97 303.464 245.27 314.254 238.553C333.684 226.459 350.66 198.225 333.909 177.253C331.313 174.001 328.102 171.152 324.587 168.922C318.014 164.752 277.04 167.864 269.435 166.738Z" fill="#803EF9"/>
<path fill-rule="evenodd" clip-rule="evenodd" d="M370.136 193.058C354.499 177.417 287.921 148.737 282.264 192.179C274.866 248.971 247.262 303.921 247.262 303.921L367.672 303.093C367.672 303.093 385.766 208.699 370.136 193.058Z" fill="#803EF9"/>
<path fill-rule="evenodd" clip-rule="evenodd" d="M378.2 191.743C372.403 219.35 363.461 251.067 341.374 270.078C332.882 277.391 319.385 279.069 308.211 289.358C289.261 306.799 278.839 299.058 263.195 293.33C255.579 290.551 245.81 286.789 237.724 287.8C226.663 289.189 229.856 297.998 235.654 305.409C240.553 311.656 248.119 315.27 255.397 317.958C270.199 323.433 286.398 325.728 302.098 326.402C323.989 327.335 348.224 325.524 367.848 314.891C407.973 293.141 394.336 231.255 378.2 191.743Z" fill="#602BC1"/>
<path fill-rule="evenodd" clip-rule="evenodd" d="M320.101 161.724L337.607 161.978C335.18 168.559 336.263 171.913 338.76 178.086C316.494 221.091 310.758 206.511 318.302 178.482C321.253 174.283 322.231 168.919 320.101 161.724Z" fill="#FAD8BA"/>
<path fill-rule="evenodd" clip-rule="evenodd" d="M318.209 172.058C321.406 176.696 326.895 178.582 332.324 177.447C335.452 176.796 338.433 174.824 339.101 171.493C339.78 168.099 337.685 165.406 334.842 163.787C330.406 161.265 322.223 168.817 318.209 172.058Z" fill="#D7B699"/>
<path fill-rule="evenodd" clip-rule="evenodd" d="M318.947 150.819C317.879 158.992 316.703 167.284 317.253 175.537C317.538 179.826 311.888 199.754 320.824 202.006C328.607 203.964 329.976 206.462 324.803 211.075C319.721 215.6 312.873 215.423 308.722 209.787C306.276 206.472 305.012 202.272 304.269 198.268C302.637 189.455 317.09 159.514 318.947 150.819Z" fill="#D7B699"/>
<path fill-rule="evenodd" clip-rule="evenodd" d="M328.334 140.713C321.564 140.713 316.069 147.978 316.069 156.925C316.069 165.873 317.243 173.635 324.006 173.635C330.776 173.635 340.592 165.873 340.592 156.925C340.592 147.978 335.097 140.713 328.334 140.713Z" fill="#FAD8BA"/>
<path fill-rule="evenodd" clip-rule="evenodd" d="M328.411 153.019C326.593 155.409 323.034 156.164 320.234 156.07C317.728 155.987 315.103 155.361 312.851 154.277C306.576 151.263 307.355 143.785 310.113 138.493C312.563 133.798 316.774 130.989 321.806 133.869C322.775 134.426 323.519 135.212 324.228 136.068C326.256 135.232 328.734 135.349 330.86 135.58C332.762 135.785 334.783 136.109 336.566 136.821C344.574 140.024 346.371 148.956 344.223 156.437C343.304 159.627 341.563 162.89 339.002 165.063C337.851 166.037 336.285 166.993 334.699 166.684C330.607 165.891 334.643 161.981 335.085 160.009C335.303 159.048 335.282 157.442 334.138 157.072C333.464 156.851 332.804 157.148 332.285 157.576C330.881 158.735 330.186 160.567 328.663 161.627C327.302 162.575 326.888 161.435 327.26 160.236C327.386 159.828 327.533 159.429 327.688 159.029C327.99 158.228 328.312 153.87 328.411 153.019Z" fill="#03222F"/>
<path fill-rule="evenodd" clip-rule="evenodd" d="M366.297 192.941C332.594 196.447 289.156 245.695 289.156 245.695L210.682 220.991C210.682 220.991 204.751 207.078 202.695 206.942C195.943 206.496 198.68 218.031 198.68 218.031C198.68 218.031 177.884 216.06 174.256 217.321C162.647 221.363 188.665 234.144 188.665 234.144C188.665 234.144 249.193 288.67 279.267 292.614C309.341 296.559 352.842 267.151 369.097 257.826C398.989 240.677 385.879 190.903 366.297 192.941Z" fill="#FAD8BA"/>
<path fill-rule="evenodd" clip-rule="evenodd" d="M326.691 220.199C325.203 227.464 326.277 236.377 329.162 243.108C331.204 247.856 333.668 252.415 335.668 257.172C336.489 259.122 337.809 261.677 337.156 263.853C336.398 266.379 333.471 268.387 331.373 269.678C329.478 270.843 327.442 271.784 325.358 272.542C321.834 273.826 318.143 274.64 314.465 275.342C308.682 276.444 302.758 277.033 296.883 277.398C287.963 277.946 278.846 277.869 269.981 276.577C249.972 273.658 231.309 265.614 214.577 254.477C208.176 250.215 201.874 245.752 195.767 241.073C194.308 239.952 188.805 234.583 189.739 239.653C190.546 244.057 193.093 248.369 195.367 252.135C200.119 260 205.741 267.271 212.331 273.679C218.522 279.701 225.505 284.936 232.896 289.379C267.364 310.084 309.447 307.08 344.553 289.477C360.429 281.518 377.905 270.176 385.394 253.332C387.738 248.046 326.228 225.921 326.691 220.199Z" fill="#D7B699"/>
<path fill-rule="evenodd" clip-rule="evenodd" d="M320.606 209.042C320.628 220.155 327.049 230.879 332.755 239.993C336.946 246.692 341.178 253.126 347.515 257.955C353.067 262.182 360.149 266.4 367.16 267.53C381.562 269.839 392.034 256.195 397.396 244.672C407.054 223.923 405.832 191.001 380.341 182.598C376.39 181.294 372.144 180.665 367.982 180.719C360.198 180.821 327.59 205.827 320.606 209.042Z" fill="#803EF9"/>
<path fill-rule="evenodd" clip-rule="evenodd" d="M64.7822 302.618H378.224V304.676H64.7822V302.618Z" fill="#03222F"/>
<path fill-rule="evenodd" clip-rule="evenodd" d="M20.7354 302.877H54.3188V305.064H20.7354V302.877Z" fill="#03222F"/>
<path fill-rule="evenodd" clip-rule="evenodd" d="M16.9998 58.6542C16.9998 46.9263 33.1495 34.9369 44.8769 34.9369H123.807C135.535 34.9369 145.056 44.4585 145.056 56.1865V98.6851C145.056 110.413 135.535 119.935 123.807 119.935V146.507C123.807 148.075 113.904 156.709 112.85 155.545C103.257 144.909 90.9401 119.935 90.9401 119.935H44.8769C33.1495 119.935 23.6278 110.413 23.6278 98.6851L16.9998 58.6542Z" fill="#4F377A"/>
<path fill-rule="evenodd" clip-rule="evenodd" d="M16.1513 61.8943C16.1513 50.1664 25.673 40.6448 37.4004 40.6448H116.331C128.058 40.6448 137.58 50.1664 137.58 61.8943V104.393C137.58 116.121 128.058 125.643 116.331 125.643V152.215C116.331 152.981 116.098 153.729 115.665 154.36C115.231 154.991 114.616 155.476 113.901 155.751C113.186 156.026 112.404 156.077 111.658 155.899C110.913 155.721 110.239 155.322 109.725 154.753C100.132 144.117 83.4636 125.643 83.4636 125.643H37.4004C25.673 125.643 16.1513 116.121 16.1513 104.393V61.8943Z" fill="#803EF9"/>
<path fill-rule="evenodd" clip-rule="evenodd" d="M35.805 61.5382C25.3057 72.886 25.9933 90.5922 37.3386 101.089C42.2034 105.59 48.5093 108.22 55.1308 108.508L56.0443 87.5364C54.388 87.4651 52.8108 86.8078 51.5939 85.6819C48.7588 83.0588 48.5868 78.631 51.2123 75.7935L35.805 61.5382ZM60.3848 108.243C66.7186 107.318 72.5445 104.251 76.8919 99.5531C87.0596 88.5638 86.7773 71.5185 76.2512 60.8704L66.2993 70.7098C71.5611 76.0327 71.7022 84.5554 66.6195 90.0488C64.4449 92.3991 61.5327 93.9312 58.3673 94.3948L60.3848 108.243ZM71.3743 56.9344C61.5395 50.6745 48.854 51.1671 39.5343 58.1709L45.5065 66.1191C51.5155 61.6046 59.6955 61.287 66.0365 65.3218L71.3743 56.9344Z" fill="white"/>
<path fill-rule="evenodd" clip-rule="evenodd" d="M115.067 63.3116C115.066 62.4984 114.742 61.7189 114.167 61.1442C113.591 60.5696 112.811 60.2467 111.998 60.2466H95.124C94.3136 60.2466 93.531 60.5697 92.9593 61.1447C92.674 61.4288 92.4477 61.7665 92.2933 62.1384C92.139 62.5103 92.0598 62.909 92.0601 63.3116V63.381C92.0601 64.1936 92.382 64.9735 92.9593 65.548C93.2433 65.8327 93.5807 66.0586 93.9522 66.2127C94.3236 66.3668 94.7218 66.4461 95.124 66.4461H111.998C112.811 66.4459 113.591 66.1231 114.167 65.5484C114.742 64.9738 115.066 64.1943 115.067 63.381V63.3116Z" fill="white"/>
<path fill-rule="evenodd" clip-rule="evenodd" d="M129.413 78.0232C129.413 77.3477 129.142 76.6996 128.665 76.2217C128.187 75.7438 127.538 75.4755 126.862 75.4755H94.6067C93.9308 75.4755 93.2819 75.7438 92.8043 76.2217C92.3266 76.6996 92.0562 77.3477 92.0562 78.0232V78.0255C92.0562 78.701 92.3266 79.3491 92.8043 79.827C93.2819 80.3049 93.9308 80.5732 94.6067 80.5732H126.862C127.538 80.5732 128.187 80.3049 128.665 79.827C129.142 79.3491 129.413 78.701 129.413 78.0255V78.0232Z" fill="white"/>
<path fill-rule="evenodd" clip-rule="evenodd" d="M129.413 86.5939C129.413 85.9184 129.142 85.2703 128.665 84.7924C128.187 84.3145 127.538 84.0461 126.862 84.0461H94.6067C93.9308 84.0461 93.2819 84.3145 92.8043 84.7924C92.3266 85.2703 92.0562 85.9184 92.0562 86.5939V86.5962C92.0562 87.2717 92.3266 87.9198 92.8043 88.3977C93.2819 88.8755 93.9308 89.1439 94.6067 89.1439H126.862C127.538 89.1439 128.187 88.8755 128.665 88.3977C129.142 87.9198 129.413 87.2717 129.413 86.5962V86.5939Z" fill="white"/>
<path fill-rule="evenodd" clip-rule="evenodd" d="M129.413 95.1641C129.413 94.4886 129.142 93.8405 128.665 93.3626C128.187 92.8847 127.538 92.6163 126.862 92.6163H94.6067C93.9308 92.6163 93.2819 92.8847 92.8043 93.3626C92.3266 93.8405 92.0562 94.4886 92.0562 95.1641V95.1664C92.0562 95.8419 92.3266 96.49 92.8043 96.9679C93.2819 97.4457 93.9308 97.7141 94.6067 97.7141H126.862C127.538 97.7141 128.187 97.4457 128.665 96.9679C129.142 96.49 129.413 95.8419 129.413 95.1664V95.1641Z" fill="white"/>
</svg>
