<svg width="136" height="30" viewBox="0 0 136 30" fill="none" xmlns="http://www.w3.org/2000/svg">
<path d="M10.6152 15.7363L13.418 16.625C12.9883 18.1875 12.2721 19.3496 11.2695 20.1113C10.2734 20.8665 9.00716 21.2441 7.4707 21.2441C5.56966 21.2441 4.00716 20.5964 2.7832 19.3008C1.55924 17.9987 0.947266 16.2214 0.947266 13.9688C0.947266 11.5859 1.5625 9.73698 2.79297 8.42188C4.02344 7.10026 5.64128 6.43945 7.64648 6.43945C9.39779 6.43945 10.8203 6.95703 11.9141 7.99219C12.5651 8.60417 13.0534 9.48307 13.3789 10.6289L10.5176 11.3125C10.3483 10.5703 9.99349 9.98438 9.45312 9.55469C8.91927 9.125 8.26823 8.91016 7.5 8.91016C6.4388 8.91016 5.57617 9.29102 4.91211 10.0527C4.25456 10.8145 3.92578 12.0482 3.92578 13.7539C3.92578 15.5638 4.2513 16.8529 4.90234 17.6211C5.55339 18.3893 6.39974 18.7734 7.44141 18.7734C8.20964 18.7734 8.87044 18.5293 9.42383 18.041C9.97721 17.5527 10.3743 16.7845 10.6152 15.7363ZM15.3539 15.668C15.3539 14.7565 15.5785 13.8743 16.0277 13.0215C16.477 12.1686 17.1117 11.5176 17.932 11.0684C18.7589 10.6191 19.6801 10.3945 20.6957 10.3945C22.2647 10.3945 23.5505 10.9056 24.5531 11.9277C25.5557 12.9434 26.057 14.2292 26.057 15.7852C26.057 17.3542 25.5492 18.6562 24.5336 19.6914C23.5245 20.7201 22.2517 21.2344 20.7152 21.2344C19.7647 21.2344 18.8565 21.0195 17.9906 20.5898C17.1313 20.1602 16.477 19.5319 16.0277 18.7051C15.5785 17.8717 15.3539 16.8594 15.3539 15.668ZM18.1664 15.8145C18.1664 16.8431 18.4105 17.6309 18.8988 18.1777C19.3871 18.7246 19.9893 18.998 20.7055 18.998C21.4216 18.998 22.0206 18.7246 22.5023 18.1777C22.9906 17.6309 23.2348 16.8366 23.2348 15.7949C23.2348 14.7793 22.9906 13.998 22.5023 13.4512C22.0206 12.9043 21.4216 12.6309 20.7055 12.6309C19.9893 12.6309 19.3871 12.9043 18.8988 13.4512C18.4105 13.998 18.1664 14.7858 18.1664 15.8145ZM37.7488 21H35.0047V15.707C35.0047 14.5872 34.9461 13.8646 34.8289 13.5391C34.7117 13.207 34.5197 12.9499 34.2527 12.7676C33.9923 12.5853 33.6766 12.4941 33.3055 12.4941C32.8302 12.4941 32.4038 12.6243 32.0262 12.8848C31.6486 13.1452 31.3882 13.4902 31.2449 13.9199C31.1082 14.3496 31.0398 15.1439 31.0398 16.3027V21H28.2957V10.6289H30.8445V12.1523C31.7495 10.9805 32.8888 10.3945 34.2625 10.3945C34.868 10.3945 35.4214 10.5052 35.9227 10.7266C36.424 10.9414 36.8016 11.2181 37.0555 11.5566C37.3159 11.8952 37.4949 12.2793 37.5926 12.709C37.6967 13.1387 37.7488 13.7539 37.7488 14.5547V21ZM45.3977 10.6289V12.8164H43.5227V16.9961C43.5227 17.8424 43.5389 18.3372 43.5715 18.4805C43.6105 18.6172 43.6919 18.7311 43.8156 18.8223C43.9458 18.9134 44.1021 18.959 44.2844 18.959C44.5383 18.959 44.9061 18.8711 45.3879 18.6953L45.6223 20.8242C44.9842 21.0977 44.2616 21.2344 43.4543 21.2344C42.9595 21.2344 42.5135 21.153 42.1164 20.9902C41.7193 20.821 41.4263 20.6061 41.2375 20.3457C41.0552 20.0788 40.9283 19.7207 40.8566 19.2715C40.798 18.9525 40.7687 18.3079 40.7687 17.3379V12.8164H39.509V10.6289H40.7687V8.56836L43.5227 6.9668V10.6289H45.3977ZM49.4527 13.793L46.9625 13.3438C47.2424 12.3411 47.7242 11.599 48.4078 11.1172C49.0914 10.6354 50.107 10.3945 51.4547 10.3945C52.6786 10.3945 53.5901 10.541 54.1891 10.834C54.788 11.1204 55.2079 11.4883 55.4488 11.9375C55.6962 12.3802 55.8199 13.1973 55.8199 14.3887L55.7906 17.5918C55.7906 18.5033 55.8329 19.1771 55.9176 19.6133C56.0087 20.043 56.1747 20.5052 56.4156 21H53.7008C53.6292 20.8177 53.5413 20.5475 53.4371 20.1895C53.3915 20.0267 53.359 19.9193 53.3395 19.8672C52.8707 20.3229 52.3694 20.6647 51.8355 20.8926C51.3017 21.1204 50.732 21.2344 50.1266 21.2344C49.0589 21.2344 48.2158 20.9447 47.5973 20.3652C46.9853 19.7858 46.6793 19.0534 46.6793 18.168C46.6793 17.582 46.8193 17.0612 47.0992 16.6055C47.3792 16.1432 47.7698 15.7917 48.2711 15.5508C48.7789 15.3034 49.5081 15.0885 50.4586 14.9062C51.7411 14.6654 52.6298 14.4408 53.1246 14.2324V13.959C53.1246 13.4316 52.9944 13.0573 52.734 12.8359C52.4736 12.6081 51.982 12.4941 51.2594 12.4941C50.7711 12.4941 50.3902 12.5918 50.1168 12.7871C49.8434 12.9759 49.622 13.3112 49.4527 13.793ZM53.1246 16.0195C52.773 16.1367 52.2164 16.2767 51.4547 16.4395C50.693 16.6022 50.1949 16.7617 49.9605 16.918C49.6025 17.1719 49.4234 17.4941 49.4234 17.8848C49.4234 18.2689 49.5667 18.6009 49.8531 18.8809C50.1396 19.1608 50.5042 19.3008 50.9469 19.3008C51.4417 19.3008 51.9137 19.138 52.3629 18.8125C52.6949 18.5651 52.913 18.2624 53.0172 17.9043C53.0888 17.6699 53.1246 17.224 53.1246 16.5664V16.0195ZM67.6777 13.6953L64.9727 14.1836C64.8815 13.6432 64.6732 13.2363 64.3477 12.9629C64.0286 12.6895 63.612 12.5527 63.0977 12.5527C62.4141 12.5527 61.8672 12.7904 61.457 13.2656C61.0534 13.7344 60.8516 14.5221 60.8516 15.6289C60.8516 16.8594 61.0566 17.7285 61.4668 18.2363C61.8835 18.7441 62.4401 18.998 63.1367 18.998C63.6576 18.998 64.084 18.8516 64.416 18.5586C64.748 18.2591 64.9824 17.748 65.1191 17.0254L67.8145 17.4844C67.5345 18.7214 66.9974 19.6556 66.2031 20.2871C65.4089 20.9186 64.3444 21.2344 63.0098 21.2344C61.4928 21.2344 60.2819 20.7559 59.377 19.7988C58.4785 18.8418 58.0293 17.5169 58.0293 15.8242C58.0293 14.112 58.4818 12.7806 59.3867 11.8301C60.2917 10.873 61.5156 10.3945 63.0586 10.3945C64.3216 10.3945 65.3242 10.668 66.0664 11.2148C66.8151 11.7552 67.3522 12.582 67.6777 13.6953ZM74.6234 10.6289V12.8164H72.7484V16.9961C72.7484 17.8424 72.7647 18.3372 72.7973 18.4805C72.8363 18.6172 72.9177 18.7311 73.0414 18.8223C73.1716 18.9134 73.3279 18.959 73.5102 18.959C73.7641 18.959 74.1319 18.8711 74.6137 18.6953L74.848 20.8242C74.21 21.0977 73.4874 21.2344 72.6801 21.2344C72.1853 21.2344 71.7393 21.153 71.3422 20.9902C70.9451 20.821 70.6521 20.6061 70.4633 20.3457C70.281 20.0788 70.154 19.7207 70.0824 19.2715C70.0238 18.9525 69.9945 18.3079 69.9945 17.3379V12.8164H68.7348V10.6289H69.9945V8.56836L72.7484 6.9668V10.6289H74.6234ZM89.1203 21V19.4473C88.7427 20.0007 88.2447 20.4368 87.6262 20.7559C87.0142 21.0749 86.3664 21.2344 85.6828 21.2344C84.9862 21.2344 84.3612 21.0814 83.8078 20.7754C83.2544 20.4694 82.854 20.0397 82.6066 19.4863C82.3592 18.9329 82.2355 18.168 82.2355 17.1914V10.6289H84.9797V15.3945C84.9797 16.8529 85.0285 17.748 85.1262 18.0801C85.2303 18.4056 85.4159 18.666 85.6828 18.8613C85.9497 19.0501 86.2883 19.1445 86.6984 19.1445C87.1672 19.1445 87.5871 19.0176 87.9582 18.7637C88.3293 18.5033 88.5832 18.1842 88.7199 17.8066C88.8566 17.4225 88.925 16.4883 88.925 15.0039V10.6289H91.6691V21H89.1203ZM93.6539 18.041L96.4078 17.6211C96.525 18.1549 96.7626 18.5618 97.1207 18.8418C97.4788 19.1152 97.9801 19.252 98.6246 19.252C99.3342 19.252 99.8681 19.1217 100.226 18.8613C100.467 18.679 100.588 18.4349 100.588 18.1289C100.588 17.9206 100.522 17.748 100.392 17.6113C100.255 17.4811 99.9495 17.3607 99.4742 17.25C97.2607 16.7617 95.8577 16.3158 95.2652 15.9121C94.4449 15.3522 94.0348 14.5742 94.0348 13.5781C94.0348 12.6797 94.3896 11.9245 95.0992 11.3125C95.8089 10.7005 96.9091 10.3945 98.4 10.3945C99.8193 10.3945 100.874 10.6257 101.564 11.0879C102.254 11.5501 102.729 12.2337 102.99 13.1387L100.402 13.6172C100.291 13.2135 100.08 12.9043 99.7672 12.6895C99.4612 12.4746 99.0217 12.3672 98.4488 12.3672C97.7262 12.3672 97.2086 12.4681 96.8961 12.6699C96.6878 12.8132 96.5836 12.9987 96.5836 13.2266C96.5836 13.4219 96.6747 13.5879 96.857 13.7246C97.1044 13.9069 97.9573 14.1641 99.4156 14.4961C100.88 14.8281 101.903 15.235 102.482 15.7168C103.055 16.2051 103.341 16.8854 103.341 17.7578C103.341 18.7083 102.944 19.5254 102.15 20.209C101.356 20.8926 100.181 21.2344 98.6246 21.2344C97.2119 21.2344 96.0921 20.9479 95.2652 20.375C94.4449 19.8021 93.9078 19.0241 93.6539 18.041Z" fill="white"/>
<path d="M112.25 13.75H127.075L122.538 8.29998C122.325 8.04471 122.223 7.71561 122.254 7.38507C122.284 7.05454 122.445 6.74965 122.7 6.53748C122.955 6.32531 123.284 6.22323 123.615 6.2537C123.945 6.28418 124.25 6.44471 124.463 6.69998L130.713 14.2C130.755 14.2596 130.792 14.3223 130.825 14.3875C130.825 14.45 130.825 14.4875 130.912 14.55C130.969 14.6933 130.999 14.8459 131 15C130.999 15.1541 130.969 15.3067 130.912 15.45C130.912 15.5125 130.913 15.55 130.825 15.6125C130.792 15.6777 130.755 15.7403 130.713 15.8L124.463 23.3C124.345 23.4411 124.198 23.5546 124.031 23.6323C123.865 23.7101 123.684 23.7503 123.5 23.75C123.208 23.7505 122.925 23.6488 122.7 23.4625C122.573 23.3575 122.469 23.2287 122.392 23.0832C122.315 22.9378 122.268 22.7787 122.253 22.6149C122.238 22.4512 122.255 22.2861 122.304 22.1291C122.353 21.9721 122.432 21.8263 122.538 21.7L127.075 16.25H112.25C111.918 16.25 111.601 16.1183 111.366 15.8839C111.132 15.6494 111 15.3315 111 15C111 14.6685 111.132 14.3505 111.366 14.1161C111.601 13.8817 111.918 13.75 112.25 13.75Z" fill="white"/>
</svg>
