<svg width="751" height="563" viewBox="0 0 751 563" fill="none" xmlns="http://www.w3.org/2000/svg">
<path d="M519.482 164.496C467.639 115.902 406.9 103.357 390.852 100.797C401.668 71.6275 418.373 28.2654 422.533 21.849C425.224 21.5111 427.934 21.3561 430.646 21.385C442.438 21.385 467.687 23.8331 504.249 40.266C557.052 63.9951 571.085 90.6845 573.869 97.2128L519.482 164.496Z" fill="white"/>
<path d="M430.646 24.5852C442.182 24.5852 466.92 27.0013 502.889 43.1781C550.588 64.6512 565.996 88.6524 570.093 96.7648L519.178 159.824C493.994 137.161 464.59 119.686 432.646 108.397C420.47 104.015 407.959 100.628 395.236 98.2689C407.189 66.1553 420.181 33.1136 424.549 24.8412C425.973 24.7132 428.022 24.5852 430.678 24.5852M430.678 18.1849C427.427 18.1167 424.176 18.3416 420.965 18.8569C417.221 20.105 386.5 103.405 386.5 103.405C386.5 103.405 459.415 110.845 519.818 169.2L577.421 97.8048C577.421 97.8048 567.821 65.3872 505.417 37.3538C468.888 20.921 443.43 18.1529 430.55 18.1529L430.678 18.1849Z" fill="white"/>
<path d="M397.172 109.885C397.172 109.885 468.872 117.118 513.034 157.68" stroke="#2A1E17" stroke-width="1.60008" stroke-linecap="round" stroke-linejoin="round"/>
<path d="M459.063 106.381L485.816 54.3787L513.306 108.605L459.063 106.381Z" fill="white"/>
<path d="M464.263 105.645L491.017 53.6426L518.506 107.869L464.263 105.645Z" stroke="#2A1E17" stroke-width="1.60008" stroke-linecap="round" stroke-linejoin="round"/>
<path d="M439.174 15.0167C439.174 15.0167 519.594 22.3131 569.516 81.644" stroke="#2A1E17" stroke-width="1.60008" stroke-linecap="round" stroke-linejoin="round"/>
<path d="M480.248 245.46C475.832 242.26 472.936 240.036 472.936 240.036C474.152 238.436 493.497 217.811 504.697 201.202C504.697 201.202 482.04 246.788 480.248 245.46Z" fill="#2A1E17"/>
<path d="M206.17 95.2607C208.33 98.8609 209.274 97.4208 215.499 96.8608C221.723 96.3008 230.587 100.925 233.692 108.589C236.796 116.254 235.852 117.438 234.172 118.398C232.491 119.358 220.539 120.798 220.059 123.198" stroke="#2A1E17" stroke-width="1.60008" stroke-linecap="round" stroke-linejoin="round"/>
<path d="M367.41 484.816L361.826 475.392L342.049 508.369L347.233 512.37L367.41 484.816Z" fill="#FFBE01"/>
<path d="M236.06 403.132C236.06 403.132 225.803 386.475 230.204 378.299L262.909 381.803L236.06 403.132Z" fill="#FFBE01"/>
<path d="M236.06 403.132L238.012 407.644L231.98 431.198C231.598 432.652 231.635 434.185 232.085 435.62C232.535 437.054 233.38 438.333 234.524 439.31L264.429 395.1C265.8 393.065 266.4 390.608 266.122 388.171C265.843 385.734 264.704 383.476 262.909 381.803L256.221 375.595L236.06 403.132Z" fill="black"/>
<path d="M220.059 123.262C229.42 123.038 241.292 122.446 238.908 115.262C236.524 108.077 227.707 90.3485 207.466 95.6768C207.466 95.6768 200.346 101.613 209.243 112.302C218.139 122.99 220.059 123.262 220.059 123.262Z" fill="#332B1E"/>
<path d="M267.453 382.123C267.453 382.123 251.452 334.921 264.989 314.2C276.19 297.095 312.64 324.904 317.632 328.6L343.729 281.526C343.729 281.526 337.713 273.078 322.928 264.805C308.143 256.533 247.036 231.764 218.315 277.078C207.706 293.815 207.546 365.674 227.915 393.212L267.453 382.123Z" fill="#35A55D"/>
<path d="M267.453 382.123C267.453 382.123 251.453 334.921 264.989 314.2C276.19 297.095 312.64 324.904 317.632 328.6" stroke="#2A1E17" stroke-width="1.60008" stroke-linecap="round" stroke-linejoin="round"/>
<path d="M343.729 281.526C331.857 294.023 296.671 354.89 288.75 383.931C278.174 422.845 282.158 455.119 340.337 518.338L368.45 477.376C368.45 477.376 348.673 447.358 352.45 419.053C357.794 378.107 386.931 338.409 401.668 313.224L343.729 281.526Z" fill="#35A55D"/>
<path d="M348.193 286.806L394.964 323.528L408.948 302.279L348.193 286.806Z" fill="#2A1E17"/>
<path d="M616.879 248.212C624.175 249.78 629.733 252.559 633.552 256.549C637.376 260.549 635.648 262.629 634.256 263.845C632.864 265.061 627.471 263.669 622.783 259.509C618.095 255.349 616.879 248.212 616.879 248.212Z" fill="#FFBE01"/>
<path d="M472.936 240.036C474.152 238.436 493.497 217.811 504.697 201.202C504.697 201.202 538.539 239.124 542.219 240.356C543.579 240.804 551.82 240.692 562.188 240.596C579.597 240.404 602.75 240.228 607.87 242.804C616.031 246.868 620.927 248.916 622.959 254.629C624.991 260.341 625.807 264.069 620.927 264.405C615.215 264.821 611.551 257.477 611.551 257.477C606.17 260.366 600.568 262.822 594.798 264.821C594.798 264.821 551.42 281.654 522.426 273.51C514.538 271.286 472.936 240.036 472.936 240.036Z" fill="#FFBE01"/>
<path d="M209.995 88.5563C206.282 89.9804 204.01 91.6765 206.17 95.2607C208.33 98.8449 209.275 97.4208 215.499 96.8608C221.723 96.3007 230.588 100.925 233.692 108.589C236.796 116.254 235.852 117.438 234.172 118.398C232.492 119.358 220.539 120.798 220.059 123.198C219.579 125.598 224.859 132.655 235.916 132.191L238.54 131.711C238.54 131.711 261.693 154.32 265.053 157.664C268.413 161.008 293.023 177.697 306.655 181.089C316.96 183.665 337.857 180.353 350.402 177.889C356.498 176.689 360.642 175.713 360.642 175.713C360.642 175.713 351.218 158.736 349.298 132.655C349.298 132.655 326.768 136.271 311.792 139.567C311.792 139.567 276.846 120.078 259.853 111.454C259.853 111.454 245.004 93.2766 238.06 90.8765C231.116 88.4764 215.019 86.6523 209.995 88.5563Z" fill="#FFBE01"/>
<path d="M350.337 177.969C356.434 176.769 360.578 175.793 360.578 175.793C360.578 175.793 349.169 161.392 347.265 135.343C347.265 135.343 342.113 140.895 343.713 155.664C345.729 174.321 350.337 177.969 350.337 177.969Z" fill="#2A1E17"/>
<path d="M346.785 132.415C346.785 132.415 347.105 164.304 355.65 177.601L358.706 176.369C358.706 176.369 318.464 223.459 305.439 254.229C303.311 259.269 389.011 314.008 401.668 313.24C401.668 313.24 443.43 249.508 457.671 230.612L473.032 242.516C473.032 242.516 503.129 212.019 504.745 201.202C504.745 201.202 475.672 165.824 451.942 155.456C428.213 145.087 406.788 127.358 381.235 127.918C359.122 128.254 346.785 132.415 346.785 132.415Z" fill="white"/>
<path d="M472.968 242.516L457.623 230.611L460.071 223.955L472.968 242.516Z" fill="#2A1E17"/>
<path d="M496.329 116.446C493.641 124.814 485.881 148.991 477.224 151.968C468.568 154.944 459.623 151.215 459.623 151.215L450.407 155.92C449.383 159.008 442.102 161.664 432.71 162.032C425.749 162.304 421.509 153.36 423.573 146.895C424.517 143.919 428.054 129.294 428.054 129.294C428.054 129.294 435.51 101.837 442.454 96.1728C449.399 90.5085 455.767 84.8762 474.088 92.2845C501.993 103.613 496.329 116.446 496.329 116.446Z" fill="#FFBE01"/>
<path d="M440.694 117.646C439.462 122.766 434.134 133.039 430.63 131.183C427.125 129.326 425.909 124.622 428.373 115.582C430.838 106.541 432.902 86.0283 439.878 82.3321C446.854 78.6359 449.943 82.9401 449.943 82.9401C449.943 82.9401 446.854 67.9634 455.895 65.8993C455.895 65.8993 458.967 64.4752 457.735 74.7317C458.932 71.9114 461.037 69.5719 463.716 68.0847C466.394 66.5975 469.493 66.048 472.52 66.5233C483.72 67.7554 487.704 83.5641 487.704 83.5641C488.029 82.2583 488.804 81.109 489.893 80.3186C490.982 79.5283 492.315 79.1477 493.657 79.2439C498.793 79.2439 506.601 86.8443 504.745 95.2447C504.745 95.2447 517.882 91.1325 524.858 101.645C531.835 112.158 531.019 123.614 514.186 128.126C496.585 132.847 496.745 112.318 494.073 109.645C491.401 106.973 488.536 103.901 478.68 107.597C468.823 111.294 458.551 100.413 458.551 100.413C458.551 100.413 456.951 113.55 455.271 114.814C453.591 116.078 450.343 117.694 451.159 111.534C451.975 105.373 453.015 105.981 452.391 104.349C451.767 102.717 448.998 97.5168 443.158 102.093C436.598 107.117 440.694 117.646 440.694 117.646Z" fill="#332B1E"/>
<path d="M443.494 119.918C439.574 116.718 436.854 110.829 440.294 105.037C443.734 99.2449 449.383 98.4609 451.095 100.653C452.807 102.845 453.479 106.541 451.863 110.926" stroke="#332B1E" stroke-width="1.60008" stroke-linecap="round" stroke-linejoin="round"/>
<path d="M347.249 512.37L349.201 516.866L343.169 540.419C342.788 541.874 342.824 543.406 343.274 544.841C343.724 546.276 344.57 547.555 345.713 548.531V548.531L375.587 504.321C376.958 502.287 377.558 499.83 377.279 497.392C377 494.955 375.861 492.697 374.067 491.024L367.378 484.816L347.249 512.37Z" fill="black"/>
<path d="M449.942 82.9401C449.942 82.9401 447.638 75.4997 440.774 73.5316" stroke="#332B1E" stroke-width="1.60008" stroke-linecap="round" stroke-linejoin="round"/>
<path d="M304.415 251.973L387.267 136.239" stroke="#2A1E17" stroke-width="1.60008" stroke-linecap="round" stroke-linejoin="round"/>
<path d="M421.429 144.335C418.437 148.223 417.077 164.928 430.822 166C438.66 166.78 446.544 165.049 453.335 161.056" stroke="#2A1E17" stroke-width="1.60008" stroke-linecap="round" stroke-linejoin="round"/>
<path d="M237.98 90.9565C237.98 90.9565 247.452 103.485 248.94 107.949" stroke="#2A1E17" stroke-width="1.60008" stroke-linecap="round" stroke-linejoin="round"/>
<path d="M592.622 259.013C592.622 259.013 599.022 264.213 611.55 257.413C616.111 254.965 612.863 249.188 607.07 250.629C601.278 252.069 594.43 249.908 594.43 249.908" stroke="#2A1E17" stroke-width="1.60008" stroke-linecap="round" stroke-linejoin="round"/>
<path d="M619.055 248.932C619.055 248.932 625.119 256.021 624.959 260.229" stroke="#2A1E17" stroke-width="1.60008" stroke-linecap="round" stroke-linejoin="round"/>
<path d="M529.707 248.164C529.707 248.164 535.195 240.852 542.219 240.356" stroke="#2A1E17" stroke-width="1.60008" stroke-linecap="round" stroke-linejoin="round"/>
<path d="M298.255 151.456C298.255 151.456 301.455 141.471 311.728 139.647" stroke="#2A1E17" stroke-width="1.60008" stroke-linecap="round" stroke-linejoin="round"/>
<path d="M326.08 302.951L313.824 326.328C313.824 326.328 273.438 394.668 287.15 438.83" stroke="#2A1E17" stroke-width="1.60008" stroke-linecap="round" stroke-linejoin="round"/>
<path d="M361.858 381.355L401.588 313.24C401.588 313.24 453.671 237.7 458.999 227.123L477.384 193.122" stroke="#2A1E17" stroke-width="1.60008" stroke-linecap="round" stroke-linejoin="round"/>
<path d="M309.983 259.237C309.983 259.237 380.659 310.76 401.604 313.24" stroke="#2A1E17" stroke-width="1.60008" stroke-linecap="round" stroke-linejoin="round"/>
<path d="M346.785 132.415C346.785 132.415 346.785 164.752 355.442 178.001" stroke="#2A1E17" stroke-width="1.60008" stroke-linecap="round" stroke-linejoin="round"/>
<path d="M502.425 196.082C500.201 209.394 470.712 237.38 470.712 237.38" stroke="#2A1E17" stroke-width="1.60008" stroke-linecap="round" stroke-linejoin="round"/>
<path d="M282.318 362.042C284.633 362.042 286.51 360.165 286.51 357.85C286.51 355.535 284.633 353.658 282.318 353.658C280.003 353.658 278.126 355.535 278.126 357.85C278.126 360.165 280.003 362.042 282.318 362.042Z" fill="#2A1E17"/>
<path d="M676.002 448.014L673.682 431.966L687.362 441.07L680.21 442.622L676.002 448.014Z" stroke="#2A1E17" stroke-width="1.60008" stroke-linecap="round" stroke-linejoin="round"/>
<path d="M221.979 174.033C196.042 151.136 153.176 208.21 309.984 389.883C400.468 494.689 471.592 504.081 481.192 467.615C498.473 402.204 436.07 385.675 459.303 411.293C493.065 448.542 589.085 456.415 660.657 421.661C731.269 387.355 687.858 334.089 683.474 330.969" stroke="#2A1E17" stroke-width="1.60008" stroke-linecap="round" stroke-linejoin="round"/>
<path d="M661.841 425.517C664.156 425.517 666.033 423.64 666.033 421.325C666.033 419.01 664.156 417.133 661.841 417.133C659.526 417.133 657.649 419.01 657.649 421.325C657.649 423.64 659.526 425.517 661.841 425.517Z" fill="#2A1E17"/>
<path d="M600.782 455.583L725.156 385.467" stroke="#2A1E17" stroke-width="1.60008" stroke-linecap="round" stroke-linejoin="round"/>
<path d="M224.571 181.617C226.886 181.617 228.763 179.74 228.763 177.425C228.763 175.11 226.886 173.233 224.571 173.233C222.256 173.233 220.379 175.11 220.379 177.425C220.379 179.74 222.256 181.617 224.571 181.617Z" fill="#2A1E17"/>
<path d="M331.569 99.789C336.544 99.789 340.577 95.7557 340.577 90.7805C340.577 85.8053 336.544 81.7721 331.569 81.7721C326.593 81.7721 322.56 85.8053 322.56 90.7805C322.56 95.7557 326.593 99.789 331.569 99.789Z" fill="#FFBE01"/>
<path d="M168.233 22.1211C167.447 22.1179 166.678 22.3479 166.024 22.782C165.369 23.2161 164.858 23.8348 164.555 24.5596C164.252 25.2844 164.171 26.0828 164.323 26.8536C164.474 27.6244 164.851 28.3329 165.405 28.8895C165.959 29.4461 166.666 29.8256 167.436 29.98C168.207 30.1344 169.005 30.0568 169.731 29.7569C170.457 29.457 171.078 28.9484 171.515 28.2955C171.952 27.6426 172.185 26.8748 172.185 26.0893C172.185 25.0396 171.769 24.0327 171.028 23.289C170.287 22.5452 169.282 22.1253 168.233 22.1211V22.1211Z" fill="white"/>
<path d="M698.483 513.634C700.666 513.634 702.435 511.864 702.435 509.681C702.435 507.499 700.666 505.729 698.483 505.729C696.3 505.729 694.531 507.499 694.531 509.681C694.531 511.864 696.3 513.634 698.483 513.634Z" fill="white"/>
<path d="M627.775 330.953L585.197 311C584.447 310.629 583.817 310.053 583.38 309.339C582.943 308.624 582.717 307.801 582.729 306.964C582.741 306.127 582.989 305.31 583.446 304.609C583.903 303.907 584.549 303.349 585.309 302.999L664.449 268.181C665.004 267.936 665.603 267.81 666.209 267.81C666.816 267.81 667.415 267.936 667.969 268.181L722.372 291.511L627.775 330.953Z" fill="#332B1E"/>
<path d="M625.199 265.349C625.295 282.95 627.823 330.953 627.823 330.953L722.42 291.447L720.292 224.643C720.264 223.696 720.002 222.77 719.53 221.949C719.058 221.127 718.389 220.435 717.584 219.934C716.78 219.434 715.863 219.14 714.918 219.079C713.972 219.019 713.026 219.193 712.164 219.587L630.736 256.709C629.074 257.457 627.666 258.672 626.683 260.206C625.7 261.74 625.185 263.527 625.199 265.349V265.349Z" fill="white"/>
<path d="M627.775 330.953L722.372 291.447L720.244 224.643C720.244 224.643 719.62 217.347 712.116 219.587" stroke="#2A1E17" stroke-width="1.60008" stroke-linecap="round" stroke-linejoin="round"/>
<path d="M673.554 282.934L679.938 267.845" stroke="#2A1E17" stroke-width="1.60008" stroke-linecap="round" stroke-linejoin="round"/>
<path d="M679.938 282.934L686.322 267.845" stroke="#2A1E17" stroke-width="1.60008" stroke-linecap="round" stroke-linejoin="round"/>
<path d="M185.273 447.582C187.456 447.582 189.225 445.813 189.225 443.63C189.225 441.447 187.456 439.678 185.273 439.678C183.091 439.678 181.321 441.447 181.321 443.63C181.321 445.813 183.091 447.582 185.273 447.582Z" fill="#FFBE01"/>
<path d="M518.938 468.751C521.978 468.751 524.442 466.287 524.442 463.247C524.442 460.207 521.978 457.743 518.938 457.743C515.898 457.743 513.434 460.207 513.434 463.247C513.434 466.287 515.898 468.751 518.938 468.751Z" fill="#FFBE01"/>
<path d="M226.3 502.337C241.967 509.537 259.028 513.197 276.27 513.058C276.59 513.06 276.906 513.13 277.197 513.262C277.488 513.395 277.748 513.588 277.96 513.828C278.171 514.068 278.329 514.351 278.424 514.656C278.519 514.962 278.548 515.284 278.51 515.602L275.054 542.995C274.985 543.47 274.767 543.911 274.43 544.254C274.093 544.596 273.656 544.822 273.182 544.899C266.173 546.227 237.98 550.1 216.827 532.099C216.505 531.823 216.268 531.461 216.144 531.056C216.019 530.651 216.012 530.219 216.123 529.811L223.099 503.681C223.196 503.364 223.361 503.072 223.583 502.826C223.805 502.58 224.078 502.386 224.384 502.258C224.689 502.13 225.019 502.07 225.351 502.084C225.682 502.098 226.006 502.184 226.3 502.337V502.337Z" fill="white"/>
<path d="M228.779 510.338C228.779 510.338 240.972 527.474 245.324 529.939C249.676 532.403 273.166 518.386 273.166 518.386" stroke="#2A1E17" stroke-width="1.60008" stroke-linecap="round" stroke-linejoin="round"/>
<path d="M256.829 527.57L269.646 540.739" stroke="#2A1E17" stroke-width="1.60008" stroke-linecap="round" stroke-linejoin="round"/>
<path d="M239.02 525.026L224.027 529.106" stroke="#2A1E17" stroke-width="1.60008" stroke-linecap="round" stroke-linejoin="round"/>
<path d="M618.703 178.145H604.382V192.466H618.703V178.145Z" fill="#FFBE01"/>
<path d="M606.318 371.259L610.574 378.635L614.831 386.011H606.318H597.822L602.062 378.635L606.318 371.259Z" fill="white"/>
<path d="M262.221 44.7142L263.341 11.2405C263.213 8.04036 264.493 7.12831 266.413 6.69629C275.502 4.69619 303.215 -1.46411 333.185 7.41633C337.073 8.56839 336.945 10.6165 336.881 12.4726L335.809 44.3782C335.731 44.9744 335.529 45.5477 335.216 46.061C334.902 46.5744 334.485 47.0164 333.991 47.3586C333.496 47.7008 332.935 47.9356 332.345 48.0479C331.754 48.1601 331.146 48.1473 330.561 48.0104C319.667 46.7067 308.696 46.172 297.727 46.4103C287.177 46.3653 276.643 47.2164 266.237 48.9544C263.261 49.5144 262.141 47.3383 262.221 44.7142Z" stroke="#2A1E17" stroke-width="1.60008" stroke-linecap="round" stroke-linejoin="round"/>
<path d="M272.333 39.9139L289.838 19.4329L309.199 38.5538C302.511 36.2977 272.333 39.9139 272.333 39.9139Z" stroke="#2A1E17" stroke-width="1.60008" stroke-linecap="round" stroke-linejoin="round"/>
<path d="M300.543 28.8414L314.688 17.5128L326.608 26.0253L327.056 39.3219L309.183 38.4579" stroke="#2A1E17" stroke-width="1.60008" stroke-linecap="round" stroke-linejoin="round"/>
<path d="M279.895 17.8292C280.057 16.2202 278.656 14.7611 276.766 14.5701C274.876 14.3791 273.212 15.5285 273.049 17.1375C272.886 18.7465 274.287 20.2057 276.177 20.3967C278.068 20.5877 279.732 19.4382 279.895 17.8292Z" stroke="#2A1E17" stroke-width="1.60008" stroke-linecap="round" stroke-linejoin="round"/>
<path d="M600.478 479.472L612.207 501.137C613.439 503.073 613.007 504.177 611.935 505.169C606.91 509.825 591.598 524.002 569.196 529.538C566.3 530.258 565.612 528.898 564.972 527.698L553.772 507.041C553.602 506.632 553.52 506.192 553.529 505.75C553.539 505.307 553.64 504.871 553.826 504.47C554.013 504.068 554.281 503.71 554.613 503.417C554.945 503.124 555.334 502.904 555.756 502.769C563.162 499.554 570.327 495.811 577.197 491.569C583.963 487.714 590.387 483.287 596.398 478.336C597.998 476.736 599.598 477.776 600.478 479.472Z" stroke="#2A1E17" stroke-width="1.60008" stroke-linecap="round" stroke-linejoin="round"/>
<path d="M595.87 486.336L592.366 505.841L572.973 500.897C578.013 499.809 595.87 486.336 595.87 486.336Z" stroke="#2A1E17" stroke-width="1.60008" stroke-linecap="round" stroke-linejoin="round"/>
<path d="M582.029 503.809L577.245 516.258L566.524 515.282L561.292 506.993L572.957 500.897" stroke="#2A1E17" stroke-width="1.60008" stroke-linecap="round" stroke-linejoin="round"/>
<path d="M602.375 504.145C603.645 503.564 604.275 502.221 603.783 501.144C603.291 500.067 601.863 499.664 600.593 500.244C599.323 500.825 598.692 502.168 599.184 503.245C599.677 504.322 601.105 504.725 602.375 504.145Z" stroke="#2A1E17" stroke-width="1.60008" stroke-linecap="round" stroke-linejoin="round"/>
<path d="M543.355 109.565L591.022 146.047C591.269 146.238 591.553 146.378 591.855 146.458C592.158 146.539 592.473 146.558 592.783 146.515C593.093 146.471 593.391 146.367 593.66 146.207C593.929 146.047 594.164 145.835 594.35 145.583L601.55 135.823C601.904 135.336 602.057 134.732 601.976 134.136C601.896 133.54 601.588 132.998 601.118 132.623L554.124 95.0047C553.875 94.8059 553.588 94.6597 553.28 94.5752C552.973 94.4906 552.652 94.4694 552.336 94.5128C552.02 94.5562 551.717 94.6633 551.444 94.8276C551.171 94.992 550.934 95.2101 550.748 95.4687L542.875 106.349C542.522 106.843 542.374 107.454 542.464 108.055C542.553 108.655 542.873 109.197 543.355 109.565V109.565Z" fill="white" stroke="#2A1E17" stroke-width="1.60008" stroke-linecap="round" stroke-linejoin="round"/>
<path d="M546.875 107.933L558.428 116.046L565.26 107.901L553.692 98.2529L546.875 107.933Z" fill="#FFBE01"/>
<path d="M562.78 119.214L574.365 128.398L580.573 120.766L568.908 111.31L562.78 119.214Z" fill="white"/>
<path d="M578.253 131.919L589.821 140.031L595.326 132.959L584.381 123.79L578.253 131.919Z" fill="white"/>
<path d="M638.48 58.5549L649.344 149.759C649.394 150.239 649.539 150.705 649.771 151.128C650.004 151.55 650.319 151.922 650.698 152.221C651.078 152.519 651.513 152.738 651.979 152.865C652.444 152.992 652.93 153.024 653.409 152.96L671.81 150.431C672.733 150.307 673.571 149.829 674.148 149.097C674.724 148.365 674.993 147.438 674.898 146.511L665.985 54.7627C665.936 54.278 665.79 53.8082 665.554 53.3819C665.318 52.9555 664.999 52.5814 664.614 52.2822C664.23 51.9831 663.789 51.765 663.317 51.6413C662.846 51.5176 662.355 51.4908 661.873 51.5625L641.536 54.5387C640.602 54.6738 639.758 55.1705 639.186 55.9216C638.615 56.6728 638.361 57.6184 638.48 58.5549Z" fill="white" stroke="#2A1E17" stroke-width="1.60008" stroke-linecap="round" stroke-linejoin="round"/>
<path d="M644.032 60.683L647.472 82.028L663.697 80.828L661.921 57.8348L644.032 60.683Z" fill="#FFBE01"/>
<path d="M648.64 90.1885L650.928 112.702L665.937 111.358L663.857 88.4764L648.64 90.1885Z" fill="#91BA83"/>
<path d="M651.217 120.75L654.657 142.095L668.305 140.591L666.657 118.782L651.217 120.75Z" fill="white"/>
<path d="M614.767 77.9798L644.848 166.416C644.97 166.777 645.163 167.109 645.415 167.394C645.667 167.679 645.973 167.911 646.316 168.076C646.658 168.241 647.03 168.337 647.41 168.357C647.79 168.377 648.17 168.321 648.528 168.192L667.377 161.408C668.073 161.154 668.645 160.641 668.972 159.977C669.3 159.312 669.359 158.547 669.137 157.84L640.896 68.5393C640.777 68.1685 640.585 67.8256 640.33 67.5313C640.076 67.2369 639.764 66.9972 639.414 66.8267C639.064 66.6562 638.683 66.5585 638.294 66.5393C637.905 66.5202 637.517 66.58 637.152 66.7153L616.479 74.3796C615.776 74.6329 615.203 75.1533 614.882 75.8275C614.561 76.5017 614.52 77.2752 614.767 77.9798V77.9798Z" fill="white" stroke="#2A1E17" stroke-width="1.60008" stroke-linecap="round" stroke-linejoin="round"/>
<path d="M620.863 79.5959L628.671 99.7729L644.288 95.2127L637.776 73.0836L620.863 79.5959Z" fill="white"/>
<path d="M631.52 107.501L638.432 129.054L652.833 124.606L646.048 102.653L631.52 107.501Z" fill="#FFBE01"/>
<path d="M640.384 136.863L648.192 157.024L661.233 152.704L655.089 131.711L640.384 136.863Z" fill="white"/>
<path d="M388.035 189.681H236.108C231.265 189.681 227.339 193.607 227.339 198.45V219.011C227.339 223.854 231.265 227.779 236.108 227.779H388.035C392.878 227.779 396.804 223.854 396.804 219.011V198.45C396.804 193.607 392.878 189.681 388.035 189.681Z" fill="#35A55D"/>
<path d="M331.104 200.898H248.284C246.685 200.898 245.388 202.195 245.388 203.794C245.388 205.394 246.685 206.69 248.284 206.69H331.104C332.704 206.69 334.001 205.394 334.001 203.794C334.001 202.195 332.704 200.898 331.104 200.898Z" fill="white"/>
<path d="M246.22 214.211H387.011" stroke="#2A1E17" stroke-width="1.60008" stroke-linecap="round" stroke-linejoin="round"/>
<path d="M174.181 117.997L176.577 120.62C177.063 121.152 177.318 121.856 177.286 122.577C177.253 123.298 176.935 123.976 176.403 124.463L172.481 128.045C171.948 128.532 171.244 128.787 170.523 128.754C169.802 128.722 169.124 128.404 168.638 127.871L166.242 125.249L174.181 117.997V117.997Z" fill="#91BA83"/>
<path d="M152.608 112.899L163.906 125.268C164.49 125.907 165.482 125.952 166.122 125.368L173.931 118.235C174.57 117.651 174.615 116.659 174.031 116.02L162.732 103.65C162.148 103.011 161.156 102.966 160.517 103.55L152.708 110.683C152.068 111.267 152.024 112.259 152.608 112.899Z" stroke="#2A1E17" stroke-width="1.60008" stroke-linecap="round" stroke-linejoin="round"/>
<path d="M140.807 169.104H126.614V182.065H140.807V169.104Z" fill="#FFBE01"/>
<path d="M126.614 160.768V169.104H118.134" stroke="#2A1E17" stroke-width="1.60008" stroke-linecap="round" stroke-linejoin="round"/>
<path d="M608.43 22.7451H594.238V35.7057H608.43V22.7451Z" fill="white"/>
<path d="M594.238 14.4087V22.7451H585.757" stroke="#2A1E17" stroke-width="1.60008" stroke-linecap="round" stroke-linejoin="round"/>
<path d="M210.09 102.861C62.8831 41.866 -50.3386 159.344 227.035 339.225C248.876 353.402 282.382 358.426 282.382 358.426" stroke="#2A1E17" stroke-width="1.60008" stroke-linecap="round" stroke-linejoin="round"/>
<path d="M74.7396 111.15C77.0549 111.15 78.9318 109.273 78.9318 106.957C78.9318 104.642 77.0549 102.765 74.7396 102.765C72.4243 102.765 70.5474 104.642 70.5474 106.957C70.5474 109.273 72.4243 111.15 74.7396 111.15Z" fill="#2A1E17"/>
<path d="M48.0505 83.9321L52.6428 79.5159L63.1873 85.5642L68.4996 101.933L52.2907 95.1487L48.0505 83.9321Z" stroke="#2A1E17" stroke-width="1.60008" stroke-linecap="round" stroke-linejoin="round"/>
<path d="M52.6427 79.5159L48.0505 83.9321L45.4744 80.812L49.8746 76.5878L52.6427 79.5159Z" stroke="#2A1E17" stroke-width="1.60008" stroke-linecap="round" stroke-linejoin="round"/>
<path d="M68.4994 101.933L57.9548 90.3645" stroke="#2A1E17" stroke-width="1.60008" stroke-linecap="round" stroke-linejoin="round"/>
<path d="M93.9726 395.676L105.397 454.623C105.458 454.929 105.579 455.22 105.753 455.479C105.927 455.738 106.151 455.961 106.411 456.133C106.671 456.306 106.963 456.425 107.27 456.484C107.576 456.544 107.892 456.542 108.197 456.479L120.07 453.951C120.665 453.823 121.187 453.47 121.527 452.966C121.867 452.462 121.999 451.846 121.894 451.247L111.749 391.932C111.694 391.618 111.576 391.319 111.402 391.053C111.228 390.786 111.002 390.558 110.738 390.381C110.473 390.205 110.175 390.084 109.862 390.026C109.549 389.968 109.228 389.974 108.917 390.044L95.8127 392.956C95.5131 393.013 95.2278 393.129 94.9732 393.297C94.7185 393.465 94.4995 393.681 94.3286 393.934C94.1577 394.187 94.0383 394.471 93.9772 394.77C93.9161 395.068 93.9145 395.376 93.9726 395.676V395.676Z" fill="white" stroke="#2A1E17" stroke-width="1.60008" stroke-linecap="round" stroke-linejoin="round"/>
<path d="M97.7329 396.796L100.997 410.541L111.494 408.988L109.253 394.092L97.7329 396.796Z" fill="#FFBE01"/>
<path d="M102.149 415.805L104.709 430.35L114.422 428.765L111.974 413.949L102.149 415.805Z" fill="white"/>
<path d="M105.285 435.582L108.534 449.326L117.35 447.678L115.254 433.566L105.285 435.582Z" fill="white"/>
<path d="M421.525 543.379L469.847 530.45L471.703 535.683L422.821 548.371L421.525 543.379Z" stroke="#2A1E17" stroke-width="1.60008" stroke-linecap="round" stroke-linejoin="round"/>
<path d="M414.805 536.627L416.213 541.011" stroke="#2A1E17" stroke-width="1.60008" stroke-linecap="round" stroke-linejoin="round"/>
<path d="M413.445 539.491L417.525 538.083" stroke="#2A1E17" stroke-width="1.60008" stroke-linecap="round" stroke-linejoin="round"/>
<path d="M412.469 553.38L415.093 561.668" stroke="#2A1E17" stroke-width="1.60008" stroke-linecap="round" stroke-linejoin="round"/>
<path d="M410.229 558.628L417.493 556.324" stroke="#2A1E17" stroke-width="1.60008" stroke-linecap="round" stroke-linejoin="round"/>
<path d="M401.412 539.715L404.852 550.692" stroke="#2A1E17" stroke-width="1.60008" stroke-linecap="round" stroke-linejoin="round"/>
<path d="M398.004 546.547L408.18 543.299" stroke="#2A1E17" stroke-width="1.60008" stroke-linecap="round" stroke-linejoin="round"/>
<path d="M69.0756 18.2969L38.498 4.48817L39.7621 1L70.5317 15.1607L69.0756 18.2969Z" stroke="#2A1E17" stroke-width="1.07205" stroke-linecap="round" stroke-linejoin="round"/>
<path d="M69.6995 24.6652L70.8355 21.785" stroke="#2A1E17" stroke-width="1.07205" stroke-linecap="round" stroke-linejoin="round"/>
<path d="M71.6195 23.7531L68.8994 22.7451" stroke="#2A1E17" stroke-width="1.07205" stroke-linecap="round" stroke-linejoin="round"/>
<path d="M78.02 16.9528L80.1801 11.5445" stroke="#2A1E17" stroke-width="1.07205" stroke-linecap="round" stroke-linejoin="round"/>
<path d="M81.412 15.1767L76.6758 13.2886" stroke="#2A1E17" stroke-width="1.07205" stroke-linecap="round" stroke-linejoin="round"/>
<path d="M77.9558 28.7454L80.836 21.593" stroke="#2A1E17" stroke-width="1.07205" stroke-linecap="round" stroke-linejoin="round"/>
<path d="M82.628 26.6493L75.9717 24.0092" stroke="#2A1E17" stroke-width="1.07205" stroke-linecap="round" stroke-linejoin="round"/>
<path d="M183.401 276.63C161.832 261.109 140.647 236.98 149.944 212.195C149.944 212.195 164.808 202.29 188.345 214.675L211.899 227.123L183.401 276.63Z" fill="white"/>
<path d="M173.625 380.043C163.912 375.451 122.502 353.882 115.126 317.032C108.725 285.222 133.111 242.292 145.303 223.315C144.519 248.484 169.8 269.797 181.993 278.566C192.368 286.194 203.815 292.244 215.963 296.519L173.625 380.043Z" fill="white"/>
<path d="M143.447 230.804C146.087 247.54 158.856 264.869 180.585 280.518C190.39 287.753 201.162 293.576 212.587 297.815L172.585 376.859C160.36 370.778 124.246 350.201 117.51 316.568C111.926 288.614 130.871 251.541 143.479 230.804M149.976 212.195C149.976 212.195 104.133 274.15 112.806 317.512C121.478 360.874 174.761 383.115 174.761 383.115L219.355 295.111C205.418 290.006 196.362 285.846 183.433 276.534C161.864 261.013 140.679 236.884 149.976 212.099V212.195Z" fill="white"/>
<path d="M137.895 248.196C139.239 256.256 142.424 263.896 147.203 270.524C151.982 277.151 158.226 282.586 165.448 286.406" stroke="#2A1E17" stroke-width="1.60008" stroke-linecap="round" stroke-linejoin="round"/>
<path d="M178.761 295.303L203.642 308.631" stroke="#2A1E17" stroke-width="1.60008" stroke-linecap="round" stroke-linejoin="round"/>
<path d="M141.447 283.75C141.447 283.75 149.447 301.527 175.209 313.08" stroke="#2A1E17" stroke-width="1.60008" stroke-linecap="round" stroke-linejoin="round"/>
<path d="M120.998 286.406C120.998 286.406 121.894 305.079 134.327 311.303" stroke="#2A1E17" stroke-width="1.60008" stroke-linecap="round" stroke-linejoin="round"/>
<path d="M149.448 221.539C149.448 221.539 147.143 245.54 183.401 276.63" stroke="#2A1E17" stroke-width="1.60008" stroke-linecap="round" stroke-linejoin="round"/>
<path d="M162.776 225.987C162.776 225.987 174.329 225.091 191.21 237.54" stroke="#2A1E17" stroke-width="1.60008" stroke-linecap="round" stroke-linejoin="round"/>
<path d="M108.373 302.503C107.637 314.392 109.125 357.482 171.529 384.971" stroke="#2A1E17" stroke-width="1.60008" stroke-linecap="round" stroke-linejoin="round"/>
<path d="M506.905 278.534L480.44 331.577C480.44 331.577 498.393 338.185 484.36 358.778C484.36 358.778 517.546 372.539 539.259 336.809C560.972 301.079 506.905 278.534 506.905 278.534Z" fill="#91BA83"/>
<path d="M446.326 440.654C432.934 440.654 418.805 435.182 404.292 424.381L453.799 342.329L483.256 360.874L483.448 360.954C488.597 362.844 494.045 363.787 499.529 363.738C508.832 363.795 517.918 360.924 525.498 355.53L489.304 417.533C489.224 417.645 473.64 440.702 446.326 440.702V440.654Z" fill="white"/>
<path d="M454.599 345.689L481.8 362.826L482.152 363.05L482.52 363.194C487.963 365.206 493.726 366.215 499.529 366.17C506.197 366.195 512.795 364.81 518.89 362.106L487.304 416.141C486.28 417.645 471.623 438.254 446.342 438.254C434.006 438.254 420.949 433.374 407.476 423.741L454.599 345.689M539.259 336.793C526.986 356.986 511.066 361.37 499.529 361.37C494.358 361.413 489.22 360.53 484.36 358.762L453.015 339.033L401.188 424.989C418.501 438.334 433.654 443.134 446.342 443.134C475.32 443.134 491.384 418.781 491.384 418.781L539.259 336.873V336.793Z" fill="#96BD89"/>
<path d="M480.44 331.577C480.44 331.577 500.185 338.553 484.36 358.778" stroke="#2A1E17" stroke-width="1.60008" stroke-linecap="round" stroke-linejoin="round"/>
<path d="M452.391 337.177C452.391 337.177 479.288 361.818 494.169 361.642C509.049 361.466 526.522 357.946 536.811 340.185" stroke="#2A1E17" stroke-width="1.60008" stroke-linecap="round" stroke-linejoin="round"/>
<path d="M455.703 369.05C455.703 369.05 474.152 385.435 494.793 380.171" stroke="#2A1E17" stroke-width="1.60008" stroke-linecap="round" stroke-linejoin="round"/>
<path d="M475.08 393.532C475.08 393.532 484.76 400.78 498.297 393.916" stroke="#2A1E17" stroke-width="1.60008" stroke-linecap="round" stroke-linejoin="round"/>
<path d="M430.534 403.644C430.534 403.644 452.935 425.869 488.056 411.212" stroke="#2A1E17" stroke-width="1.60008" stroke-linecap="round" stroke-linejoin="round"/>
<path d="M442.694 381.963C442.694 381.963 451.815 388.491 457.527 390.571" stroke="#2A1E17" stroke-width="1.60008" stroke-linecap="round" stroke-linejoin="round"/>
<path d="M511.45 293.927C511.45 293.927 531.851 300.599 534.299 327.528" stroke="#2A1E17" stroke-width="1.60008" stroke-linecap="round" stroke-linejoin="round"/>
<path d="M521.706 327.192C521.706 327.192 531.099 341.737 515.226 356.266" stroke="#2A1E17" stroke-width="1.60008" stroke-linecap="round" stroke-linejoin="round"/>
<path d="M403.012 429.053C403.012 429.053 454.215 472.928 491.417 421.629" stroke="#2A1E17" stroke-width="1.60008" stroke-linecap="round" stroke-linejoin="round"/>
<path d="M33.2498 261.973H45.1864" stroke="#FFBE01" stroke-width="1.60008" stroke-linecap="round" stroke-linejoin="round"/>
<path d="M698.483 118.334H710.419" stroke="#FFBE01" stroke-width="1.60008" stroke-linecap="round" stroke-linejoin="round"/>
<path d="M378.227 36.4098H390.18" stroke="white" stroke-width="1.60008" stroke-miterlimit="10"/>
<path d="M721.284 180.273L733.029 182.385" stroke="white" stroke-width="1.60008" stroke-miterlimit="10"/>
<path d="M252.173 478.256H264.125" stroke="white" stroke-width="1.60008" stroke-linecap="round" stroke-linejoin="round"/>
<path d="M747.013 333.337C749.196 333.337 750.965 331.567 750.965 329.384C750.965 327.202 749.196 325.432 747.013 325.432C744.83 325.432 743.061 327.202 743.061 329.384C743.061 331.567 744.83 333.337 747.013 333.337Z" fill="#91BA83"/>
<path d="M3.9522 143.535C6.13494 143.535 7.9044 141.766 7.9044 139.583C7.9044 137.4 6.13494 135.631 3.9522 135.631C1.76946 135.631 0 137.4 0 139.583C0 141.766 1.76946 143.535 3.9522 143.535Z" fill="#91BA83"/>
</svg>
