<svg width="301" height="378" viewBox="0 0 301 378" fill="none" xmlns="http://www.w3.org/2000/svg">
<path fill-rule="evenodd" clip-rule="evenodd" d="M253.592 92.2042L252.768 149.126L270.418 149.381L269.996 178.536C269.484 213.878 240.419 242.114 205.076 241.603L92.0883 239.967C56.7458 239.456 28.5097 210.39 29.0213 175.047L30.6278 64.0591C31.1393 28.7166 60.2048 0.480545 95.5473 0.992111L208.536 2.62758C243.878 3.13914 272.114 32.2046 271.603 67.5471L271.242 92.4597L253.592 92.2042ZM192.853 166.345C181.27 175.951 169.294 185.873 147.863 185.563C111.252 185.033 81.8851 154.803 82.415 118.193C82.945 81.5832 113.175 52.2159 149.785 52.7459C171.463 53.0596 183.108 63.3529 194.37 73.3275L194.395 73.3497C198.304 76.7966 202.353 80.3677 207.019 83.7966C208.953 85.191 216.416 87.5384 225.162 89.6672L225.271 82.1535L244.245 82.4281L244.083 93.6038L243.304 147.442L243.142 158.627L224.168 158.353L224.276 150.858C215.453 152.751 207.907 154.891 205.933 156.219C201.176 159.446 197.026 162.886 193.014 166.211L193.014 166.211L192.853 166.345ZM146.751 77.8432C154.751 88.3422 153.751 102.373 143.251 111.342C135.751 116.842 119.251 136.342 118.736 163.605C106.751 156.342 100.751 145.342 100.751 145.342C87.2507 119.342 91.0925 92.8432 112.751 74.3432C122.943 65.6372 137.251 66.7209 146.751 77.8432Z" fill="#602BC1"/>
<path d="M94.6328 307.098L94.6058 302.06L73.4961 302.173L73.3116 267.67L67.6993 267.7L67.9107 307.241L94.6328 307.098ZM109.809 307.974C113.572 307.954 116.943 306.277 118.401 304.675L118.414 306.971L123.579 306.943L123.479 288.193C123.444 281.624 118.639 277.505 111.305 277.544C107.223 277.566 103.467 278.797 101.178 280.085L101.205 285.251C103.876 283.706 106.866 282.415 110.374 282.396C115.476 282.369 118.294 284.649 118.315 288.604L118.333 291.92C116.409 289.953 113.342 288.885 109.707 288.905C102.819 288.942 97.8022 292.923 97.8311 298.344C97.8615 304.02 102.794 308.011 109.809 307.974ZM110.486 303.314C106.659 303.335 103.016 301.824 102.997 298.316C102.979 294.872 106.605 293.258 110.432 293.238C114.258 293.217 118.476 294.789 118.494 298.233C118.513 301.741 114.376 303.293 110.486 303.314ZM144.838 307.723C148.665 307.702 152.04 306.727 154.644 304.8L154.617 299.762C151.758 301.818 148.639 302.855 144.812 302.876C138.562 302.909 134.59 299.486 134.239 293.621L156.943 293.499C156.933 291.458 156.866 290.949 156.863 290.311C156.509 283.744 151.436 277.329 143.145 277.374C134.153 277.422 129.028 285.23 129.069 292.883C129.115 301.365 135.973 307.77 144.838 307.723ZM134.472 289.474C134.96 285.326 138.579 282.245 143.107 282.221C147.699 282.196 151.351 285.302 151.692 289.382L134.472 289.474ZM175.554 301.882C173.388 302.468 171.223 303.117 170.006 302.039C169.365 301.533 169.04 300.386 169.031 298.728L168.947 282.976L173.73 282.95L173.704 278.103L168.921 278.129L168.883 270.986L163.717 271.013L163.755 278.156L159.865 278.177L159.891 283.024L163.781 283.003L163.867 299.075C163.886 302.646 164.792 305.065 166.713 306.521C168.697 307.85 171.759 307.898 175.579 306.602L175.554 301.882ZM201.712 277.953L201.797 293.897C201.824 298.999 198.463 302.589 193.553 302.615C188.77 302.641 185.947 299.531 185.919 294.301L185.832 278.038L180.666 278.066L180.761 295.923C180.798 302.811 185.479 307.505 192.367 307.468C196.449 307.447 199.565 305.772 201.843 302.443L201.865 306.525L207.031 306.497L206.878 277.926L201.712 277.953ZM223.443 307.302C229.821 307.268 234.393 303.608 234.366 298.57C234.346 294.744 232.035 291.95 227.817 290.442L222.514 288.557C219.127 287.363 218.23 286.602 218.223 285.199C218.212 283.159 220.182 281.809 223.434 281.791C225.922 281.778 227.581 282.024 233.213 285.629L233.184 280.336C230.942 278.435 226.98 276.925 223.408 276.944C217.286 276.977 213.031 280.38 213.057 285.227C213.078 289.117 215.323 291.593 220.371 293.288L225.674 295.045C228.038 295.862 229.192 297.067 229.2 298.598C229.213 300.957 227.052 302.436 223.417 302.455C220.611 302.47 218.633 302.29 213 298.493L213.029 303.786C215.399 305.815 219.489 307.323 223.443 307.302ZM52.194 357.219C56.3394 357.196 60.287 355.964 63.4015 353.97L63.368 347.72C60.8961 350.603 57.2053 352.153 52.2946 352.18C43.5573 352.226 37.3359 345.691 37.2868 336.507C37.2384 327.451 43.2627 320.977 51.9999 320.93C57.0382 320.903 60.6813 322.351 63.2473 325.143L63.2139 318.893C59.9504 316.87 56.1822 315.869 52.1006 315.891C39.9194 315.956 31.6159 325.567 31.6746 336.537C31.7373 348.272 40.6506 357.28 52.194 357.219ZM75.1016 356.203L74.9949 336.241C76.0586 332.409 79.8746 330.412 83.1991 331.925L83.1715 326.759C79.8538 326.521 76.7356 327.814 74.9618 330.055L74.9489 327.632L69.783 327.659L69.9358 356.231L75.1016 356.203ZM101.784 356.953C105.61 356.933 108.985 355.958 111.59 354.031L111.563 348.993C108.704 351.049 105.584 352.086 101.758 352.107C95.5077 352.14 91.5352 348.717 91.1849 342.852L113.889 342.73C113.878 340.689 113.812 340.179 113.808 339.542C113.454 332.975 108.382 326.56 100.091 326.604C91.0983 326.653 85.9741 334.461 86.015 342.114C86.0603 350.596 92.9188 357.001 101.784 356.953ZM91.4178 338.705C91.9059 334.557 95.5247 331.476 100.053 331.452C104.645 331.427 108.297 334.533 108.637 338.613L91.4178 338.705ZM129.908 356.867C133.67 356.847 137.042 355.171 138.5 353.568L138.512 355.864L143.678 355.837L143.578 337.087C143.543 330.518 138.737 326.398 131.403 326.437C127.321 326.459 123.565 327.691 121.276 328.978L121.304 334.144C123.974 332.599 126.965 331.308 130.472 331.289C135.574 331.262 138.393 333.543 138.414 337.497L138.432 340.813C136.508 338.846 133.441 337.779 129.806 337.798C122.918 337.835 117.901 341.816 117.93 347.237C117.96 352.913 122.892 356.904 129.908 356.867ZM130.584 352.208C126.758 352.228 123.114 350.717 123.095 347.209C123.077 343.765 126.704 342.151 130.53 342.131C134.357 342.11 138.575 343.682 138.593 347.126C138.612 350.634 134.475 352.187 130.584 352.208ZM163.826 350.946C161.661 351.531 159.496 352.18 158.279 351.103C157.638 350.596 157.313 349.45 157.304 347.792L157.22 332.039L162.003 332.013L161.977 327.166L157.194 327.192L157.156 320.049L151.99 320.077L152.028 327.22L148.138 327.24L148.164 332.087L152.054 332.067L152.14 348.138C152.159 351.709 153.065 354.128 154.986 355.585C156.97 356.914 160.032 356.961 163.852 355.665L163.826 350.946ZM167.428 318.91C167.439 320.951 169.042 322.537 171.083 322.526C173.06 322.515 174.646 320.912 174.635 318.871C174.624 316.831 173.021 315.245 171.044 315.255C169.003 315.266 167.417 316.869 167.428 318.91ZM173.811 355.675L173.658 327.104L168.492 327.132L168.645 355.703L173.811 355.675ZM194.444 356.458C203.054 356.412 209.715 349.807 209.669 341.198C209.624 332.779 202.892 326.055 194.409 326.1C185.864 326.146 179.203 332.878 179.248 341.36C179.294 349.906 186.026 356.503 194.444 356.458ZM194.546 351.61C188.551 351.642 184.447 347.519 184.414 341.333C184.381 335.21 188.377 330.979 194.308 330.948C200.239 330.916 204.471 335.166 204.503 341.225C204.537 347.475 200.541 351.578 194.546 351.61ZM220.652 355.425L220.567 339.481C220.54 334.379 223.901 330.79 228.812 330.763C233.595 330.738 236.418 333.848 236.445 339.077L236.532 355.34L241.698 355.312L241.603 337.455C241.566 330.567 236.885 325.873 229.997 325.91C225.916 325.932 222.8 327.607 220.521 330.935L220.5 326.853L215.334 326.881L215.486 355.453L220.652 355.425ZM257.929 356.119C264.306 356.084 268.879 352.425 268.852 347.386C268.831 343.56 266.52 340.766 262.303 339.258L256.999 337.373C253.613 336.179 252.716 335.419 252.708 334.016C252.697 331.975 254.667 330.625 257.92 330.608C260.407 330.594 262.066 330.841 267.698 334.446L267.67 329.152C265.427 327.251 261.465 325.742 257.894 325.761C251.771 325.793 247.516 329.196 247.542 334.043C247.563 337.934 249.809 340.409 254.856 342.104L260.159 343.861C262.523 344.678 263.678 345.883 263.686 347.414C263.698 349.774 261.538 351.252 257.903 351.272C255.096 351.287 253.118 351.106 247.486 347.309L247.514 352.603C249.885 354.631 253.974 356.14 257.929 356.119Z" fill="#602BC1"/>
</svg>
