<svg width="502" height="501" viewBox="0 0 502 501" fill="none" xmlns="http://www.w3.org/2000/svg">
<circle cx="249.5" cy="250.5" r="164.5" transform="rotate(90 249.5 250.5)" fill="#232323"/>
<path d="M55.2216 222.063C55.1213 222.557 54.8978 222.934 54.5511 223.194C54.1762 223.412 53.7242 223.467 53.195 223.36L19.0089 216.417C18.4444 216.302 18.0497 216.075 17.8248 215.735C17.5999 215.396 17.5376 214.979 17.6379 214.485C17.7454 213.956 17.9689 213.579 18.3084 213.354C18.648 213.129 19.1 213.074 19.6645 213.189L52.6335 219.884L56.3306 201.68C56.438 201.151 56.6403 200.788 56.9374 200.591C57.2417 200.359 57.6232 200.289 58.0818 200.382C58.5757 200.483 58.9175 200.699 59.1072 201.032C59.304 201.329 59.3486 201.742 59.2411 202.271L55.2216 222.063Z" fill="#4A4A4A"/>
<path d="M63.1471 190.008C62.9385 190.545 62.6245 190.906 62.2052 191.091C61.7858 191.275 61.2909 191.257 60.7205 191.035L28.7588 178.615C28.1883 178.393 27.8108 178.073 27.6261 177.654C27.4415 177.234 27.4535 176.756 27.6621 176.219L35.0554 157.193C35.2379 156.723 35.4923 156.417 35.8185 156.273C36.1446 156.129 36.509 156.136 36.9117 156.292C37.3815 156.475 37.6882 156.729 37.8318 157.055C37.9419 157.369 37.9056 157.76 37.7231 158.23L30.8383 175.947L44.3276 181.189L50.8212 164.478C51.0038 164.008 51.2581 163.702 51.5843 163.558C51.8769 163.402 52.2413 163.408 52.6775 163.577C53.1138 163.747 53.4037 163.995 53.5473 164.321C53.6909 164.647 53.6714 165.045 53.4889 165.515L46.9953 182.226L60.988 187.663L67.8727 169.946C68.0553 169.476 68.3097 169.169 68.6358 169.026C68.9284 168.869 69.2928 168.875 69.7291 169.045C70.1653 169.214 70.4552 169.462 70.5988 169.788C70.7424 170.114 70.723 170.512 70.5404 170.982L63.1471 190.008Z" fill="#4A4A4A"/>
<path d="M75.36 161.221C75.1092 161.616 74.8153 161.878 74.4786 162.005C74.1916 162.121 73.8864 162.098 73.5632 161.935C73.2593 161.742 72.9733 161.454 72.7051 161.071L51.3925 129.56C51.0718 129.058 50.9167 128.597 50.9274 128.177C50.9077 127.738 50.9943 127.367 51.1873 127.063C51.4189 126.698 51.7279 126.447 52.1143 126.308C52.4897 126.12 52.9631 126.08 53.5348 126.187L91.117 132.079C91.5975 132.128 91.98 132.265 92.2646 132.488C92.5685 132.681 92.7289 132.932 92.7458 133.241C92.8123 133.539 92.7201 133.886 92.4692 134.281C92.199 134.707 91.8707 134.988 91.4843 135.127C91.0868 135.216 90.6326 135.226 90.1217 135.157L79.6419 133.427L81.281 132.357L68.7458 152.095L69.0463 150.111L75.068 158.861C75.408 159.333 75.5976 159.773 75.6366 160.182C75.6645 160.541 75.5723 160.887 75.36 161.221ZM54.8962 129.482L68.2085 148.811L66.9957 149.512L78.1992 131.871L78.1382 133.176L54.9541 129.391L54.8962 129.482Z" fill="#4A4A4A"/>
<path d="M108.057 116.925C107.683 117.315 107.293 117.515 106.886 117.524C106.453 117.508 106.041 117.314 105.651 116.94L81.2982 93.6515L72.3783 102.979C72.0299 103.343 71.6522 103.53 71.245 103.539C70.8378 103.548 70.4781 103.403 70.1659 103.105C69.8276 102.781 69.667 102.428 69.6839 102.046C69.7008 101.664 69.8835 101.29 70.2318 100.926L90.4229 79.8127C90.7712 79.4485 91.1236 79.2624 91.4799 79.2544C91.861 79.2205 92.2207 79.3652 92.559 79.6887C92.8972 80.0121 93.0709 80.3774 93.0799 80.7846C93.0879 81.1409 92.9177 81.5012 92.5694 81.8654L83.6121 91.2318L107.965 114.521C108.355 114.894 108.568 115.297 108.603 115.729C108.637 116.11 108.455 116.509 108.057 116.925Z" fill="#4A4A4A"/>
<path d="M137.455 91.8374C135.479 93.2201 133.538 94.1825 131.633 94.7246C129.728 95.2668 127.887 95.3681 126.112 95.0284C124.366 94.6682 122.681 93.8921 121.056 92.7002C119.461 91.4876 117.951 89.8637 116.527 87.8283L103.99 69.9085C103.66 69.4365 103.541 69.0147 103.632 68.6431C103.703 68.2421 103.945 67.8971 104.358 67.6082C104.801 67.2986 105.222 67.1793 105.623 67.2502C106.004 67.2915 106.359 67.5482 106.689 68.0202L119.072 85.7188C121.486 89.1701 124.088 91.1939 126.878 91.7904C129.677 92.3367 132.625 91.5265 135.722 89.3596C138.849 87.1721 140.62 84.6804 141.037 81.8846C141.433 79.0594 140.424 75.9211 138.009 72.4699L125.627 54.7713C125.297 54.2993 125.177 53.8775 125.269 53.5059C125.34 53.1049 125.596 52.7495 126.039 52.44C126.452 52.1511 126.859 52.0421 127.26 52.1129C127.64 52.1543 127.996 52.411 128.326 52.883L140.863 70.8029C142.761 73.5166 143.914 76.1373 144.32 78.6649C144.706 81.163 144.315 83.5238 143.146 85.7472C142.007 87.95 140.11 89.9801 137.455 91.8374Z" fill="#4A4A4A"/>
<path d="M172.329 72.3332C170.745 73.0238 169.153 73.5608 167.553 73.9442C165.953 74.3276 164.394 74.5359 162.877 74.569C161.379 74.5547 159.945 74.3745 158.577 74.0285C158.146 73.9414 157.8 73.7781 157.539 73.5387C157.296 73.2518 157.15 72.962 157.101 72.6693C157.07 72.3291 157.111 72.0168 157.222 71.7325C157.367 71.4338 157.588 71.2197 157.885 71.0902C158.168 70.9277 158.524 70.8901 158.955 70.9772C160.962 71.4374 162.922 71.5646 164.836 71.3589C166.782 71.1387 168.877 70.5395 171.121 69.5612C174.256 68.1944 176.333 66.5624 177.351 64.6652C178.403 62.7536 178.497 60.8078 177.634 58.8278C176.915 57.1778 175.776 56.1425 174.218 55.7221C172.693 55.2873 170.512 55.3741 167.675 55.9827L162.222 57.1229C158.814 57.8627 156.027 57.821 153.862 56.9978C151.696 56.1746 150.074 54.5255 148.995 52.0505C148.333 50.5325 148.033 49.0335 148.095 47.5535C148.142 46.0405 148.516 44.6011 149.217 43.2354C149.917 41.8696 150.909 40.632 152.193 39.5225C153.495 38.3657 155.054 37.3917 156.869 36.6004C159.014 35.6652 161.107 35.1062 163.148 34.9233C165.222 34.726 167.282 34.9471 169.328 35.5867C169.725 35.6882 170.046 35.8824 170.289 36.1692C170.517 36.4231 170.647 36.7201 170.677 37.0602C170.693 37.3674 170.638 37.6466 170.512 37.898C170.386 38.1493 170.182 38.3562 169.899 38.5187C169.602 38.6482 169.231 38.6528 168.786 38.5327C166.911 38.015 165.106 37.8395 163.372 38.0063C161.657 38.1257 159.892 38.5811 158.077 39.3724C156.229 40.1781 154.742 41.18 153.615 42.3783C152.521 43.5622 151.831 44.8641 151.547 46.284C151.263 47.7039 151.445 49.1564 152.092 50.6414C152.84 52.3574 153.965 53.4967 155.467 54.0593C156.969 54.6219 158.992 54.6235 161.537 54.064L167.039 52.9022C170.674 52.1421 173.602 52.1026 175.824 52.7836C178.031 53.4317 179.652 54.9437 180.688 57.3197C181.306 58.7387 181.578 60.1717 181.502 61.6187C181.444 63.0182 181.058 64.3844 180.343 65.7172C179.628 67.05 178.596 68.2855 177.246 69.4237C175.915 70.5145 174.276 71.4843 172.329 72.3332Z" fill="#4A4A4A"/>
<path d="M228.246 57.3462C224.64 57.813 221.452 57.4452 218.683 56.2427C215.909 55.0046 213.639 53.0297 211.872 50.3181C210.141 47.6019 209.017 44.2444 208.499 40.2458C208.111 37.2468 208.139 34.5206 208.584 32.0672C209.059 29.5735 209.923 27.4108 211.174 25.579C212.456 23.7069 214.111 22.1859 216.137 21.016C218.2 19.8416 220.57 19.081 223.247 18.7344C225.604 18.4293 227.843 18.4843 229.966 18.8992C232.089 19.3141 233.968 20.0873 235.603 21.2187C236.001 21.4938 236.277 21.803 236.43 22.1461C236.584 22.4893 236.628 22.8284 236.562 23.1636C236.528 23.4585 236.399 23.7292 236.177 23.9758C235.95 24.1866 235.659 24.3152 235.301 24.3614C234.976 24.3673 234.595 24.235 234.161 23.9645C232.652 22.962 231.021 22.2837 229.269 21.9297C227.553 21.571 225.695 21.5211 223.696 21.78C220.733 22.1636 218.299 23.132 216.395 24.6854C214.521 26.1984 213.206 28.2381 212.45 30.8045C211.728 33.3663 211.59 36.3608 212.033 39.7883C212.482 43.2514 213.381 46.1298 214.73 48.4235C216.116 50.7126 217.909 52.368 220.111 53.3899C222.343 54.3714 224.941 54.6703 227.904 54.2867C229.868 54.0325 231.652 53.5112 233.256 52.7227C234.855 51.8986 236.275 50.8073 237.515 49.4489C237.866 49.0767 238.202 48.8698 238.523 48.8282C238.88 48.782 239.18 48.8522 239.422 49.0386C239.695 49.1848 239.906 49.4116 240.054 49.7191C240.198 49.9908 240.238 50.2943 240.172 50.6295C240.142 50.96 239.985 51.2889 239.701 51.6161C238.346 53.2072 236.697 54.4915 234.755 55.469C232.843 56.4062 230.674 57.0319 228.246 57.3462Z" fill="#4A4A4A"/>
<path d="M253.34 55.6509C252.837 55.6153 252.452 55.4438 252.185 55.1362C251.921 54.7927 251.808 54.3516 251.846 53.8129L254.31 18.962C254.351 18.3874 254.525 17.9666 254.832 17.6997C255.176 17.4352 255.599 17.3208 256.102 17.3563L268.76 18.2515C272.782 18.5359 275.804 19.688 277.827 21.7077C279.85 23.7274 280.739 26.4609 280.495 29.9083C280.338 32.1347 279.717 34.0217 278.633 35.5691C277.552 37.0806 276.03 38.182 274.069 38.8733C272.143 39.5672 269.869 39.8215 267.248 39.6361L267.89 38.9777L268.644 39.0311C270.009 39.1276 271.168 39.5705 272.123 40.3598C273.114 41.1516 273.965 42.3847 274.677 44.0591L279.636 55.0744C279.859 55.4872 279.939 55.8898 279.875 56.2823C279.85 56.6414 279.703 56.9377 279.433 57.1713C279.167 57.369 278.836 57.4539 278.441 57.426C277.974 57.3929 277.587 57.2573 277.279 57.019C277.007 56.7832 276.777 56.4602 276.589 56.0499L271.353 44.3654C270.541 42.5757 269.579 41.3709 268.468 40.751C267.36 40.0951 265.836 39.6987 263.897 39.5615L256.194 39.0168L255.131 54.0453C255.093 54.5839 254.919 55.0047 254.609 55.3076C254.337 55.5771 253.914 55.6915 253.34 55.6509ZM256.392 36.2158L267.004 36.9662C270.2 37.1922 272.635 36.6967 274.309 35.4798C276.021 34.2295 276.97 32.2936 277.156 29.6721C277.338 27.0866 276.669 25.0723 275.147 23.6294C273.663 22.1531 271.323 21.3019 268.127 21.0759L257.516 20.3255L256.392 36.2158Z" fill="#4A4A4A"/>
<path d="M292.795 59.9496C292.238 59.8029 291.844 59.5317 291.613 59.1358C291.382 58.74 291.345 58.2462 291.501 57.6544L300.232 24.4947C300.388 23.9029 300.664 23.4915 301.06 23.2607C301.455 23.0299 301.932 22.9878 302.489 23.1345L322.228 28.3322C322.715 28.4606 323.049 28.6787 323.228 28.9865C323.408 29.2944 323.443 29.6572 323.333 30.075C323.204 30.5623 322.986 30.8958 322.678 31.0753C322.38 31.22 321.987 31.2282 321.499 31.0999L303.118 26.2597L299.433 40.2546L316.77 44.8198C317.257 44.9482 317.591 45.1663 317.77 45.4741C317.959 45.7472 317.994 46.11 317.874 46.5625C317.755 47.0151 317.542 47.3312 317.234 47.5107C316.926 47.6902 316.528 47.7158 316.041 47.5875L298.704 43.0223L294.881 57.5394L313.263 62.3796C313.75 62.508 314.084 62.7261 314.263 63.0339C314.452 63.307 314.486 63.6698 314.367 64.1224C314.248 64.5749 314.035 64.891 313.727 65.0705C313.419 65.25 313.021 65.2756 312.534 65.1473L292.795 59.9496Z" fill="#4A4A4A"/>
<path d="M322.777 68.834C322.356 68.6293 322.063 68.3668 321.899 68.0466C321.751 67.7745 321.739 67.4687 321.864 67.1293C322.022 66.8055 322.276 66.4888 322.627 66.179L351.529 41.4447C351.992 41.0693 352.433 40.8632 352.851 40.8264C353.285 40.7572 353.664 40.8014 353.987 40.9588C354.376 41.1477 354.661 41.4264 354.842 41.7947C355.071 42.1464 355.165 42.6123 355.123 43.1924L353.512 81.1996C353.517 81.6825 353.425 82.078 353.235 82.386C353.078 82.7098 352.846 82.8975 352.541 82.9491C352.252 83.0489 351.897 82.9965 351.477 82.7918C351.023 82.5713 350.706 82.277 350.525 81.9086C350.392 81.5237 350.331 81.0735 350.341 80.5582L350.877 69.95L352.125 71.4578L331.098 61.2315L333.103 61.3061L325.089 68.2772C324.659 68.6684 324.243 68.9064 323.841 68.9913C323.488 69.0596 323.133 69.0071 322.777 68.834ZM352.002 44.9172L334.3 60.3269L333.466 59.201L352.26 68.3409L350.957 68.4276L352.099 44.9645L352.002 44.9172Z" fill="#4A4A4A"/>
<path d="M370.482 96.3199C370.052 95.9932 369.81 95.628 369.754 95.2245C369.721 94.7922 369.868 94.3612 370.195 93.9313L390.585 67.1047L380.31 59.295C379.909 58.9901 379.681 58.6358 379.626 58.2322C379.571 57.8287 379.674 57.4549 379.935 57.111C380.218 56.7384 380.551 56.5389 380.933 56.5126C381.314 56.4862 381.706 56.6255 382.107 56.9305L405.366 74.6085C405.767 74.9135 405.991 75.2425 406.04 75.5956C406.116 75.9705 406.013 76.3443 405.73 76.7169C405.447 77.0895 405.103 77.3033 404.7 77.3583C404.347 77.4064 403.97 77.278 403.568 76.973L393.25 69.1307L372.86 95.9572C372.533 96.3871 372.157 96.6439 371.732 96.7276C371.357 96.8044 370.94 96.6685 370.482 96.3199Z" fill="#4A4A4A"/>
<path d="M390.104 113.403C389.746 113.047 389.567 112.666 389.566 112.259C389.59 111.826 389.793 111.418 390.174 111.035L415.043 86.0367C415.449 85.6284 415.856 85.4237 416.263 85.4226C416.671 85.4216 417.053 85.5988 417.41 85.9542C417.793 86.3351 417.985 86.7291 417.986 87.1364C417.987 87.5437 417.785 87.9515 417.378 88.3599L392.509 113.358C392.128 113.741 391.722 113.946 391.289 113.972C390.907 113.999 390.512 113.809 390.104 113.403Z" fill="#4A4A4A"/>
<path d="M410.1 136.804C408.058 134.016 406.921 131.123 406.688 128.125C406.455 125.127 407.1 122.2 408.623 119.344C410.167 116.517 412.55 113.923 415.774 111.561C418.213 109.774 420.615 108.484 422.978 107.689C425.392 106.903 427.703 106.616 429.911 106.828C432.148 107.018 434.247 107.69 436.207 108.843C438.188 110.024 439.955 111.675 441.508 113.795C443.593 116.641 444.752 119.563 444.985 122.561C445.247 125.538 444.605 128.439 443.062 131.266C441.547 134.072 439.178 136.655 435.954 139.017C433.515 140.804 431.088 142.091 428.674 142.877C426.26 143.664 423.935 143.962 421.698 143.771C419.46 143.58 417.351 142.894 415.37 141.712C413.41 140.56 411.654 138.924 410.1 136.804ZM412.54 135.017C414.242 137.34 416.211 138.932 418.448 139.792C420.685 140.652 423.099 140.78 425.691 140.176C428.304 139.6 431.019 138.281 433.836 136.217C438.047 133.132 440.598 129.791 441.488 126.194C442.428 122.604 441.622 119.067 439.069 115.582C437.388 113.288 435.429 111.71 433.192 110.85C430.956 109.99 428.531 109.847 425.918 110.423C423.326 111.027 420.636 112.351 417.848 114.393C413.666 117.456 411.101 120.808 410.153 124.448C409.234 128.067 410.029 131.59 412.54 135.017Z" fill="#4A4A4A"/>
<path d="M426.631 162.339C426.43 161.877 426.404 161.456 426.554 161.078C426.717 160.732 427.047 160.451 427.542 160.236L459.93 146.156C460.458 145.926 460.905 145.869 461.269 145.986C461.634 146.102 461.902 146.358 462.074 146.754C462.261 147.184 462.331 147.526 462.285 147.781C462.239 148.037 462.085 148.359 461.822 148.748L441.071 184.855L440.576 183.716L470.686 170.626C471.181 170.411 471.594 170.369 471.926 170.499C472.305 170.649 472.595 170.955 472.796 171.417C472.982 171.846 472.994 172.233 472.83 172.579C472.714 172.944 472.408 173.234 471.913 173.449L439.426 187.572C438.931 187.788 438.501 187.837 438.136 187.721C437.786 187.637 437.525 187.398 437.353 187.002C437.195 186.638 437.148 186.305 437.213 186.003C437.244 185.714 437.368 185.366 437.583 184.958L458.356 148.901L458.83 149.99L428.769 163.058C428.274 163.274 427.837 163.307 427.458 163.157C427.093 163.041 426.818 162.768 426.631 162.339Z" fill="#4A4A4A"/>
<path d="M444.144 213.161C443.787 211.471 443.581 209.803 443.527 208.159C443.473 206.514 443.582 204.945 443.855 203.453C444.17 201.987 444.635 200.62 445.249 199.349C445.421 198.944 445.651 198.638 445.938 198.43C446.268 198.25 446.581 198.165 446.877 198.176C447.217 198.215 447.514 198.317 447.771 198.484C448.034 198.685 448.199 198.945 448.266 199.262C448.369 199.571 448.334 199.928 448.162 200.333C447.308 202.206 446.789 204.101 446.606 206.016C446.43 207.967 446.596 210.14 447.103 212.535C447.811 215.881 448.992 218.243 450.646 219.623C452.307 221.037 454.194 221.521 456.307 221.073C458.068 220.7 459.311 219.793 460.036 218.352C460.769 216.945 461.122 214.791 461.097 211.89L461.076 206.319C461.037 202.832 461.638 200.11 462.88 198.154C464.122 196.199 466.064 194.941 468.705 194.382C470.325 194.039 471.854 194.046 473.291 194.404C474.764 194.755 476.098 195.411 477.295 196.371C478.492 197.332 479.505 198.553 480.334 200.033C481.205 201.542 481.846 203.264 482.256 205.201C482.741 207.491 482.868 209.653 482.637 211.689C482.413 213.761 481.782 215.734 480.744 217.61C480.565 217.979 480.31 218.254 479.98 218.434C479.686 218.607 479.369 218.674 479.029 218.635C478.725 218.589 478.463 218.479 478.242 218.305C478.021 218.131 477.859 217.889 477.757 217.58C477.69 217.263 477.76 216.899 477.967 216.487C478.851 214.754 479.386 213.022 479.571 211.29C479.799 209.585 479.708 207.765 479.298 205.828C478.88 203.856 478.198 202.197 477.251 200.852C476.311 199.542 475.174 198.605 473.84 198.041C472.507 197.477 471.047 197.363 469.463 197.699C467.631 198.087 466.289 198.96 465.436 200.318C464.583 201.676 464.174 203.658 464.211 206.263L464.242 211.886C464.256 215.6 463.706 218.476 462.592 220.515C461.514 222.547 459.706 223.831 457.171 224.368C455.656 224.688 454.198 224.666 452.796 224.301C451.436 223.963 450.176 223.31 449.014 222.342C447.852 221.373 446.849 220.114 446.006 218.563C445.205 217.04 444.584 215.239 444.144 213.161Z" fill="#4A4A4A"/>
<path d="M446.778 278.232C446.879 277.738 447.102 277.361 447.449 277.101C447.824 276.883 448.276 276.828 448.805 276.935L482.991 283.878C483.556 283.993 483.95 284.22 484.175 284.559C484.4 284.899 484.462 285.316 484.362 285.81C484.255 286.339 484.031 286.716 483.692 286.941C483.352 287.166 482.9 287.221 482.336 287.106L449.367 280.411L445.669 298.615C445.562 299.144 445.36 299.507 445.063 299.704C444.758 299.936 444.377 300.005 443.918 299.912C443.424 299.812 443.082 299.596 442.893 299.263C442.696 298.966 442.651 298.553 442.759 298.024L446.778 278.232Z" fill="#4A4A4A"/>
<path d="M438.853 310.287C439.062 309.75 439.375 309.389 439.795 309.204C440.214 309.02 440.709 309.038 441.28 309.26L473.241 321.68C473.812 321.901 474.189 322.222 474.374 322.641C474.559 323.061 474.547 323.539 474.338 324.076L466.945 343.102C466.762 343.571 466.508 343.878 466.182 344.022C465.855 344.165 465.491 344.159 465.088 344.002C464.619 343.82 464.312 343.566 464.168 343.239C464.058 342.926 464.094 342.535 464.277 342.065L471.162 324.348L457.672 319.106L451.179 335.817C450.996 336.286 450.742 336.593 450.416 336.737C450.123 336.893 449.759 336.887 449.322 336.717C448.886 336.548 448.596 336.3 448.453 335.974C448.309 335.648 448.329 335.25 448.511 334.78L455.005 318.069L441.012 312.632L434.127 330.349C433.945 330.819 433.69 331.126 433.364 331.269C433.072 331.426 432.707 331.42 432.271 331.25C431.835 331.08 431.545 330.833 431.401 330.506C431.258 330.18 431.277 329.782 431.46 329.313L438.853 310.287Z" fill="#4A4A4A"/>
<path d="M426.64 339.073C426.891 338.678 427.185 338.417 427.521 338.29C427.808 338.174 428.114 338.197 428.437 338.359C428.741 338.552 429.027 338.841 429.295 339.224L450.607 370.735C450.928 371.237 451.083 371.698 451.073 372.118C451.092 372.557 451.006 372.928 450.813 373.232C450.581 373.597 450.272 373.848 449.886 373.987C449.51 374.175 449.037 374.215 448.465 374.108L410.883 368.216C410.402 368.167 410.02 368.03 409.735 367.807C409.431 367.614 409.271 367.363 409.254 367.054C409.188 366.755 409.28 366.409 409.531 366.014C409.801 365.588 410.129 365.306 410.516 365.168C410.913 365.079 411.367 365.069 411.878 365.138L422.358 366.868L420.719 367.938L433.254 348.2L432.954 350.184L426.932 341.434C426.592 340.962 426.402 340.522 426.363 340.113C426.335 339.754 426.428 339.408 426.64 339.073ZM447.104 370.813L433.791 351.483L435.004 350.782L423.801 368.423L423.862 367.119L447.046 370.904L447.104 370.813Z" fill="#4A4A4A"/>
<path d="M393.943 383.37C394.317 382.98 394.707 382.78 395.114 382.771C395.547 382.787 395.959 382.981 396.349 383.354L420.702 406.643L429.622 397.316C429.97 396.952 430.348 396.765 430.755 396.756C431.162 396.747 431.522 396.892 431.834 397.19C432.172 397.514 432.333 397.866 432.316 398.249C432.299 398.631 432.117 399.004 431.768 399.369L411.577 420.482C411.229 420.846 410.876 421.032 410.52 421.04C410.139 421.074 409.779 420.93 409.441 420.606C409.103 420.283 408.929 419.917 408.92 419.51C408.912 419.154 409.082 418.794 409.431 418.429L418.388 409.063L394.035 385.774C393.645 385.401 393.432 384.998 393.397 384.566C393.363 384.185 393.545 383.786 393.943 383.37Z" fill="#4A4A4A"/>
<path d="M364.545 408.457C366.521 407.075 368.462 406.112 370.367 405.57C372.272 405.028 374.113 404.927 375.888 405.266C377.634 405.627 379.319 406.403 380.944 407.595C382.539 408.807 384.049 410.431 385.473 412.466L398.01 430.386C398.34 430.858 398.459 431.28 398.368 431.652C398.297 432.053 398.055 432.398 397.642 432.687C397.199 432.996 396.778 433.116 396.377 433.045C395.996 433.003 395.641 432.747 395.311 432.275L382.928 414.576C380.514 411.125 377.912 409.101 375.122 408.504C372.323 407.958 369.375 408.768 366.278 410.935C363.151 413.123 361.38 415.614 360.963 418.41C360.567 421.235 361.576 424.374 363.991 427.825L376.373 445.524C376.703 445.996 376.823 446.417 376.731 446.789C376.66 447.19 376.404 447.545 375.961 447.855C375.548 448.144 375.141 448.253 374.74 448.182C374.36 448.14 374.004 447.884 373.674 447.412L361.137 429.492C359.239 426.778 358.086 424.157 357.68 421.63C357.294 419.132 357.685 416.771 358.854 414.548C359.993 412.345 361.89 410.315 364.545 408.457Z" fill="#4A4A4A"/>
<path d="M329.671 427.962C331.255 427.271 332.847 426.734 334.447 426.351C336.047 425.967 337.606 425.759 339.123 425.726C340.621 425.74 342.055 425.92 343.423 426.266C343.854 426.353 344.2 426.517 344.461 426.756C344.704 427.043 344.85 427.333 344.899 427.626C344.93 427.966 344.889 428.278 344.778 428.562C344.633 428.861 344.412 429.075 344.115 429.205C343.832 429.367 343.476 429.405 343.045 429.318C341.038 428.857 339.078 428.73 337.164 428.936C335.218 429.156 333.123 429.755 330.879 430.734C327.744 432.1 325.667 433.732 324.649 435.63C323.597 437.541 323.503 439.487 324.366 441.467C325.085 443.117 326.224 444.152 327.782 444.573C329.307 445.008 331.488 444.921 334.325 444.312L339.778 443.172C343.186 442.432 345.973 442.474 348.138 443.297C350.304 444.12 351.926 445.769 353.005 448.244C353.667 449.762 353.967 451.261 353.905 452.741C353.858 454.254 353.484 455.694 352.783 457.059C352.083 458.425 351.091 459.663 349.807 460.772C348.505 461.929 346.946 462.903 345.131 463.694C342.986 464.63 340.893 465.189 338.852 465.372C336.778 465.569 334.718 465.348 332.672 464.708C332.275 464.607 331.954 464.412 331.711 464.126C331.483 463.872 331.353 463.575 331.323 463.235C331.307 462.927 331.362 462.648 331.488 462.397C331.614 462.146 331.818 461.939 332.101 461.776C332.398 461.647 332.769 461.642 333.214 461.762C335.089 462.28 336.894 462.455 338.628 462.288C340.343 462.169 342.108 461.714 343.923 460.922C345.771 460.117 347.258 459.115 348.385 457.916C349.479 456.733 350.169 455.431 350.453 454.011C350.737 452.591 350.555 451.138 349.908 449.653C349.16 447.937 348.035 446.798 346.533 446.235C345.031 445.673 343.008 445.671 340.463 446.231L334.961 447.393C331.326 448.153 328.398 448.192 326.176 447.511C323.969 446.863 322.348 445.351 321.312 442.975C320.694 441.556 320.422 440.123 320.498 438.676C320.556 437.277 320.942 435.91 321.657 434.578C322.372 433.245 323.404 432.009 324.754 430.871C326.085 429.78 327.724 428.81 329.671 427.962Z" fill="#4A4A4A"/>
<path d="M273.754 442.949C277.36 442.482 280.548 442.85 283.317 444.052C286.091 445.29 288.361 447.265 290.128 449.977C291.859 452.693 292.983 456.05 293.501 460.049C293.889 463.048 293.861 465.774 293.416 468.227C292.941 470.721 292.077 472.884 290.826 474.716C289.544 476.588 287.889 478.109 285.863 479.279C283.8 480.453 281.43 481.214 278.753 481.56C276.396 481.865 274.157 481.81 272.034 481.396C269.911 480.981 268.032 480.207 266.397 479.076C265.999 478.801 265.723 478.492 265.57 478.149C265.416 477.805 265.372 477.466 265.438 477.131C265.472 476.836 265.601 476.566 265.823 476.319C266.05 476.108 266.341 475.98 266.699 475.933C267.024 475.927 267.405 476.06 267.839 476.33C269.348 477.333 270.979 478.011 272.731 478.365C274.447 478.724 276.305 478.774 278.304 478.515C281.267 478.131 283.701 477.163 285.605 475.609C287.479 474.096 288.794 472.057 289.55 469.49C290.272 466.928 290.41 463.934 289.967 460.506C289.518 457.043 288.619 454.165 287.27 451.871C285.884 449.582 284.091 447.927 281.889 446.905C279.657 445.923 277.059 445.624 274.096 446.008C272.132 446.262 270.348 446.784 268.744 447.572C267.145 448.396 265.725 449.487 264.485 450.846C264.134 451.218 263.798 451.425 263.477 451.466C263.12 451.513 262.82 451.443 262.578 451.256C262.305 451.11 262.094 450.883 261.946 450.576C261.802 450.304 261.762 450 261.828 449.665C261.858 449.335 262.015 449.006 262.299 448.679C263.654 447.087 265.303 445.803 267.245 444.826C269.157 443.889 271.327 443.263 273.754 442.949Z" fill="#4A4A4A"/>
<path d="M248.66 444.644C249.163 444.679 249.548 444.851 249.815 445.159C250.079 445.502 250.192 445.943 250.154 446.482L247.69 481.333C247.649 481.907 247.475 482.328 247.168 482.595C246.824 482.86 246.401 482.974 245.898 482.938L233.24 482.043C229.218 481.759 226.196 480.607 224.173 478.587C222.15 476.567 221.261 473.834 221.505 470.386C221.662 468.16 222.283 466.273 223.367 464.726C224.448 463.214 225.97 462.113 227.931 461.421C229.857 460.728 232.131 460.473 234.752 460.659L234.11 461.317L233.356 461.264C231.991 461.167 230.832 460.724 229.877 459.935C228.886 459.143 228.035 457.91 227.323 456.236L222.364 445.22C222.141 444.808 222.061 444.405 222.125 444.013C222.15 443.653 222.297 443.357 222.567 443.123C222.833 442.926 223.164 442.841 223.559 442.869C224.026 442.902 224.413 443.038 224.721 443.276C224.993 443.512 225.223 443.835 225.411 444.245L230.647 455.929C231.459 457.719 232.421 458.924 233.532 459.544C234.64 460.2 236.164 460.596 238.103 460.733L245.806 461.278L246.869 446.25C246.907 445.711 247.081 445.29 247.391 444.987C247.663 444.718 248.086 444.603 248.66 444.644ZM245.608 464.079L234.996 463.329C231.8 463.103 229.365 463.598 227.691 464.815C225.979 466.065 225.03 468.001 224.844 470.623C224.662 473.208 225.331 475.222 226.853 476.665C228.337 478.142 230.677 478.993 233.873 479.219L244.484 479.969L245.608 464.079Z" fill="#4A4A4A"/>
<path d="M209.205 440.345C209.762 440.492 210.156 440.763 210.387 441.159C210.618 441.555 210.655 442.049 210.499 442.64L201.768 475.8C201.612 476.392 201.336 476.803 200.94 477.034C200.545 477.265 200.068 477.307 199.511 477.16L179.772 471.963C179.285 471.834 178.951 471.616 178.772 471.308C178.592 471 178.557 470.638 178.667 470.22C178.796 469.732 179.014 469.399 179.322 469.219C179.62 469.075 180.013 469.067 180.501 469.195L198.882 474.035L202.567 460.04L185.23 455.475C184.743 455.347 184.409 455.129 184.23 454.821C184.041 454.548 184.006 454.185 184.126 453.732C184.245 453.28 184.458 452.964 184.766 452.784C185.074 452.605 185.472 452.579 185.959 452.707L203.296 457.273L207.119 442.755L188.737 437.915C188.25 437.787 187.916 437.569 187.737 437.261C187.548 436.988 187.514 436.625 187.633 436.172C187.752 435.72 187.965 435.404 188.273 435.224C188.581 435.045 188.979 435.019 189.466 435.148L209.205 440.345Z" fill="#4A4A4A"/>
<path d="M179.223 431.461C179.644 431.666 179.937 431.928 180.101 432.248C180.249 432.52 180.261 432.826 180.136 433.166C179.978 433.489 179.724 433.806 179.373 434.116L150.471 458.85C150.008 459.226 149.567 459.432 149.149 459.468C148.715 459.538 148.336 459.493 148.013 459.336C147.624 459.147 147.339 458.868 147.158 458.5C146.929 458.148 146.835 457.683 146.877 457.102L148.488 419.095C148.483 418.612 148.575 418.217 148.765 417.909C148.922 417.585 149.154 417.397 149.459 417.346C149.748 417.246 150.103 417.298 150.523 417.503C150.977 417.723 151.294 418.018 151.475 418.386C151.608 418.771 151.669 419.221 151.659 419.737L151.123 430.345L149.875 428.837L170.902 439.063L168.897 438.989L176.911 432.018C177.341 431.626 177.757 431.388 178.159 431.303C178.512 431.235 178.867 431.288 179.223 431.461ZM149.998 455.378L167.7 439.968L168.534 441.094L149.74 431.954L151.044 431.867L149.901 455.33L149.998 455.378Z" fill="#4A4A4A"/>
<path d="M131.518 403.975C131.948 404.302 132.19 404.667 132.246 405.07C132.279 405.503 132.132 405.934 131.805 406.364L111.415 433.19L121.69 441C122.091 441.305 122.319 441.659 122.374 442.063C122.429 442.466 122.326 442.84 122.065 443.184C121.782 443.556 121.449 443.756 121.067 443.782C120.686 443.809 120.294 443.669 119.893 443.364L96.6345 425.686C96.2333 425.381 96.0086 425.052 95.9604 424.699C95.8836 424.324 95.9868 423.951 96.27 423.578C96.5532 423.205 96.8966 422.992 97.3002 422.937C97.6533 422.888 98.0305 423.017 98.4317 423.322L108.75 431.164L129.14 404.338C129.467 403.908 129.843 403.651 130.268 403.567C130.643 403.49 131.06 403.626 131.518 403.975Z" fill="#4A4A4A"/>
<path d="M111.896 386.892C112.254 387.247 112.433 387.629 112.434 388.036C112.41 388.469 112.207 388.877 111.826 389.26L86.9568 414.258C86.5506 414.666 86.1438 414.871 85.7365 414.872C85.3292 414.873 84.9469 414.696 84.5896 414.341C84.2068 413.96 84.0149 413.566 84.0138 413.158C84.0127 412.751 84.2153 412.343 84.6216 411.935L109.491 386.936C109.872 386.554 110.279 386.349 110.711 386.322C111.093 386.296 111.488 386.486 111.896 386.892Z" fill="#4A4A4A"/>
<path d="M91.8996 363.491C93.942 366.279 95.0795 369.172 95.3122 372.17C95.5449 375.168 94.9 378.095 93.3774 380.951C91.8335 383.778 89.4498 386.372 86.2262 388.733C83.7868 390.52 81.3853 391.811 79.0218 392.605C76.608 393.392 74.2971 393.679 72.0889 393.467C69.8517 393.276 67.7531 392.605 65.7932 391.452C63.8119 390.271 62.0448 388.62 60.4917 386.5C58.4068 383.654 57.2479 380.732 57.0152 377.734C56.7535 374.757 57.3945 371.855 58.9384 369.029C60.4533 366.223 62.8225 363.639 66.046 361.278C68.4855 359.491 70.9121 358.204 73.3259 357.418C75.7397 356.631 78.0652 356.333 80.3024 356.524C82.5396 356.715 84.6488 357.401 86.63 358.582C88.59 359.735 90.3465 361.371 91.8996 363.491ZM89.4601 365.278C87.7581 362.955 85.7887 361.363 83.5518 360.503C81.315 359.642 78.9007 359.514 76.3089 360.119C73.6959 360.694 70.9809 362.014 68.1639 364.078C63.9529 367.162 61.4024 370.504 60.5123 374.101C59.5719 377.691 60.3782 381.228 62.9311 384.713C64.6119 387.007 66.5706 388.584 68.8075 389.445C71.0444 390.305 73.4693 390.448 76.0824 389.872C78.6741 389.268 81.364 387.944 84.1519 385.902C88.3338 382.838 90.8989 379.487 91.8471 375.847C92.7662 372.228 91.9706 368.705 89.4601 365.278Z" fill="#4A4A4A"/>
<path d="M75.3688 337.956C75.5697 338.418 75.5956 338.838 75.4463 339.217C75.2826 339.563 74.9532 339.844 74.4579 340.059L42.07 354.139C41.5418 354.369 41.0954 354.425 40.7308 354.309C40.3662 354.193 40.0978 353.937 39.9256 353.54C39.739 353.111 39.6687 352.769 39.7146 352.513C39.7606 352.258 39.9149 351.936 40.1776 351.547L60.9288 315.44L61.424 316.579L31.3142 329.668C30.8189 329.884 30.4055 329.926 30.074 329.795C29.695 329.646 29.4051 329.34 29.2041 328.878C29.0176 328.449 29.0061 328.061 29.1697 327.715C29.286 327.351 29.5918 327.061 30.087 326.846L62.5739 312.723C63.0692 312.507 63.4991 312.458 63.8637 312.574C64.2139 312.657 64.4751 312.897 64.6474 313.293C64.8053 313.656 64.8519 313.989 64.7873 314.292C64.7557 314.581 64.6322 314.929 64.4169 315.337L43.6441 351.394L43.1705 350.304L73.2308 337.236C73.726 337.021 74.1631 336.988 74.542 337.137C74.9066 337.254 75.1822 337.526 75.3688 337.956Z" fill="#4A4A4A"/>
<path d="M57.8555 287.134C58.2135 288.824 58.4194 290.492 58.4733 292.136C58.5271 293.781 58.4177 295.349 58.145 296.842C57.8297 298.307 57.365 299.675 56.7509 300.946C56.579 301.35 56.3494 301.657 56.0623 301.865C55.7325 302.045 55.4192 302.13 55.1226 302.119C54.7832 302.08 54.4855 301.978 54.2295 301.811C53.9659 301.609 53.8006 301.35 53.7335 301.033C53.6312 300.724 53.666 300.367 53.8379 299.962C54.6923 298.089 55.2111 296.194 55.3943 294.278C55.57 292.328 55.4043 290.155 54.8971 287.76C54.1886 284.414 53.0076 282.052 51.354 280.672C49.6929 279.258 47.8058 278.774 45.6926 279.222C43.9317 279.595 42.6887 280.502 41.9635 281.943C41.231 283.349 40.8775 285.503 40.9032 288.405L40.9236 293.976C40.9629 297.463 40.3617 300.185 39.1199 302.14C37.8781 304.096 35.9365 305.354 33.295 305.913C31.675 306.256 30.1463 306.248 28.7089 305.89C27.2363 305.54 25.9016 304.884 24.7045 303.923C23.5075 302.962 22.4947 301.742 21.666 300.261C20.7947 298.753 20.1539 297.031 19.7437 295.093C19.259 292.804 19.1322 290.642 19.3634 288.606C19.5872 286.534 20.2181 284.561 21.256 282.685C21.4354 282.316 21.69 282.041 22.0199 281.861C22.3145 281.688 22.6314 281.621 22.9708 281.66C23.2749 281.706 23.5374 281.816 23.7582 281.99C23.9791 282.164 24.1407 282.405 24.243 282.715C24.3101 283.032 24.2401 283.396 24.0329 283.808C23.1487 285.541 22.614 287.273 22.4287 289.005C22.2008 290.709 22.292 292.53 22.7021 294.467C23.1198 296.439 23.8022 298.098 24.7493 299.443C25.689 300.753 26.8258 301.689 28.1595 302.253C29.4933 302.817 30.9526 302.931 32.5375 302.596C34.3688 302.208 35.7111 301.335 36.5643 299.977C37.4174 298.619 37.8258 296.637 37.7893 294.032L37.7577 288.409C37.7441 284.695 38.2941 281.819 39.4079 279.78C40.4865 277.748 42.2936 276.464 44.8294 275.927C46.3438 275.606 47.8021 275.629 49.2042 275.994C50.5637 276.332 51.8243 276.985 52.9861 277.953C54.1479 278.922 55.1506 280.181 55.9942 281.732C56.7951 283.255 57.4155 285.056 57.8555 287.134Z" fill="#4A4A4A"/>
</svg>
