<svg width="60" height="59" viewBox="0 0 60 59" fill="none" xmlns="http://www.w3.org/2000/svg">
<path fill-rule="evenodd" clip-rule="evenodd" d="M59.4812 36.2413L59.4812 43.0227C59.4812 51.8467 52.3481 59 43.549 59L15.9322 59C7.04036 59 -0.130566 51.7009 0.00180435 42.7849L0.403332 15.7394C0.532948 7.00914 7.62714 3.8147e-06 16.3338 3.8147e-06H43.549C52.3481 3.8147e-06 59.4812 7.15326 59.4812 15.9773L59.4812 21.4509H55.6946L55.6946 36.2413L59.4812 36.2413ZM40.7226 39.9851C37.8711 42.3567 34.9226 44.8065 29.6465 44.7299C20.6334 44.5991 13.4034 37.1357 13.5339 28.0971C13.6643 19.0585 21.1067 11.8081 30.1198 11.9389C35.4566 12.0164 38.3237 14.5577 41.0962 17.0203L41.1024 17.0257L41.1024 17.0258L41.1025 17.0259C42.0647 17.8768 43.0616 18.7585 44.2102 19.605C44.6865 19.9492 46.5237 20.5288 48.677 21.0543L48.7123 19.2367H53.3664L53.3351 22.0262L53.1433 35.3183L53.1034 38.0798L48.4021 38.0302L48.4074 36.14C46.2351 36.6075 44.4288 37.1573 43.9428 37.4853C42.7718 38.282 41.7502 39.1311 40.7624 39.952L40.7226 39.9851ZM29.3675 18.3411C31.337 20.9332 31.0908 24.3973 28.5058 26.6116C26.6594 27.9695 22.5972 32.7838 22.4705 39.5146C19.5198 37.7215 18.0427 35.0058 18.0427 35.0058C14.7191 28.5867 15.6649 22.0444 20.997 17.477C23.5063 15.3276 27.0287 15.5951 29.3675 18.3411Z" fill="white"/>
</svg>
