<svg width="211" height="166" viewBox="0 0 211 166" fill="none" xmlns="http://www.w3.org/2000/svg">
<path d="M52.5583 44.9292V99.0333C52.5583 106.542 50.3868 112.394 46.0438 116.59C41.7007 120.712 35.8854 122.773 28.5979 122.773C21.2368 122.773 15.2743 120.638 10.7104 116.369C6.22014 112.099 3.975 106.137 3.975 98.4812H19.4333C19.5069 101.794 20.2799 104.37 21.7521 106.21C23.2979 108.051 25.5063 108.971 28.3771 108.971C31.1743 108.971 33.309 108.087 34.7813 106.321C36.2535 104.554 36.9896 102.125 36.9896 99.0333V44.9292H52.5583ZM79.8658 122.773C72.6519 122.773 66.0269 121.08 59.9908 117.694C53.9546 114.308 49.1699 109.633 45.6366 103.671C42.1033 97.6347 40.3366 90.8257 40.3366 83.2437C40.3366 75.7354 42.1033 69 45.6366 63.0375C49.1699 57.0014 53.9546 52.2903 59.9908 48.9042C66.0269 45.518 72.6519 43.825 79.8658 43.825C87.1533 43.825 93.7783 45.518 99.7408 48.9042C105.777 52.2903 110.525 57.0014 113.985 63.0375C117.518 69 119.285 75.7354 119.285 83.2437C119.285 90.8257 117.518 97.6347 113.985 103.671C110.525 109.633 105.777 114.308 99.7408 117.694C93.7047 121.08 87.0797 122.773 79.8658 122.773ZM79.8658 108.971C84.5033 108.971 88.5887 107.94 92.122 105.879C95.6553 103.744 98.4158 100.726 100.403 96.825C102.391 92.9236 103.385 88.3965 103.385 83.2437C103.385 78.091 102.391 73.6007 100.403 69.7729C98.4158 65.8715 95.6553 62.8903 92.122 60.8292C88.5887 58.7681 84.5033 57.7375 79.8658 57.7375C75.2283 57.7375 71.106 58.7681 67.4991 60.8292C63.9658 62.8903 61.2053 65.8715 59.2178 69.7729C57.2303 73.6007 56.2366 78.091 56.2366 83.2437C56.2366 88.3965 57.2303 92.9236 59.2178 96.825C61.2053 100.726 63.9658 103.744 67.4991 105.879C71.106 107.94 75.2283 108.971 79.8658 108.971ZM119.743 57.4062V76.7292H145.691V88.9854H119.743V109.412H149.004V122H104.285V44.8187H149.004V57.4062H119.743Z" fill="white"/>
<path d="M87.092 83.7463C87.0763 81.0589 88.2938 79.0336 90.7526 77.5402C89.3774 75.57 87.2969 74.4864 84.5544 74.2775C81.9577 74.0726 79.1167 75.7906 78.0764 75.7906C76.9771 75.7906 74.4631 74.3485 72.485 74.3485C68.4028 74.4115 64.0645 77.6032 64.0645 84.0969C64.0645 86.0159 64.4151 87.9979 65.1165 90.039C66.0543 92.7264 69.4352 99.3107 72.9618 99.2044C74.8059 99.161 76.1102 97.8962 78.5099 97.8962C80.8386 97.8962 82.0444 99.2044 84.1013 99.2044C87.6594 99.1531 90.7172 93.1677 91.6077 90.4725C86.8359 88.2225 87.092 83.8842 87.092 83.7463V83.7463ZM82.9507 71.7281C84.9485 69.356 84.7672 67.1967 84.7081 66.4204C82.9428 66.5229 80.9017 67.6222 79.7393 68.9738C78.4587 70.4238 77.706 72.2167 77.8676 74.2381C79.7747 74.3839 81.5164 73.4028 82.9507 71.7281V71.7281Z" fill="white"/>
<path d="M15.4499 133.982L15.5689 151.439L13.5545 151.453L13.4356 133.996L15.4499 133.982ZM15.4133 128.61L15.4316 131.296L13.4173 131.31L13.399 128.624L15.4133 128.61ZM51.2923 132.798C50.697 132.139 49.8784 131.581 48.8368 131.122C47.795 130.646 46.6922 130.412 45.5284 130.42C43.9348 130.43 42.6663 130.833 41.7227 131.627C40.7791 132.422 40.3109 133.347 40.3181 134.403C40.3247 135.37 40.6706 136.209 41.3559 136.921C42.0589 137.615 42.9308 138.128 43.9717 138.461L49.5147 139.954C50.8424 140.339 51.9303 141.021 52.7786 142C53.6268 142.979 54.056 144.212 54.0661 145.698C54.0775 147.363 53.3801 148.809 51.9739 150.036C50.5677 151.263 48.6381 151.885 46.1851 151.902C44.1976 151.916 42.4489 151.489 40.9389 150.622C39.4467 149.737 38.2841 148.608 37.4511 147.234L39.1893 146.121C39.9496 147.334 40.9676 148.267 42.2434 148.921C43.5371 149.574 44.8285 149.897 46.1176 149.888C48.0872 149.875 49.5614 149.435 50.5403 148.569C51.5372 147.703 52.0319 146.723 52.0244 145.631C52.0182 144.718 51.7173 143.923 51.1218 143.247C50.5441 142.552 49.7351 142.074 48.6948 141.813L43.5012 140.371C41.9939 139.898 40.7533 139.145 39.7793 138.114C38.8054 137.082 38.3135 135.841 38.3036 134.39C38.2926 132.779 38.9456 131.387 40.2627 130.214C41.5796 129.023 43.3302 128.42 45.5146 128.405C47.1798 128.394 48.6592 128.706 49.9527 129.342C51.2462 129.96 52.2988 130.723 53.1108 131.63L51.2923 132.798ZM65.6119 130.954L59.2198 130.998L59.206 128.983L73.9777 128.883L73.9914 130.897L67.6262 130.94L67.7634 151.084L65.7491 151.097L65.6119 130.954ZM102.517 139.754C102.539 143.013 101.412 145.796 99.1357 148.103C96.8595 150.411 94.101 151.576 90.8602 151.598C87.6015 151.62 84.8184 150.493 82.511 148.217C80.2035 145.94 79.0387 143.173 79.0165 139.914C78.9944 136.673 80.1214 133.899 82.3977 131.592C84.6739 129.284 87.4413 128.12 90.7001 128.097C93.9409 128.075 96.715 129.202 99.0224 131.479C101.33 133.755 102.495 136.513 102.517 139.754ZM90.7138 130.112C88.0101 130.13 85.7158 131.095 83.8308 133.006C81.9458 134.916 81.0125 137.215 81.0308 139.901C81.0492 142.604 82.0138 144.899 83.9247 146.783C85.8356 148.668 88.1428 149.602 90.8465 149.583C93.5322 149.565 95.8176 148.6 97.7026 146.69C99.5876 144.779 100.521 142.471 100.502 139.768C100.484 137.082 99.5196 134.797 97.6087 132.912C95.6978 131.027 93.3995 130.093 90.7138 130.112ZM117.834 130.598L112.113 130.637L112.2 143.395L117.921 143.356C119.676 143.344 121.166 142.716 122.393 141.472C123.638 140.21 124.255 138.693 124.243 136.92C124.231 135.165 123.594 133.675 122.332 132.448C121.088 131.203 119.589 130.586 117.834 130.598ZM120.483 144.977C119.679 145.233 118.83 145.364 117.935 145.37L112.214 145.409L112.251 150.78L110.236 150.794L110.085 128.637L117.82 128.584C120.13 128.568 122.105 129.378 123.746 131.015C125.404 132.633 126.241 134.597 126.257 136.906C126.273 139.234 125.472 141.218 123.853 142.859C123.355 143.363 122.839 143.788 122.304 144.132L125.706 150.689L123.45 150.704L120.483 144.977ZM147.965 128.379L147.979 130.393L136.564 130.471L136.619 138.528L145.348 138.468L145.361 140.483L136.633 140.542L136.688 148.599L148.102 148.522L148.116 150.536L134.687 150.628L134.536 128.47L147.965 128.379Z" fill="white"/>
</svg>
