<svg width="336" height="68" viewBox="0 0 336 68" fill="none" xmlns="http://www.w3.org/2000/svg">
<path d="M123.321 2.14215H136.056L157.71 41.3392L179.364 2.14215H191.823V66.5502H181.433V17.1863L162.445 51.3685H152.698L133.711 17.1863V66.5502H123.321V2.14215Z" fill="#333333"/>
<path d="M225.338 67.7006C220.525 67.7006 216.296 66.6348 212.649 64.5032C209.001 62.3716 206.158 59.4196 204.12 55.6471C202.082 51.8745 201.063 47.5499 201.063 42.6735C201.063 37.7358 202.059 33.3652 204.051 29.5618C206.043 25.7592 208.81 22.7841 212.35 20.6364C215.89 18.4901 219.959 17.4166 224.556 17.4161C229.123 17.4161 233.053 18.4972 236.349 20.6593C239.643 22.8221 242.179 25.8509 243.957 29.7457C245.735 33.6411 246.623 38.2111 246.624 43.4555V46.3075H211.361C212.005 50.234 213.591 53.3241 216.12 55.5777C218.648 57.8321 221.844 58.9593 225.705 58.9591C228.801 58.9591 231.467 58.499 233.705 57.5789C235.942 56.6588 238.042 55.2634 240.004 53.3926L245.52 60.1553C240.034 65.1859 233.306 67.701 225.338 67.7006V67.7006ZM232.923 29.4925C230.747 27.2692 227.896 26.1574 224.372 26.1569C220.939 26.1569 218.066 27.2919 215.752 29.5618C213.437 31.8315 211.974 34.8832 211.361 38.7169H236.647C236.341 34.7909 235.099 31.7161 232.923 29.4925V29.4925Z" fill="#333333"/>
<path d="M259.222 27.0777H249.659V18.5665H259.222V4.48889H269.244V18.5665H283.772V27.0777H269.244V48.6542C269.244 52.2423 269.857 54.8032 271.083 56.3369C272.308 57.871 274.408 58.6377 277.382 58.6371C278.699 58.6371 279.818 58.5835 280.738 58.4762C281.657 58.3692 282.669 58.2235 283.772 58.039V66.4579C282.513 66.8224 281.23 67.0992 279.933 67.2864C278.449 67.505 276.951 67.6126 275.45 67.6084C264.631 67.6084 259.221 61.689 259.222 49.8504V27.0777Z" fill="#333333"/>
<path d="M336 66.5502H326.161V59.8334C324.414 62.3487 322.192 64.2885 319.495 65.653C316.798 67.0173 313.733 67.6999 310.3 67.7007C306.071 67.7007 302.324 66.6194 299.059 64.4568C295.795 62.2946 293.228 59.3197 291.359 55.532C289.489 51.7441 288.554 47.4119 288.554 42.5355C288.554 37.6283 289.504 33.2883 291.405 29.5154C293.305 25.7434 295.933 22.7837 299.289 20.6365C302.645 18.4902 306.5 17.4167 310.852 17.4161C314.131 17.4161 317.074 18.0526 319.679 19.3256C322.249 20.5697 324.475 22.4257 326.161 24.731V18.5665H336V66.5502ZM325.978 35.3585C324.904 32.6288 323.211 30.4741 320.897 28.8944C318.583 27.315 315.909 26.5254 312.875 26.5254C308.583 26.5254 305.166 27.9668 302.623 30.8497C300.078 33.7328 298.806 37.628 298.807 42.5354C298.807 47.4737 300.033 51.3843 302.485 54.267C304.936 57.1501 308.262 58.5915 312.461 58.5914C315.556 58.5914 318.315 57.7939 320.737 56.1988C323.157 54.6048 324.904 52.4579 325.978 49.7581L325.978 35.3585Z" fill="#333333"/>
<path d="M11.0086 44.6743C11.0086 48.5685 11.8628 51.5584 12.9793 53.3672C14.4431 55.7364 16.6263 56.7401 18.8522 56.7401C21.723 56.7401 24.3494 56.0272 29.4107 49.0225C33.4654 43.4081 38.2431 35.5273 41.4578 30.5867L46.9018 22.2166C50.6836 16.4035 55.0608 9.9414 60.0796 5.56122C64.1768 1.98617 68.5965 0 73.0446 0C80.5125 0 87.6259 4.33051 93.07 12.4525C99.028 21.3476 101.92 32.5516 101.92 44.1139C101.92 50.9874 100.566 56.0379 98.2624 60.0279C96.0366 63.8867 91.6983 67.742 84.4006 67.742V56.7401C90.6492 56.7401 92.2087 50.9945 92.2087 44.4189C92.2087 35.0485 90.0254 24.6496 85.2158 17.2192C81.8026 11.9488 77.3793 8.72841 72.513 8.72841C67.2497 8.72841 63.0142 12.7007 58.2543 19.7835C55.7236 23.5466 53.1256 28.1324 50.2087 33.3071L46.9975 38.9995C40.5469 50.4447 38.913 53.0516 35.6877 57.3537C30.0345 64.8869 25.2071 67.742 18.8522 67.742C11.3134 67.742 6.54632 64.4755 3.59391 59.5527C1.18379 55.5414 0 50.2781 0 44.2806L11.0086 44.6743Z" fill="#333333"/>
<path d="M8.68018 13.2292C13.7273 5.44416 21.0108 0 29.3647 0C34.2027 0 39.0124 1.43288 44.0346 5.53643C49.5283 10.023 55.3835 17.4108 62.6884 29.5866L65.3076 33.9562C71.6306 44.4969 75.2281 49.9198 77.3334 52.477C80.0413 55.7612 81.9375 56.7401 84.4008 56.7401C90.6494 56.7401 92.2089 50.9945 92.2089 44.4189L101.92 44.1139C101.92 50.9874 100.566 56.0379 98.2626 60.0279C96.0367 63.8867 91.6985 67.742 84.4008 67.742C79.864 67.742 75.8448 66.756 71.4003 62.5603C67.9835 59.3399 63.9891 53.619 60.9162 48.4763L51.7754 33.1971C47.1891 25.5291 42.982 19.8118 40.5471 17.2228C37.9278 14.4386 34.5607 11.0763 29.1875 11.0763C24.8387 11.0763 21.1455 14.1301 18.0549 18.8011L8.68018 13.2292Z" fill="#333333"/>
<path d="M29.1874 11.0763C24.8385 11.0763 21.1453 14.1301 18.0547 18.8011C13.6846 25.4015 11.0086 35.233 11.0086 44.6743C11.0086 48.5685 11.8628 51.5584 12.9793 53.3672L3.59391 59.5527C1.18379 55.5414 0 50.2781 0 44.2806C0 33.3745 2.99138 22.0073 8.68001 13.2292C13.7271 5.44416 21.0107 0 29.3646 0L29.1874 11.0763Z" fill="#333333"/>
</svg>
