<svg width="336" height="129" viewBox="0 0 336 129" fill="none" xmlns="http://www.w3.org/2000/svg">
<path fill-rule="evenodd" clip-rule="evenodd" d="M308.576 1.20164C296.058 1.7736 276.107 2.66541 264.24 3.18318C252.373 3.70153 233.885 4.52325 223.156 5.01038C212.427 5.49752 176.382 7.08675 143.056 8.54169C109.731 9.99662 73.5528 11.5882 62.661 12.0777C51.7692 12.5678 34.0793 13.3636 23.3501 13.846C12.6209 14.329 2.97817 14.7243 1.92121 14.7248C0.292615 14.726 0 14.9393 0 16.1274V17.5287L28.8181 17.8992C44.6684 18.1036 104.189 18.5583 161.086 18.9106C217.983 19.2628 271.503 19.7246 280.018 19.9367L295.5 20.3219L273.811 51.9717C261.882 69.379 248.086 89.5242 243.154 96.7388C238.222 103.953 231.229 114.164 227.615 119.428C224.001 124.693 221.151 129 221.283 129C221.415 129 227.338 122.44 234.445 114.421C248.557 98.4989 277.076 66.3337 294.376 46.8288C300.41 40.0253 311.436 27.5671 318.879 19.1438C326.321 10.7205 333.218 2.96759 334.205 1.91438L336 0L333.667 0.0806986C332.385 0.125466 321.093 0.629685 308.576 1.20164ZM47.9416 28.8913C40.4542 30.8451 35.2344 34.7652 32.1232 40.7711C30.9368 43.0607 30.5041 44.7712 30.4869 47.2405C30.4538 52.0017 31.5841 53.2864 38.9994 56.9132C46.057 60.3649 46.9272 61.4217 45.2578 64.5106C43.5393 67.6908 41.0749 68.3288 30.5082 68.3288H21.4342L19.8801 72.6918C19.0247 75.0915 18.3254 77.3446 18.3254 77.6986C18.3254 78.7607 36.9286 78.5339 41.7866 77.4136C52.767 74.8795 60.8876 66.2247 60.8876 57.0551C60.8876 51.7178 60.0068 50.9043 48.9169 46.0035C46.3638 44.8749 44.9267 43.8965 44.9267 43.2869C44.9267 41.6576 46.0653 40.1096 48.048 39.0428C49.6878 38.1604 52.1404 37.9884 65.7645 37.8023C74.6162 37.681 81.5775 37.8135 81.5775 38.1027C81.5775 38.3878 80.2244 42.4551 78.5704 47.1421C71.7504 66.4668 67.9812 77.2763 67.9812 77.5078C67.9812 77.6427 70.9896 77.7534 74.6659 77.7534H81.3511L88.4099 57.7478L95.4693 37.7416L101.603 37.5732L107.737 37.4041L109.135 33.2808C109.904 31.013 110.535 28.8265 110.538 28.4212C110.542 27.8416 104.346 27.692 81.4297 27.7173C54.5884 27.7474 51.9743 27.8387 47.9416 28.8913ZM123.005 29.0103C122.319 30.1071 105.555 53.0738 97.5306 63.911C93.4051 69.4821 88.9029 75.693 88.4572 76.4281C88.1096 77.0012 89.5579 77.1597 94.9911 77.1426L101.972 77.1208L105.458 72.1357L108.945 67.1507H118.02H127.095V72.1575V77.1644H133.894H140.692L140.69 65.2363C140.689 58.6756 140.514 47.5433 140.3 40.4966L139.912 27.6849H131.872C124.175 27.6849 123.798 27.7415 123.005 29.0103ZM162.045 28.9726C161.76 29.7224 157.866 40.5408 153.391 53.0137C148.916 65.4866 145.131 76.0234 144.979 76.4281C144.768 76.9906 146.31 77.1644 151.503 77.1644H158.303L160.662 70.5377C161.959 66.8933 163.359 62.7847 163.773 61.4075L164.525 58.9041H167.64C172.431 58.9041 172.613 59.2723 172.613 68.9596V77.1644H179.411H186.21V66.6412C186.21 56.9903 186.111 55.9931 185.021 54.6118L183.832 53.1062L186.982 51.6695C192.964 48.9399 197.611 42.4522 197.693 36.7126C197.743 33.209 196.474 31.0548 193.241 29.1575C191.41 28.0831 189.976 27.963 176.899 27.7945L162.563 27.6089L162.045 28.9726ZM208.19 31.0719C207.54 32.9351 205.634 38.3024 203.954 43C199.866 54.4292 192.121 76.6578 192.121 76.9606C192.121 77.0937 195.09 77.1279 198.719 77.0366L205.316 76.8699L208.942 66.7319C210.936 61.156 212.728 56.4343 212.923 56.2393C213.119 56.0449 214.858 60.607 216.788 66.3773L220.297 76.8699L228.619 77.033L236.94 77.1962L235.193 72.6152C231.661 63.3579 229.823 58.5206 228.415 54.7808L226.972 50.9521L228.906 49.2385C229.971 48.2955 232.822 45.7773 235.243 43.6426C237.664 41.5074 242.564 37.1096 246.131 33.8699L252.617 27.9795L245.068 27.8139L237.519 27.649L232.702 32.0226C230.053 34.4283 226.688 37.5107 225.225 38.8726C223.762 40.2339 221.043 42.6672 219.182 44.2794L215.8 47.2111L216.912 44.0744C217.523 42.3497 219.112 38.0515 220.442 34.5231C221.772 30.9948 222.86 28.0124 222.86 27.8964C222.86 27.7798 219.825 27.6849 216.117 27.6849H209.373L208.19 31.0719ZM182.08 38.8855C184.06 40.8577 182.487 44.9921 178.936 47.1492C176.511 48.6224 168.131 48.8669 168.677 47.4484C168.858 46.9796 169.719 44.5939 170.59 42.1471L172.175 37.6986H176.533C180.112 37.6986 181.101 37.9101 182.08 38.8855ZM127.483 56.9467C127.354 57.0757 124.688 57.1052 121.56 57.0121L115.872 56.8425L121.631 48.2107L127.391 39.5789L127.555 48.1453C127.645 52.857 127.613 56.8177 127.483 56.9467ZM224.634 84.8125C220.526 85.4651 217.898 86.8865 215.244 89.8912C211.206 94.4622 212 98.1802 217.533 100.618C221.505 102.367 222.11 103.222 220.791 105.227L219.877 106.616H206.626H193.375L194.282 103.966L195.188 101.315H200.74H206.292L207.187 99.1816C207.679 98.0082 208.082 96.8154 208.082 96.5309C208.082 96.2464 205.865 96.0137 203.156 96.0137C200.446 96.0137 198.075 95.86 197.887 95.6726C197.699 95.4847 197.945 94.1594 198.435 92.7274L199.326 90.1233H205.196C211.611 90.1233 211.155 90.3736 212.481 86.1325L212.9 84.7925L203.3 84.9545L193.699 85.1164L188.853 98.3699C186.188 105.659 184.198 111.837 184.431 112.098C184.665 112.359 192.809 112.492 202.529 112.393C219.525 112.219 220.291 112.162 222.565 110.901C227.475 108.176 229.948 104.849 229.952 100.965C229.955 98.0901 229.178 97.2731 224.486 95.2138C220.824 93.6069 220.281 92.5201 222.401 91.0404C223.361 90.3701 225.193 90.1233 229.213 90.1233C235.241 90.1233 235.074 90.2287 236.22 85.6796L236.585 84.2329L231.939 84.3118C229.384 84.3548 226.097 84.5804 224.634 84.8125ZM11.9133 98.2226C9.23895 105.593 7.06059 111.835 7.07241 112.093C7.08424 112.351 8.72465 112.484 10.718 112.388L14.3417 112.212L19.2895 98.6874C22.0106 91.2489 24.2368 85.0858 24.2368 84.9922C24.2368 84.8985 22.558 84.8219 20.5061 84.8219H16.776L11.9133 98.2226ZM27.7269 86.417C26.8745 88.6165 23.5091 97.795 20.7136 105.546C19.4651 109.007 18.5943 111.99 18.7788 112.173C18.9626 112.357 20.5026 112.507 22.2009 112.507H25.2878L27.4721 106.469C31.6651 94.8786 31.5912 95.05 31.8436 96.3082C31.9736 96.9562 32.6582 100.8 33.3646 104.849L34.6492 112.212H39.2701H43.8911L46.2213 105.733C47.5029 102.169 49.6003 96.3377 50.8819 92.774C52.1635 89.2103 53.2104 85.9635 53.2074 85.5582C53.2045 85.0611 52.17 84.8219 50.0236 84.8219H46.8444L45.603 88.2089C44.9202 90.0715 43.5009 93.9815 42.4499 96.8973C41.3988 99.813 40.4559 101.801 40.3549 101.315C40.2538 100.829 39.5633 96.9856 38.8208 92.774L37.4701 85.1164L32.9171 84.9444C28.4162 84.7742 28.357 84.7907 27.7269 86.417ZM53.0549 97.6919C50.5349 104.764 48.4736 111.015 48.4736 111.584C48.4736 112.531 49.1794 112.599 56.8973 112.403C66.4857 112.159 69.4236 111.259 73.4789 107.324C78.1436 102.798 81.0301 95.0212 79.6941 90.5792C78.3422 86.0825 75.2659 84.8814 65.0255 84.8531L57.6363 84.8331L53.0549 97.6919ZM82.7426 93.7612C79.1899 103.901 78.5662 107.607 80.037 109.844C82.0871 112.961 87.5191 113.895 93.4405 112.149C95.8547 111.437 97.3958 110.45 99.6493 108.173C102.432 105.362 102.864 104.508 105.661 96.3082C107.318 91.4486 108.85 86.8629 109.067 86.1178C109.45 84.7936 109.375 84.7671 105.726 84.9397L101.992 85.1164L99.2633 93.0685C95.863 102.976 94.4484 105.762 92.2417 106.899C90.035 108.036 88.991 108.029 87.8265 106.869C86.3167 105.364 86.7192 103.12 90.149 93.9256C91.9372 89.1319 93.4003 85.1223 93.4003 85.0157C93.4003 84.9091 91.7073 84.8219 89.6377 84.8219H85.8751L82.7426 93.7612ZM118.816 85.3721C114.267 86.751 111.097 89.5284 109.591 93.4549C108.243 96.9697 109.23 98.7463 113.795 101.021C117.809 103.02 118.622 104.684 116.357 106.265C115.358 106.963 113.59 107.205 109.511 107.205C103.47 107.205 103.714 107.051 102.615 111.568L102.199 113.28L109.014 112.916C116.961 112.492 119.869 111.45 123.124 107.859C124.295 106.568 125.585 104.405 125.992 103.053C127.04 99.5668 125.999 97.964 121.176 95.6332C118.866 94.517 117.413 93.4632 117.522 92.9825C117.96 91.0428 119.584 90.7123 128.686 90.7123C133.664 90.7123 137.736 90.8072 137.736 90.9226C137.736 91.0381 136.262 95.1667 134.461 100.096C132.66 105.026 131.031 109.836 130.84 110.783L130.494 112.507H134.051H137.607L139.842 106.175C141.07 102.692 142.794 97.8545 143.673 95.4247L145.271 91.0069L148.602 90.8301C151.802 90.6605 151.967 90.5704 152.815 88.5494C154.469 84.6046 155.382 84.8166 136.997 84.8726C127.812 84.9003 119.63 85.1253 118.816 85.3721ZM155.761 85.5582C152.024 96.0137 146.603 111.709 146.603 112.076C146.603 112.344 148.236 112.484 150.232 112.388L153.86 112.212L155.629 107.353C157.26 102.872 157.524 102.493 159.022 102.493C161.348 102.493 161.89 103.487 162.091 108.114L162.268 112.212H165.815H169.362L169.532 106.766C169.626 103.771 169.436 100.826 169.113 100.223C168.622 99.3088 168.887 98.89 170.697 97.7166C173.623 95.8211 175.571 92.8028 175.56 90.1834C175.549 87.7583 175.253 87.204 173.22 85.8186C172.028 85.0051 170.312 84.8219 163.892 84.8219C158.132 84.8219 155.954 85.0192 155.761 85.5582ZM179.498 92.9212C177.933 97.3762 175.768 103.49 174.686 106.508C172.487 112.649 172.503 112.691 177.043 112.395C179.64 112.226 179.902 112.061 180.626 110.151C181.055 109.017 183.19 103.185 185.37 97.1918C187.551 91.1983 189.458 85.9635 189.609 85.5582C189.81 85.0175 188.881 84.8219 186.114 84.8219H182.344L179.498 92.9212ZM167.432 91.5205C168.071 92.4977 168.003 92.7587 166.676 94.4398C165.458 95.9831 162.168 97.0298 160.519 96.3989C159.772 96.1133 159.759 95.7857 160.427 94.1252C160.856 93.0579 161.38 91.6978 161.591 91.1023C161.917 90.1851 162.358 90.0838 164.486 90.4384C165.867 90.6682 167.193 91.1553 167.432 91.5205ZM70.1466 91.5823C71.8272 92.7551 72.2907 94.9599 71.4838 97.9446C70.0981 103.073 66.1735 106.333 60.6008 106.986L57.3088 107.372L59.9955 99.7783C61.4734 95.602 62.8017 91.8539 62.9483 91.4486C63.3242 90.4107 68.609 90.5091 70.1466 91.5823Z" fill="#333333"/>
</svg>
