<svg width="336" height="102" viewBox="0 0 336 102" fill="none" xmlns="http://www.w3.org/2000/svg">
<g clip-path="url(#clip0_398_915)">
<path d="M300.396 60.3855V79.4547H306.486V66.7489H328.65V79.4547H334.736V60.4186L300.396 60.3855M305.809 54.2171H329.225C332.477 53.5679 334.896 50.6856 335.577 47.8973H299.456C300.132 50.6865 302.576 53.5679 305.809 54.2171M281.955 79.4669C285.025 78.1598 286.678 75.8988 287.31 73.2532H259.994L260.011 47.9129L253.889 47.9303V79.4669H281.953M208.358 54.1318H229.984C233.245 53.1806 235.981 50.6856 236.657 47.9217H202.304V66.5583H230.421V73.0983L208.365 73.1157C204.909 74.0834 201.978 76.4227 200.516 79.4921L202.303 79.459H236.462V60.362H208.365V54.131M154.972 54.1919H178.371C181.628 53.5392 184.048 50.6604 184.727 47.8694H148.615C149.289 50.6604 151.745 53.5401 154.97 54.1919M154.971 66.6558H178.37C181.627 66.0118 184.047 63.1286 184.726 60.3359H148.615C149.289 63.1208 151.745 66.01 154.97 66.6558M154.971 79.4634H178.37C181.627 78.8133 184.047 75.9319 184.726 73.1427H148.615C149.289 75.9328 151.745 78.8133 154.97 79.4634M94.0723 47.946C94.776 50.7021 97.1523 53.5192 100.413 54.2249H110.257L110.76 54.4251V79.4016H116.913V54.4251L117.472 54.2249H127.334C130.631 53.3721 132.956 50.7021 133.648 47.946V47.8851H94.0723V47.946Z" fill="#333333"/>
<path d="M52.0794 102.675L66.5324 21.0568C80.3066 21.0568 84.6538 22.5722 85.2789 28.7606C85.2789 28.7606 94.5196 25.2733 99.1794 18.2733C80.9948 9.80868 62.7155 9.39654 62.7155 9.39654L52.051 22.439H52.0763L41.4118 9.39654C41.4118 9.39654 23.1009 9.77697 4.94788 18.2733C9.60452 25.3018 18.8484 28.7606 18.8484 28.7606C19.4798 22.569 23.8175 21.0505 37.4749 21.0409L52.0731 102.675M52.07 5.66513C66.7723 5.551 83.5994 7.94772 100.827 15.493C103.132 11.3304 103.722 9.49165 103.722 9.49165C84.8906 2.00981 67.2585 -0.551768 52.0731 -0.615173C36.9193 -0.551768 19.2525 2.00981 0.423828 9.49165C0.423828 9.49165 1.2636 11.7584 3.31568 15.493C20.5405 7.95406 37.3708 5.55734 52.0731 5.66513" fill="#333333"/>
</g>
<defs>
<clipPath id="clip0_398_915">
<rect width="336" height="102" fill="white"/>
</clipPath>
</defs>
</svg>
