<svg width="136" height="125" viewBox="0 0 136 125" fill="none" xmlns="http://www.w3.org/2000/svg">
<g clip-path="url(#clip0_301_33)">
<path d="M84.5368 54.6579L69.537 84.0964L26.1133 0.119873H56.336L84.5368 54.6579Z" fill="white"/>
<path d="M112.32 0.119873L95.126 33.8707V0.119873H112.32Z" fill="white"/>
<path d="M95.1259 0.119873V11.5172L79.1211 0.119873H95.1259Z" fill="white"/>
</g>
<path d="M10.1849 110.896L4.16385 92.961H8.00706L12.3883 106.745L16.744 92.961H20.6128L14.5661 110.896H10.1849ZM23.454 105.849C23.8981 107.454 25.1023 108.257 27.0666 108.257C28.3306 108.257 29.2871 107.83 29.9362 106.976L32.6008 108.513C31.3368 110.341 29.475 111.255 27.0153 111.255C24.8973 111.255 23.1978 110.614 21.9167 109.333C20.6356 108.052 19.9951 106.438 19.9951 104.491C19.9951 102.56 20.6271 100.955 21.8911 99.6738C23.1551 98.3757 24.7777 97.7266 26.7591 97.7266C28.638 97.7266 30.1839 98.3757 31.3966 99.6738C32.6264 100.972 33.2413 102.578 33.2413 104.491C33.2413 104.918 33.1986 105.37 33.1132 105.849H23.454ZM23.4027 103.286H29.9362C29.7483 102.415 29.3554 101.766 28.7576 101.339C28.1768 100.912 27.5107 100.699 26.7591 100.699C25.8709 100.699 25.1364 100.929 24.5557 101.39C23.9749 101.835 23.5906 102.467 23.4027 103.286ZM42.5011 101.262H39.6059V106.592C39.6059 107.036 39.7169 107.36 39.9389 107.565C40.161 107.77 40.4855 107.89 40.9126 107.924C41.3396 107.941 41.8691 107.932 42.5011 107.898V110.896C40.2293 111.152 38.6237 110.939 37.6843 110.255C36.7619 109.572 36.3007 108.351 36.3007 106.592V101.262H34.0716V98.0853H36.3007V95.4975L39.6059 94.4983V98.0853H42.5011V101.262ZM47.2238 105.849C47.6679 107.454 48.8721 108.257 50.8365 108.257C52.1004 108.257 53.057 107.83 53.706 106.976L56.3707 108.513C55.1067 110.341 53.2449 111.255 50.7852 111.255C48.6672 111.255 46.9676 110.614 45.6865 109.333C44.4055 108.052 43.7649 106.438 43.7649 104.491C43.7649 102.56 44.3969 100.955 45.6609 99.6738C46.9249 98.3757 48.5476 97.7266 50.529 97.7266C52.4079 97.7266 53.9537 98.3757 55.1665 99.6738C56.3963 100.972 57.0112 102.578 57.0112 104.491C57.0112 104.918 56.9685 105.37 56.8831 105.849H47.2238ZM47.1726 103.286H53.706C53.5182 102.415 53.1253 101.766 52.5275 101.339C51.9467 100.912 51.2806 100.699 50.529 100.699C49.6408 100.699 48.9063 100.929 48.3256 101.39C47.7448 101.835 47.3605 102.467 47.1726 103.286ZM73.4872 97.7266C74.9561 97.7266 76.1262 98.2049 76.9973 99.1614C77.8855 100.118 78.3296 101.399 78.3296 103.005V110.896H75.0245V103.235C75.0245 102.467 74.8366 101.869 74.4608 101.442C74.085 101.015 73.5555 100.801 72.8723 100.801C72.1207 100.801 71.5314 101.049 71.1044 101.544C70.6944 102.04 70.4895 102.757 70.4895 103.696V110.896H67.1843V103.235C67.1843 102.467 66.9964 101.869 66.6206 101.442C66.2449 101.015 65.7154 100.801 65.0321 100.801C64.2976 100.801 63.7083 101.049 63.2642 101.544C62.8372 102.04 62.6237 102.757 62.6237 103.696V110.896H59.3185V98.0853H62.6237V99.4432C63.3923 98.2988 64.5795 97.7266 66.1851 97.7266C67.7565 97.7266 68.918 98.3415 69.6696 99.5713C70.5236 98.3415 71.7962 97.7266 73.4872 97.7266ZM83.9295 105.849C84.3736 107.454 85.5778 108.257 87.5421 108.257C88.8061 108.257 89.7627 107.83 90.4117 106.976L93.0764 108.513C91.8124 110.341 89.9505 111.255 87.4909 111.255C85.3729 111.255 83.6733 110.614 82.3922 109.333C81.1112 108.052 80.4706 106.438 80.4706 104.491C80.4706 102.56 81.1026 100.955 82.3666 99.6738C83.6306 98.3757 85.2533 97.7266 87.2347 97.7266C89.1136 97.7266 90.6594 98.3757 91.8721 99.6738C93.102 100.972 93.7169 102.578 93.7169 104.491C93.7169 104.918 93.6742 105.37 93.5888 105.849H83.9295ZM83.8783 103.286H90.4117C90.2238 102.415 89.831 101.766 89.2331 101.339C88.6524 100.912 87.9862 100.699 87.2347 100.699C86.3465 100.699 85.612 100.929 85.0312 101.39C84.4505 101.835 84.0662 102.467 83.8783 103.286ZM103.147 97.7266C104.548 97.7266 105.701 98.1963 106.606 99.1358C107.528 100.075 107.989 101.373 107.989 103.03V110.896H104.684V103.44C104.684 102.586 104.454 101.937 103.992 101.493C103.531 101.032 102.916 100.801 102.148 100.801C101.294 100.801 100.61 101.066 100.098 101.595C99.5856 102.125 99.3294 102.919 99.3294 103.978V110.896H96.0242V98.0853H99.3294V99.5201C100.132 98.3244 101.405 97.7266 103.147 97.7266ZM118.139 101.262H115.244V106.592C115.244 107.036 115.355 107.36 115.577 107.565C115.799 107.77 116.124 107.89 116.551 107.924C116.978 107.941 117.507 107.932 118.139 107.898V110.896C115.868 111.152 114.262 110.939 113.322 110.255C112.4 109.572 111.939 108.351 111.939 106.592V101.262H109.71V98.0853H111.939V95.4975L115.244 94.4983V98.0853H118.139V101.262ZM123.243 101.724C123.243 102.065 123.465 102.347 123.91 102.569C124.371 102.774 124.926 102.962 125.575 103.133C126.224 103.286 126.873 103.491 127.522 103.748C128.171 103.987 128.718 104.397 129.162 104.977C129.623 105.558 129.854 106.284 129.854 107.155C129.854 108.471 129.358 109.487 128.368 110.204C127.394 110.905 126.173 111.255 124.704 111.255C122.073 111.255 120.28 110.238 119.323 108.206L122.193 106.592C122.569 107.702 123.406 108.257 124.704 108.257C125.882 108.257 126.472 107.89 126.472 107.155C126.472 106.814 126.241 106.54 125.78 106.335C125.336 106.113 124.789 105.917 124.14 105.746C123.491 105.575 122.842 105.362 122.193 105.106C121.544 104.849 120.989 104.448 120.527 103.901C120.083 103.338 119.861 102.637 119.861 101.8C119.861 100.536 120.323 99.5457 121.245 98.8283C122.184 98.0938 123.346 97.7266 124.729 97.7266C125.771 97.7266 126.719 97.9657 127.573 98.444C128.427 98.9052 129.102 99.5713 129.597 100.442L126.779 101.98C126.369 101.109 125.686 100.673 124.729 100.673C124.302 100.673 123.944 100.767 123.653 100.955C123.38 101.143 123.243 101.399 123.243 101.724Z" fill="white"/>
<path d="M1.81334 115.599H6.05607V116.448H4.35898V119.842H3.51043V116.448H1.81334V115.599ZM10.2988 115.599V119.842H11.1474V118.145H13.693V119.842H14.5415V115.599H13.693V117.296H11.1474V115.599H10.2988ZM19.6328 116.448H23.027V115.599H18.7843V119.842H23.027V118.993H19.6328V118.145H22.1785V117.296H19.6328V116.448ZM38.3009 115.599V119.842H37.4523V115.599H38.3009ZM44.2407 119.842H48.4834V118.993H45.0892V116.448H48.4834V115.599H44.2407V119.842ZM56.1203 116.448V118.993H53.5747V116.448H56.1203ZM52.7262 115.599V119.842H56.9689V115.599H52.7262ZM62.0602 119.842V116.925L64.6058 119.842H65.4544V115.599H64.6058V118.609L62.0602 115.599H61.2116V119.842H62.0602ZM79.0311 115.599V117.296H81.5768V115.599H82.4253V119.842H81.5768V118.145H79.0311V119.842H78.1826V115.599H79.0311ZM86.668 115.599V119.842H90.9108V115.599H90.0622V118.993H87.5166V115.599H86.668ZM96.002 119.842V116.925L98.5477 119.842H99.3962V115.599H98.5477V118.609L96.002 115.599H95.1535V119.842H96.002ZM103.639 116.448H105.336V119.842H106.185V116.448H107.882V115.599H103.639V116.448ZM112.973 116.448H116.367V115.599H112.124V119.842H116.367V118.993H112.973V118.145H115.519V117.296H112.973V116.448ZM124.004 116.448V117.296H121.458V116.448H124.004ZM123.805 119.842H124.853L123.354 118.145H124.853V115.599H120.61V119.842H121.458V118.145H122.307L123.805 119.842ZM133.338 115.599H129.095V118.145H132.49V118.993H129.095V119.842H133.338V117.296H129.944V116.448H133.338V115.599Z" fill="white"/>
<defs>
<clipPath id="clip0_301_33">
<rect width="86.6004" height="84.3602" fill="white" transform="translate(25.9165)"/>
</clipPath>
</defs>
</svg>
