<svg width="137" height="125" viewBox="0 0 137 125" fill="none" xmlns="http://www.w3.org/2000/svg">
<g clip-path="url(#clip0_201_21)">
<path d="M84.6057 54.7761L69.6058 84.2145L26.1821 0.238037H56.4048L84.6057 54.7761Z" fill="#333333"/>
<path d="M112.389 0.238037L95.1948 33.9888V0.238037H112.389Z" fill="#333333"/>
<path d="M95.195 0.238037V11.6354L79.1902 0.238037H95.195Z" fill="#333333"/>
</g>
<path d="M10.2542 111.014L4.23318 93.0792H8.0764L12.4577 106.863L16.8133 93.0792H20.6821L14.6355 111.014H10.2542ZM23.5233 105.967C23.9674 107.572 25.1716 108.375 27.1359 108.375C28.3999 108.375 29.3564 107.948 30.0055 107.094L32.6701 108.631C31.4062 110.459 29.5443 111.373 27.0847 111.373C24.9666 111.373 23.2671 110.732 21.986 109.451C20.7049 108.17 20.0644 106.556 20.0644 104.609C20.0644 102.679 20.6964 101.073 21.9604 99.792C23.2244 98.4938 24.8471 97.8448 26.8285 97.8448C28.7074 97.8448 30.2532 98.4938 31.4659 99.792C32.6958 101.09 33.3107 102.696 33.3107 104.609C33.3107 105.036 33.268 105.488 33.1826 105.967H23.5233ZM23.4721 103.405H30.0055C29.8176 102.533 29.4248 101.884 28.8269 101.457C28.2462 101.03 27.58 100.817 26.8285 100.817C25.9403 100.817 25.2058 101.047 24.625 101.509C24.0443 101.953 23.66 102.585 23.4721 103.405ZM42.5704 101.381H39.6752V106.71C39.6752 107.154 39.7862 107.478 40.0083 107.683C40.2303 107.888 40.5549 108.008 40.9819 108.042C41.4089 108.059 41.9384 108.051 42.5704 108.016V111.014C40.2987 111.27 38.693 111.057 37.7536 110.374C36.8312 109.69 36.37 108.469 36.37 106.71V101.381H34.141V98.2035H36.37V95.6157L39.6752 94.6165V98.2035H42.5704V101.381ZM47.2932 105.967C47.7373 107.572 48.9415 108.375 50.9058 108.375C52.1698 108.375 53.1263 107.948 53.7754 107.094L56.44 108.631C55.176 110.459 53.3142 111.373 50.8545 111.373C48.7365 111.373 47.037 110.732 45.7559 109.451C44.4748 108.17 43.8343 106.556 43.8343 104.609C43.8343 102.679 44.4663 101.073 45.7303 99.792C46.9943 98.4938 48.6169 97.8448 50.5983 97.8448C52.4772 97.8448 54.0231 98.4938 55.2358 99.792C56.4656 101.09 57.0805 102.696 57.0805 104.609C57.0805 105.036 57.0378 105.488 56.9524 105.967H47.2932ZM47.2419 103.405H53.7754C53.5875 102.533 53.1946 101.884 52.5968 101.457C52.016 101.03 51.3499 100.817 50.5983 100.817C49.7101 100.817 48.9756 101.047 48.3949 101.509C47.8141 101.953 47.4298 102.585 47.2419 103.405ZM73.5565 97.8448C75.0255 97.8448 76.1955 98.323 77.0667 99.2796C77.9549 100.236 78.399 101.517 78.399 103.123V111.014H75.0938V103.353C75.0938 102.585 74.9059 101.987 74.5301 101.56C74.1544 101.133 73.6248 100.919 72.9416 100.919C72.19 100.919 71.6008 101.167 71.1737 101.662C70.7638 102.158 70.5588 102.875 70.5588 103.815V111.014H67.2537V103.353C67.2537 102.585 67.0658 101.987 66.69 101.56C66.3142 101.133 65.7847 100.919 65.1015 100.919C64.367 100.919 63.7777 101.167 63.3336 101.662C62.9066 102.158 62.693 102.875 62.693 103.815V111.014H59.3879V98.2035H62.693V99.5614C63.4617 98.417 64.6488 97.8448 66.2544 97.8448C67.8259 97.8448 68.9874 98.4597 69.7389 99.6895C70.593 98.4597 71.8655 97.8448 73.5565 97.8448ZM83.9988 105.967C84.443 107.572 85.6472 108.375 87.6115 108.375C88.8755 108.375 89.832 107.948 90.4811 107.094L93.1457 108.631C91.8817 110.459 90.0199 111.373 87.5602 111.373C85.4422 111.373 83.7426 110.732 82.4616 109.451C81.1805 108.17 80.54 106.556 80.54 104.609C80.54 102.679 81.172 101.073 82.4359 99.792C83.6999 98.4938 85.3226 97.8448 87.304 97.8448C89.1829 97.8448 90.7287 98.4938 91.9415 99.792C93.1713 101.09 93.7862 102.696 93.7862 104.609C93.7862 105.036 93.7435 105.488 93.6581 105.967H83.9988ZM83.9476 103.405H90.4811C90.2932 102.533 89.9003 101.884 89.3025 101.457C88.7217 101.03 88.0556 100.817 87.304 100.817C86.4158 100.817 85.6813 101.047 85.1006 101.509C84.5198 101.953 84.1355 102.585 83.9476 103.405ZM103.216 97.8448C104.617 97.8448 105.77 98.3145 106.675 99.2539C107.598 100.193 108.059 101.492 108.059 103.148V111.014H104.754V103.558C104.754 102.704 104.523 102.055 104.062 101.611C103.601 101.15 102.986 100.919 102.217 100.919C101.363 100.919 100.68 101.184 100.167 101.714C99.6549 102.243 99.3987 103.037 99.3987 104.096V111.014H96.0935V98.2035H99.3987V99.6383C100.202 98.4426 101.474 97.8448 103.216 97.8448ZM118.209 101.381H115.313V106.71C115.313 107.154 115.424 107.478 115.646 107.683C115.869 107.888 116.193 108.008 116.62 108.042C117.047 108.059 117.577 108.051 118.209 108.016V111.014C115.937 111.27 114.331 111.057 113.392 110.374C112.469 109.69 112.008 108.469 112.008 106.71V101.381H109.779V98.2035H112.008V95.6157L115.313 94.6165V98.2035H118.209V101.381ZM123.313 101.842C123.313 102.183 123.535 102.465 123.979 102.687C124.44 102.892 124.995 103.08 125.644 103.251C126.293 103.405 126.942 103.61 127.591 103.866C128.241 104.105 128.787 104.515 129.231 105.096C129.692 105.676 129.923 106.402 129.923 107.273C129.923 108.589 129.428 109.605 128.437 110.322C127.463 111.023 126.242 111.373 124.773 111.373C122.143 111.373 120.349 110.357 119.393 108.324L122.262 106.71C122.638 107.82 123.475 108.375 124.773 108.375C125.952 108.375 126.541 108.008 126.541 107.273C126.541 106.932 126.31 106.659 125.849 106.454C125.405 106.231 124.859 106.035 124.209 105.864C123.56 105.693 122.911 105.48 122.262 105.224C121.613 104.968 121.058 104.566 120.597 104.02C120.153 103.456 119.931 102.756 119.931 101.919C119.931 100.655 120.392 99.6639 121.314 98.9465C122.254 98.212 123.415 97.8448 124.799 97.8448C125.841 97.8448 126.789 98.0839 127.643 98.5622C128.497 99.0233 129.171 99.6895 129.667 100.561L126.848 102.098C126.439 101.227 125.755 100.791 124.799 100.791C124.372 100.791 124.013 100.885 123.723 101.073C123.449 101.261 123.313 101.517 123.313 101.842Z" fill="#333333"/>
<path d="M1.88243 115.717H6.12516V116.566H4.42807V119.96H3.57952V116.566H1.88243V115.717ZM10.3679 115.717V119.96H11.2164V118.263H13.7621V119.96H14.6106V115.717H13.7621V117.414H11.2164V115.717H10.3679ZM19.7019 116.566H23.0961V115.717H18.8534V119.96H23.0961V119.112H19.7019V118.263H22.2476V117.414H19.7019V116.566ZM38.3699 115.717V119.96H37.5214V115.717H38.3699ZM44.3098 119.96H48.5525V119.112H45.1583V116.566H48.5525V115.717H44.3098V119.96ZM56.1894 116.566V119.112H53.6438V116.566H56.1894ZM52.7952 115.717V119.96H57.038V115.717H52.7952ZM62.1293 119.96V117.043L64.6749 119.96H65.5235V115.717H64.6749V118.727L62.1293 115.717H61.2807V119.96H62.1293ZM79.1002 115.717V117.414H81.6458V115.717H82.4944V119.96H81.6458V118.263H79.1002V119.96H78.2517V115.717H79.1002ZM86.7371 115.717V119.96H90.9799V115.717H90.1313V119.112H87.5857V115.717H86.7371ZM96.0711 119.96V117.043L98.6168 119.96H99.4653V115.717H98.6168V118.727L96.0711 115.717H95.2226V119.96H96.0711ZM103.708 116.566H105.405V119.96H106.254V116.566H107.951V115.717H103.708V116.566ZM113.042 116.566H116.436V115.717H112.194V119.96H116.436V119.112H113.042V118.263H115.588V117.414H113.042V116.566ZM124.073 116.566V117.414H121.528V116.566H124.073ZM123.874 119.96H124.922L123.424 118.263H124.922V115.717H120.679V119.96H121.528V118.263H122.376L123.874 119.96ZM133.407 115.717H129.164V118.263H132.559V119.112H129.164V119.96H133.407V117.414H130.013V116.566H133.407V115.717Z" fill="#333333"/>
<defs>
<clipPath id="clip0_201_21">
<rect width="86.6004" height="84.3602" fill="white" transform="translate(25.9856 0.118164)"/>
</clipPath>
</defs>
</svg>
