<svg width="569" height="316" viewBox="0 0 569 316" fill="none" xmlns="http://www.w3.org/2000/svg">
<path fill-rule="evenodd" clip-rule="evenodd" d="M164 14.88V29.76L169.47 33.89C172.479 36.161 175.516 39.028 176.22 40.26C177.191 41.959 177.621 54.15 178 90.779L178.5 139.057L193 145.254C212.929 153.771 249.328 171.9 268.068 182.642L283.636 191.566L292.205 186.374C318.324 170.549 354.288 152.465 377.5 143.483C383 141.354 388.063 139.195 388.75 138.684C389.72 137.963 390 127.01 390 89.842C390 35.834 389.437 39.747 398.101 33.523L403 30.003V15.002V0H362H321V5.5V11H330.418C335.598 11 340.565 11.28 341.455 11.621C345.904 13.328 346 14.67 346 75.317V132.734L342.25 135.184C330.515 142.85 312.591 144.034 304.609 137.669L301.738 135.38L300.924 86.94C300.476 60.298 300.085 30.963 300.055 21.75L300 5H283.635H267.269L266.525 68.724C266.115 103.772 265.4 133.448 264.935 134.672C263.748 137.793 260.201 139.854 253.647 141.228C244.42 143.164 230.1 139.811 223.75 134.229C222.121 132.796 222 128.643 222 74.019V15.349L224.314 13.174C226.362 11.251 227.746 11 236.314 11H246V5.5V0H205H164V14.88ZM6.00001 100V105H74.5H143V100V95H74.5H6.00001V100ZM422 100.007V105.014L490.75 104.757L559.5 104.5L559.805 99.75L560.11 95H491.055H422V100.007ZM0.167009 218.89C0.350009 219.379 5.42801 230.854 11.452 244.39L22.403 269H37.953H53.503L55.983 264.25C60.814 254.996 71.198 236.865 71.486 237.18C71.647 237.356 75.691 244.599 80.473 253.275L89.168 269.05L104.777 268.775L120.386 268.5L131.161 244C137.087 230.525 141.95 219.15 141.968 218.723C141.986 218.296 135.422 218.071 127.383 218.223L112.765 218.5L107.633 232.236C104.81 239.791 102.275 245.974 102 245.975C101.725 245.977 98.124 239.796 93.999 232.239L86.498 218.5L71.344 218.224L56.19 217.949L51.368 226.724C48.716 231.551 45.339 237.75 43.863 240.5C42.388 243.25 40.848 245.413 40.441 245.306C40.033 245.2 37.415 239.012 34.623 231.556L29.546 218H14.69C6.43201 218 -0.0189912 218.395 0.167009 218.89ZM162.984 242.644C152.818 256.198 144.35 267.673 144.167 268.144C143.983 268.615 150.959 269 159.668 269H175.503L177.902 264.478L180.301 259.956L198.382 260.228L216.463 260.5L218.806 264.75L221.15 269H237.697C250.794 269 254.039 268.739 253.259 267.75C252.717 267.063 244.095 255.588 234.099 242.25L215.924 218H198.696H181.468L162.984 242.644ZM262.321 232.734L282 247.467V258.234V269H298H314V258.113V247.225L333.186 232.863L352.372 218.5L335.576 218.225L318.779 217.951L313.031 222.725C309.87 225.351 305.192 229.243 302.637 231.374L297.99 235.249L295.072 232.874C293.468 231.568 288.78 227.688 284.656 224.25L277.157 218H259.9H242.642L262.321 232.734ZM364 243.5V269H378.973H393.945L394.223 255.161L394.5 241.321L406.5 250.196C413.1 255.078 421.625 261.305 425.444 264.036L432.387 269H447.194H462V243.5V218H447.027H432.055L431.777 231.975L431.5 245.949L418.5 236.344C411.35 231.061 402.912 224.772 399.749 222.369L393.997 218H378.999H364V243.5ZM483 243.5V269H526H569V263.5V258H542H515V252.5V247H539.5H564V242V237H539.5H515V233.017V229.033L541.25 228.767L567.5 228.5L567.802 223.25L568.105 218H525.552H483V243.5ZM203.868 239.829C206.691 244.41 209 248.573 209 249.079C209 249.586 204.275 250 198.5 250C191.741 250 188 249.621 188 248.935C188 247.842 198.152 230.78 198.527 231.243C198.642 231.384 201.045 235.248 203.868 239.829ZM438 288.632C430.082 289.988 428 291.521 428 295.999C428 300.738 431.942 303 440.201 303C448.176 303 451 304.134 451 307.335C451 311.001 449.076 312.001 442.05 311.985C434.797 311.968 433.408 311.441 432.855 308.5C432.638 307.343 431.536 306.365 430.24 306.18C428.433 305.923 428 306.343 428 308.359C428 311.304 430.184 313.757 433.561 314.605C438.029 315.726 451.83 314.599 453.448 312.981C456.052 310.377 456.404 305.72 454.203 303.002C452.506 300.906 451.246 300.534 444.87 300.246C433.46 299.731 432.825 299.485 433.189 295.716L433.5 292.5L441.332 292.206C448.507 291.938 449.209 292.084 449.699 293.956C450.337 296.398 455 296.876 455 294.5C455 292.205 451.285 289 448.625 289C447.319 289 444.956 288.821 443.375 288.602C441.794 288.383 439.375 288.396 438 288.632ZM538.09 288.964C530.556 290.182 527.785 295.876 532.455 300.545C534.575 302.666 535.833 303.002 541.705 303.014C551.681 303.034 553 303.569 553 307.598C553 311.621 551.388 312.265 542.467 311.806C537.067 311.528 536.394 311.241 535.177 308.692C534.354 306.971 533.195 306.008 532.179 306.204C529.767 306.669 529.627 309.318 531.87 312.087C533.703 314.352 534.45 314.5 544 314.5C553.489 314.5 554.306 314.34 556.088 312.139C558.601 309.036 558.518 304.779 555.898 302.408C554.284 300.947 551.904 300.422 545.648 300.148C536.575 299.749 534.76 298.87 535.199 295.086C535.491 292.58 535.741 292.491 543.332 292.206C550.507 291.938 551.209 292.084 551.699 293.956C552.432 296.76 557 296.818 557 294.023C557 289.924 547.642 287.42 538.09 288.964ZM26 302V315H38C48 315 50 314.75 50 313.5C50 312.272 48.278 312 40.5 312H31V307.5V303H40C47.333 303 49 302.722 49 301.5C49 300.278 47.333 300 40 300H31V296V292H40.5C48.278 292 50 291.728 50 290.5C50 289.25 48 289 38 289H26V302ZM76 302V315H78.5H81V303.465V291.93L84.222 295.715C97.77 311.627 101.248 315 104.106 315H107V302C107 289.739 106.888 289 105.033 289C103.211 289 103.045 289.825 102.783 300.181L102.5 311.362L93 300.254C84.111 289.86 83.259 289.141 79.75 289.073L76 289V302ZM132 290.5C132 291.667 133.333 292 138 292H144V303.5C144 314.333 144.116 315 146 315C147.884 315 148 314.333 148 303.5V292H154C158.667 292 160 291.667 160 290.5C160 289.238 157.778 289 146 289C134.222 289 132 289.238 132 290.5ZM184.22 301.75L184.5 314.5L196.25 314.782C206.259 315.022 208 314.836 208 313.532C208 312.264 206.365 312 198.5 312H189V307.5V303H198C205.333 303 207 302.722 207 301.5C207 300.278 205.333 300 198 300H189V296V292H198.5C206.278 292 208 291.728 208 290.5C208 289.25 205.997 289 195.97 289H183.94L184.22 301.75ZM234.22 301.668C234.492 314.116 234.567 314.51 236.75 314.82C238.829 315.115 239 314.755 239 310.07V305H247.893C257.685 305 258 305.205 258 311.582C258 314.333 258.39 315 260 315C261.731 315 262 314.333 262 310.05C262 306.635 261.523 304.832 260.462 304.239C259.128 303.492 259.194 303.134 260.962 301.534C263.683 299.072 263.65 293.899 260.898 291.405C259.118 289.792 256.893 289.449 246.368 289.168L233.939 288.836L234.22 301.668ZM289.22 301.75C289.492 314.113 289.568 314.51 291.75 314.82C293.825 315.114 294 314.751 294 310.166V305.193L303.397 304.847C314.565 304.435 317 303.015 317 296.918C317 294.033 316.38 292.657 314.365 291.073C312.05 289.251 310.349 289 300.335 289H288.94L289.22 301.75ZM342.22 301.668C342.492 314.116 342.567 314.51 344.75 314.82C346.829 315.115 347 314.755 347 310.07V305H355.883C365.624 305 365.952 305.235 365.986 312.25C365.997 314.329 366.488 315 368 315C369.731 315 370 314.333 370 310.05C370 306.508 369.535 304.839 368.365 304.184C366.896 303.362 366.947 303.053 368.865 301.135C371.511 298.489 371.597 294.959 369.091 291.861C367.297 289.643 366.419 289.48 354.56 289.168L341.939 288.836L342.22 301.668ZM397.22 301.75C397.492 314.113 397.568 314.51 399.75 314.82C401.985 315.137 402 315.051 402 302.07V289H399.47H396.94L397.22 301.75ZM482 302V315H493.5C503.056 315 505 314.746 505 313.5C505 312.272 503.278 312 495.5 312H486V307.5V303H495.5C503.278 303 505 302.728 505 301.5C505 300.272 503.278 300 495.5 300H486V296V292H495.5C503.278 292 505 291.728 505 290.5C505 289.254 503.056 289 493.5 289H482V302ZM257.5 296.5V300.5L248.25 300.788L239 301.075V296.5V291.925L248.25 292.212L257.5 292.5V296.5ZM311.801 296.62C312.159 301.518 311.239 301.965 300.75 301.986L294 302V296.961V291.922L302.75 292.211L311.5 292.5L311.801 296.62ZM365.57 294.421C366.965 299.983 366.242 300.476 356.239 300.788L347 301.075V296.538V292H355.981C364.648 292 364.983 292.085 365.57 294.421Z" fill="#333333"/>
</svg>
