<svg width="22" height="22" viewBox="0 0 22 22" fill="none" xmlns="http://www.w3.org/2000/svg">
<path fill-rule="evenodd" clip-rule="evenodd" d="M18.7554 18.7554H15.4475V13.0101C15.4475 11.3165 14.7194 10.7942 13.8014 10.7942C12.8201 10.7942 11.8547 11.5381 11.8547 13.0576V18.7554H8.54676V8.24604H11.7281V9.70216H11.7755C12.0921 9.06907 13.2 7.96115 14.9094 7.96115C16.7612 7.96115 18.7554 9.03741 18.7554 12.2504V18.7554ZM4.90648 6.7741C3.84604 6.7741 3.00719 5.98273 3.00719 4.87482C3.00719 3.78273 3.84604 2.97554 4.90648 2.97554C5.95108 2.97554 6.80576 3.78273 6.80576 4.87482C6.80576 5.98273 5.95108 6.7741 4.90648 6.7741ZM3.2446 18.7396H6.56835V8.23022H3.2446V18.7396ZM20.3856 0H1.63022C0.728058 0 0 0.728058 0 1.63022V20.3856C0 21.2719 0.728058 22 1.63022 22H20.3856C21.2719 22 22 21.2719 22 20.3856V1.63022C22 0.728058 21.2719 0 20.3856 0Z" fill="white"/>
</svg>
