<svg width="56" height="54" viewBox="0 0 56 54" fill="none" xmlns="http://www.w3.org/2000/svg">
<path d="M54.7188 24.1797H11.2934L37.2848 1.61719C37.7004 1.25352 37.448 0.578125 36.8988 0.578125H30.3305C30.041 0.578125 29.7664 0.682031 29.5512 0.867578L1.50391 25.2039C1.24703 25.4266 1.04101 25.7019 0.899815 26.0111C0.75862 26.3204 0.685547 26.6563 0.685547 26.9963C0.685547 27.3362 0.75862 27.6722 0.899815 27.9815C1.04101 28.2907 1.24703 28.566 1.50391 28.7887L29.7145 53.2734C29.8258 53.3699 29.9594 53.4219 30.1004 53.4219H36.8914C37.4406 53.4219 37.693 52.7391 37.2773 52.3828L11.2934 29.8203H54.7188C55.0453 29.8203 55.3125 29.5531 55.3125 29.2266V24.7734C55.3125 24.4469 55.0453 24.1797 54.7188 24.1797Z" fill="black"/>
</svg>
