<svg width="512" height="512" viewBox="0 0 512 512" fill="none" xmlns="http://www.w3.org/2000/svg">
<path d="M340.94 501.868L113.426 274.913C110.726 272.211 108.817 269.284 107.701 266.132C106.567 262.98 106 259.602 106 256C106 252.398 106.567 249.02 107.701 245.868C108.817 242.716 110.726 239.789 113.426 237.087L340.94 9.45646C347.241 3.15215 355.118 0 364.569 0C374.021 0 382.122 3.37731 388.873 10.1319C395.624 16.8865 399 24.7669 399 33.7731C399 42.7792 395.624 50.6596 388.873 57.4142L190.389 256L388.873 454.586C395.174 460.89 398.325 468.653 398.325 477.876C398.325 487.116 394.949 495.113 388.198 501.868C381.447 508.623 373.571 512 364.569 512C355.568 512 347.691 508.623 340.94 501.868Z" fill="#252525"/>
</svg>
