<svg width="56" height="54" viewBox="0 0 56 54" fill="none" xmlns="http://www.w3.org/2000/svg">
<path d="M54.4961 25.2039L26.4563 0.867578C26.241 0.682031 25.9664 0.578125 25.677 0.578125H19.1086C18.5594 0.578125 18.307 1.26094 18.7227 1.61719L44.7141 24.1797H1.28125C0.954688 24.1797 0.6875 24.4469 0.6875 24.7734V29.2266C0.6875 29.5531 0.954688 29.8203 1.28125 29.8203H44.7066L18.7152 52.3828C18.2996 52.7465 18.552 53.4219 19.1012 53.4219H25.8922C26.0332 53.4219 26.1742 53.3699 26.2781 53.2734L54.4961 28.7961C54.753 28.5727 54.959 28.2967 55.1002 27.9869C55.2414 27.677 55.3144 27.3405 55.3144 27C55.3144 26.6595 55.2414 26.323 55.1002 26.0131C54.959 25.7033 54.753 25.4273 54.4961 25.2039Z" fill="black"/>
</svg>
