<svg width="48" height="48" viewBox="0 0 48 48" fill="none" xmlns="http://www.w3.org/2000/svg">
<path d="M40.02 30.76C37.56 30.76 35.18 30.36 32.96 29.64C32.6122 29.5221 32.2382 29.5046 31.881 29.5895C31.5237 29.6744 31.1976 29.8583 30.94 30.12L27.8 34.06C22.14 31.36 16.84 26.26 14.02 20.4L17.92 17.08C18.46 16.52 18.62 15.74 18.4 15.04C17.66 12.82 17.28 10.44 17.28 7.98C17.28 6.9 16.38 6 15.3 6H8.38C7.3 6 6 6.48 6 7.98C6 26.56 21.46 42 40.02 42C41.44 42 42 40.74 42 39.64V32.74C42 31.66 41.1 30.76 40.02 30.76Z" fill="#803EF9"/>
</svg>
