<svg width="512" height="512" viewBox="0 0 512 512" fill="none" xmlns="http://www.w3.org/2000/svg">
<path d="M304.15 256L438.925 121.225C445.321 114.84 448.919 106.175 448.927 97.1376C448.935 88.0997 445.353 79.4288 438.968 73.0324C432.583 66.636 423.918 63.0381 414.88 63.0301C405.842 63.0221 397.171 66.6047 390.775 72.9898L256 207.765L121.225 72.9898C114.829 66.5935 106.153 63 97.1075 63C88.0616 63 79.3862 66.5935 72.9898 72.9898C66.5935 79.3862 63 88.0616 63 97.1075C63 106.153 66.5935 114.829 72.9898 121.225L207.765 256L72.9898 390.775C66.5935 397.171 63 405.847 63 414.893C63 423.938 66.5935 432.614 72.9898 439.01C79.3862 445.407 88.0616 449 97.1075 449C106.153 449 114.829 445.407 121.225 439.01L256 304.235L390.775 439.01C397.171 445.407 405.847 449 414.893 449C423.938 449 432.614 445.407 439.01 439.01C445.407 432.614 449 423.938 449 414.893C449 405.847 445.407 397.171 439.01 390.775L304.15 256Z" fill="white"/>
</svg>
