<svg width="48" height="48" viewBox="0 0 48 48" fill="none" xmlns="http://www.w3.org/2000/svg">
<path d="M8 40C6.9 40 5.95867 39.6087 5.176 38.826C4.392 38.042 4 37.1 4 36V12C4 10.9 4.392 9.95867 5.176 9.176C5.95867 8.392 6.9 8 8 8H40C41.1 8 42.042 8.392 42.826 9.176C43.6087 9.95867 44 10.9 44 12V36C44 37.1 43.6087 38.042 42.826 38.826C42.042 39.6087 41.1 40 40 40H8ZM24 25.65C24.1667 25.65 24.3413 25.6247 24.524 25.574C24.708 25.5247 24.8833 25.45 25.05 25.35L39.2 16.5C39.4667 16.3333 39.6667 16.1253 39.8 15.876C39.9333 15.6253 40 15.35 40 15.05C40 14.3833 39.7167 13.8833 39.15 13.55C38.5833 13.2167 38 13.2333 37.4 13.6L24 22L10.6 13.6C10 13.2333 9.41667 13.2247 8.85 13.574C8.28333 13.9247 8 14.4167 8 15.05C8 15.3833 8.06667 15.6747 8.2 15.924C8.33333 16.1747 8.53333 16.3667 8.8 16.5L22.95 25.35C23.1167 25.45 23.292 25.5247 23.476 25.574C23.6587 25.6247 23.8333 25.65 24 25.65Z" fill="#803EF9"/>
</svg>
