<svg width="512" height="512" viewBox="0 0 512 512" fill="none" xmlns="http://www.w3.org/2000/svg">
<path d="M0 96C0 78.3269 14.3269 64 32 64H480C497.673 64 512 78.3269 512 96V96C512 113.673 497.673 128 480 128H32C14.3269 128 0 113.673 0 96V96ZM168 256C168 238.327 182.327 224 200 224H480C497.673 224 512 238.327 512 256V256C512 273.673 497.673 288 480 288H200C182.327 288 168 273.673 168 256V256ZM78 416C78 398.327 92.3269 384 110 384H480C497.673 384 512 398.327 512 416V416C512 433.673 497.673 448 480 448H110C92.3269 448 78 433.673 78 416V416Z" fill="black"/>
</svg>
