<svg width="91" height="100" viewBox="0 0 91 100" fill="none" xmlns="http://www.w3.org/2000/svg">
<path d="M89.3186 25.1028C89.3043 25.0766 89.2932 25.0495 89.2782 25.0233C89.2659 25.0019 89.2512 24.9827 89.2386 24.9616C88.5963 23.8747 87.6803 22.9753 86.5818 22.3532L48.6772 0.929233C47.5922 0.320028 46.3688 3.87246e-05 45.1246 3.51457e-09C43.8803 -3.87176e-05 42.6568 0.319875 41.5718 0.929012L3.66681 22.3537C2.5497 22.9859 1.62147 23.9047 0.977844 25.0153C0.971012 25.0272 0.962862 25.0378 0.956252 25.0497C0.944573 25.0706 0.935869 25.0924 0.924633 25.1136C0.319719 26.1902 0.00134416 27.404 0 28.6389V71.3556C0.00124418 72.634 0.341285 73.8891 0.985486 74.9933C1.62969 76.0975 2.55503 77.0112 3.66727 77.6413L41.5719 99.0653C42.5814 99.6329 43.7127 99.9489 44.8703 99.9865C44.9423 99.9916 45.0138 99.9989 45.0871 99.9995C45.0998 99.9998 45.1126 100 45.1254 100C45.2235 100 45.3198 99.9929 45.4158 99.9852C46.5606 99.9422 47.6786 99.627 48.6772 99.0656L86.5823 77.6409C87.6944 77.0108 88.6196 76.0971 89.2638 74.993C89.9079 73.889 90.2479 72.6339 90.2491 71.3556V28.639C90.2478 27.3999 89.9273 26.182 89.3186 25.1028V25.1028ZM45.1245 7.21449L79.335 26.5508L67.2759 33.4462L32.7986 14.1815L45.1245 7.21449ZM45.5828 45.8506L10.9783 26.5145L25.4403 18.3403L59.9605 37.6293L45.5828 45.8506ZM48.7935 90.7063L49.1921 52.1037L63.6864 43.8156V59.2527C63.6864 60.2101 64.0667 61.1283 64.7437 61.8053C65.4207 62.4823 66.3389 62.8626 67.2963 62.8626C68.2538 62.8626 69.172 62.4823 69.849 61.8053C70.526 61.1283 70.9063 60.2101 70.9063 59.2527V39.6872L83.0291 32.7552V71.3556L48.7935 90.7063Z" fill="#803EF9"/>
</svg>
