<svg width="42" height="37" viewBox="0 0 42 37" fill="none" xmlns="http://www.w3.org/2000/svg">
<path d="M39.8236 4.61723H32.3206V1.73146C32.3206 0.771943 31.5486 0 30.5891 0H10.9659C10.0064 0 9.23445 0.771943 9.23445 1.73146V4.61723H1.73146C0.771943 4.61723 0 5.38917 0 6.34869V10.3888C0 12.9643 1.62324 15.612 4.46572 17.6537C6.73827 19.2913 9.50139 20.3302 12.4016 20.6621C14.6669 24.4208 17.3146 25.9719 17.3146 25.9719V31.1663H13.8517C11.305 31.1663 9.23445 32.6597 9.23445 35.2064V36.0721C9.23445 36.5482 9.62403 36.9378 10.1002 36.9378H31.4549C31.931 36.9378 32.3206 36.5482 32.3206 36.0721V35.2064C32.3206 32.6597 30.25 31.1663 27.7034 31.1663H24.2404V25.9719C24.2404 25.9719 26.8881 24.4208 29.1535 20.6621C32.0609 20.3302 34.824 19.2913 37.0893 17.6537C39.9246 15.612 41.555 12.9643 41.555 10.3888V6.34869C41.555 5.38917 40.7831 4.61723 39.8236 4.61723ZM7.16392 13.9094C5.4036 12.6397 4.61723 11.2256 4.61723 10.3888V9.23445H9.24888C9.32103 11.5864 9.66732 13.6497 10.1723 15.4533C9.08295 15.0781 8.06572 14.5587 7.16392 13.9094ZM36.9378 10.3888C36.9378 11.5503 35.6609 12.9932 34.3911 13.9094C33.4893 14.5587 32.4649 15.0781 31.3755 15.4533C31.8805 13.6497 32.2268 11.5864 32.2989 9.23445H36.9378V10.3888Z" fill="#602BC1"/>
</svg>
