<svg width="100" height="100" viewBox="0 0 100 100" fill="none" xmlns="http://www.w3.org/2000/svg">
<path d="M5.26316 0H89.4737C90.8696 0 92.2083 0.554509 93.1953 1.54154C94.1823 2.52858 94.7368 3.86728 94.7368 5.26316V31.5789C94.7368 32.9748 94.1823 34.3135 93.1953 35.3006C92.2083 36.2876 90.8696 36.8421 89.4737 36.8421H5.26316C3.86728 36.8421 2.52858 36.2876 1.54154 35.3006C0.554509 34.3135 0 32.9748 0 31.5789V5.26316C0 3.86728 0.554509 2.52858 1.54154 1.54154C2.52858 0.554509 3.86728 0 5.26316 0V0ZM15.7895 47.3684H47.3684C48.7643 47.3684 50.103 47.9229 51.09 48.91C52.0771 49.897 52.6316 51.2357 52.6316 52.6316V68.4211H57.8947V100H36.8421V68.4211H42.1053V57.8947H10.5263C9.13044 57.8947 7.79174 57.3402 6.8047 56.3532C5.81767 55.3662 5.26316 54.0275 5.26316 52.6316V42.1053H15.7895V47.3684ZM77.5368 56.4842L86.8421 47.1789L96.1474 56.4842C97.9872 58.3245 99.24 60.669 99.7474 63.2213C100.255 65.7736 99.9941 68.419 98.9981 70.8231C98.0021 73.2272 96.3156 75.282 94.1519 76.7276C91.9881 78.1733 89.4443 78.9449 86.8421 78.9449C84.2399 78.9449 81.6961 78.1733 79.5323 76.7276C77.3686 75.282 75.6821 73.2272 74.6861 70.8231C73.6901 68.419 73.4294 65.7736 73.9368 63.2213C74.4442 60.669 75.697 58.3245 77.5368 56.4842V56.4842Z" fill="#803EF9"/>
</svg>
