<svg width="100" height="100" viewBox="0 0 100 100" fill="none" xmlns="http://www.w3.org/2000/svg">
<path d="M50 0C22.2222 0 0 22.2222 0 50C0 77.7778 22.2222 100 50 100C77.7778 100 100 77.7778 100 50C100 22.2222 77.7778 0 50 0ZM50 38.8889C56.1111 38.8889 61.1111 43.8889 61.1111 50C61.1111 56.1111 56.1111 61.1111 50 61.1111C43.8889 61.1111 38.8889 56.1111 38.8889 50C38.8889 43.8889 43.8889 38.8889 50 38.8889ZM65.5556 27.7778C65.5556 23.8889 68.8889 21.1111 72.2222 21.1111C75.5556 21.1111 78.8889 24.4444 78.8889 27.7778C78.8889 31.1111 76.1111 34.4444 72.2222 34.4444C68.3333 34.4444 65.5556 31.6667 65.5556 27.7778V27.7778ZM50 88.8889C28.3333 88.8889 11.1111 71.6667 11.1111 50H27.7778C27.7778 62.2222 37.7778 72.2222 50 72.2222C62.2222 72.2222 72.2222 62.2222 72.2222 50H88.8889C88.8889 71.6667 71.6667 88.8889 50 88.8889Z" fill="#803EF9"/>
</svg>
