<svg width="100" height="90" viewBox="0 0 100 90" fill="none" xmlns="http://www.w3.org/2000/svg">
<path d="M85 0H15C11.0218 0 7.20644 1.58035 4.3934 4.3934C1.58035 7.20644 0 11.0218 0 15V40H100V15C100 11.0218 98.4196 7.20644 95.6066 4.3934C92.7936 1.58035 88.9782 0 85 0Z" fill="#803EF9"/>
<path d="M0 55C0 58.9782 1.58035 62.7936 4.3934 65.6066C7.20644 68.4196 11.0218 70 15 70H45V80H25C23.6739 80 22.4021 80.5268 21.4645 81.4645C20.5268 82.4021 20 83.6739 20 85C20 86.3261 20.5268 87.5979 21.4645 88.5355C22.4021 89.4732 23.6739 90 25 90H75C76.3261 90 77.5979 89.4732 78.5355 88.5355C79.4732 87.5979 80 86.3261 80 85C80 83.6739 79.4732 82.4021 78.5355 81.4645C77.5979 80.5268 76.3261 80 75 80H55V70H85C88.9782 70 92.7936 68.4196 95.6066 65.6066C98.4196 62.7936 100 58.9782 100 55V50H0V55Z" fill="#803EF9"/>
</svg>
