<svg width="51" height="51" viewBox="0 0 51 51" fill="none" xmlns="http://www.w3.org/2000/svg">
<path d="M50.7924 27.1301C50.0867 24.9672 47.7302 23.8174 45.5559 24.5232L40.3877 26.2422L36.9384 15.9968L42.1067 14.2779C44.2809 13.5721 45.4193 11.227 44.7249 9.05272C44.0191 6.88981 41.6627 5.74005 39.4884 6.44584L34.3202 8.16479L32.5329 2.81443C31.8271 0.651517 29.4707 -0.49824 27.2964 0.207552C25.1221 0.913344 23.9837 3.25839 24.6781 5.43269L26.4654 10.783L15.833 14.3348L14.0457 8.98442C13.3399 6.8215 10.9835 5.67175 8.80921 6.37754C6.63492 7.08333 5.49655 9.42838 6.19095 11.6027L7.9782 16.953L2.82137 18.6606C0.647073 19.3664 -0.491301 21.7114 0.203107 23.8857C0.772294 25.5364 2.3774 26.6178 4.02804 26.6861C4.80214 26.8 5.39409 26.504 10.5965 24.7737L14.0457 35.019L8.87752 36.738C6.71461 37.4438 5.56485 39.8002 6.25926 41.9631C6.82844 43.6138 8.43355 44.6952 10.0842 44.7635C10.8583 44.8773 11.4502 44.5814 16.6526 42.851L18.4399 48.2014C19.1115 50.1253 21.2516 51.5027 23.6764 50.8083C25.8507 50.1025 26.989 47.7574 26.2946 45.5831L24.5074 40.2328L35.1626 36.6697L36.9498 42.02C37.6215 43.9439 39.7616 45.3213 42.1863 44.6269C44.3606 43.9211 45.499 41.5761 44.8046 39.4018L43.0174 34.0514L48.1856 32.3325C50.3485 31.6494 51.4982 29.293 50.7924 27.1301ZM21.8664 32.5032L18.4171 22.2351L29.0609 18.672L32.5102 28.9401L21.8664 32.5032Z" fill="#602BC1"/>
</svg>
